<svg width="67" height="70" viewBox="0 0 67 70" fill="none" xmlns="http://www.w3.org/2000/svg">
<path d="M39.8938 19.0779C40.8708 19.668 43.0258 21.1295 45.133 23.1759C47.2582 25.2018 49.2905 27.8091 50.6292 30.0032C51.4135 31.2657 52.1212 32.5793 52.7378 33.9358C53.0466 34.6121 53.3111 35.2976 53.5973 35.9804C53.8745 36.6651 54.1015 37.3658 54.3521 38.0559C55.2914 40.8502 55.9564 43.7141 56.416 46.5945C57.3332 52.3632 57.4478 58.1569 57.3282 63.8709C57.2931 65.659 57.2729 68.6887 56.3562 68.6241C55.4022 68.5579 54.8644 66.5321 54.8837 63.4432C54.9058 59.7026 54.8769 55.9652 54.5794 52.261C54.3025 48.5582 53.703 44.8867 52.6695 41.3811C51.9046 38.8272 50.9425 36.3215 49.7655 33.9771C48.5696 31.6403 47.0995 29.4362 45.3968 27.4435C43.6891 25.4536 41.7471 23.6662 39.6052 22.1872C37.4622 20.7122 35.1105 19.5474 32.6363 18.855C30.4193 18.2188 28.1057 17.9904 25.8231 18.1618C25.244 18.2128 24.6943 18.2634 24.1601 18.3813C23.6231 18.4941 23.0904 18.6377 22.5834 18.826C21.5772 19.2046 20.6457 19.7422 20.0115 20.4521C19.3649 21.146 19.0322 22.0124 19.0631 22.9131C19.0851 23.8157 19.4793 24.7674 20.0889 25.5875C20.3937 25.9975 20.7531 26.3758 21.1456 26.7083C21.3439 26.8751 21.5453 27.0301 21.7725 27.1668C21.9959 27.3024 22.209 27.4605 22.4405 27.5815C23.366 28.082 24.4094 28.3616 25.4722 28.4906C29.4961 28.9332 33.8562 26.7296 35.7277 23.2151C36.6943 21.4367 37.1222 19.3708 37.0631 17.3091C37.0474 16.2735 36.8656 15.2482 36.6256 14.2368C36.3767 13.2271 35.9878 12.2557 35.5433 11.32C34.7249 9.71576 33.6828 8.27468 32.3262 7.06926C30.9853 5.86804 29.4387 4.85587 27.7475 4.1333C26.0644 3.39607 24.2553 2.89449 22.4052 2.65554C21.4829 2.51787 20.5461 2.48153 19.6079 2.46587C18.6691 2.48373 17.7367 2.52437 16.8036 2.66162C15.9201 2.77007 14.9674 3.01154 14.0071 3.29725C13.0486 3.59187 12.086 3.94855 11.1699 4.2882C9.64241 4.83028 7.20376 6.03748 5.78076 6.83066C5.16418 7.16218 4.5225 7.52486 3.96829 7.93623C2.70235 8.89357 1.89562 9.48144 1.3984 9.61762C0.905083 9.75485 0.729845 9.45532 0.838564 8.70568C0.889689 8.37419 0.484465 8.30771 1.0217 7.69394C1.0447 7.67063 1.08784 7.61905 1.11084 7.59574C2.69054 5.62377 5.00623 4.48466 7.26691 3.34764C10.0528 1.93881 13.0503 0.881354 16.1713 0.378977C19.2983 -0.130207 22.5341 -0.0293215 25.6314 0.72904C28.7209 1.48531 31.7 2.91921 34.1302 5.07319C35.344 6.13932 36.4236 7.40942 37.2732 8.80312C38.1277 10.1939 38.7778 11.7068 39.206 13.2822C39.4841 14.245 39.6311 15.2441 39.7397 16.2456C39.8011 17.2513 39.8181 18.2662 39.6939 19.2769C39.4643 21.2907 38.8509 23.2985 37.7337 25.045C36.6191 26.8132 35.0686 28.2542 33.3084 29.2896C31.5358 30.309 29.5589 30.9496 27.5047 31.1442C26.3822 31.2223 25.2304 31.2378 24.0909 31.0041C23.5171 30.9261 22.9591 30.7261 22.4048 30.5439C22.1227 30.4556 21.8663 30.3027 21.5975 30.1802C21.332 30.0459 21.0622 29.9273 20.8209 29.749L20.8569 29.7713C19.778 29.1707 18.7758 28.3465 17.9889 27.3442C17.2069 26.3391 16.5847 25.1284 16.3779 23.7428C16.1885 22.4334 16.4256 20.9857 17.1073 19.817C17.7719 18.6186 18.7801 17.7479 19.8223 17.1095C20.876 16.491 21.9843 16.0597 23.1111 15.7933C23.6733 15.6493 24.2463 15.5587 24.8111 15.4827C25.3647 15.4332 25.9147 15.3659 26.4695 15.3588C27.5768 15.3061 28.6823 15.3539 29.7706 15.4814C30.8622 15.5971 31.9302 15.8159 32.9747 16.0915C35.0636 16.6428 37.0186 17.4908 38.8126 18.5019C39.0828 18.6501 39.488 18.826 39.8938 19.0779Z" fill="#7179CE"/>
<path d="M59.6231 54.9469C59.834 54.0815 60.5938 51.0269 61.0288 49.0597C62.0455 44.4995 63.0483 39.9441 64.3005 35.4428C64.4928 34.7408 64.7541 33.5311 65.6446 33.7403C66.5703 33.9588 66.9453 34.8886 66.6472 36.1263C65.9237 39.1233 65.0493 42.1051 64.5432 45.1351C63.8037 49.5675 62.6664 53.9059 61.6679 58.2731C61.2212 60.2372 60.7433 62.1928 60.2575 64.1464C60.1338 64.6395 60.0242 65.111 59.8832 65.6373C59.7393 66.1587 59.5703 66.7111 59.302 67.2749C59.1683 67.5548 59.0081 67.8402 58.8137 68.1123C58.6102 68.4029 58.3718 68.6674 58.1006 68.8978C57.5593 69.3547 56.872 69.7473 55.9709 69.7963C55.6397 69.8128 55.296 69.767 54.9719 69.6633C54.5747 69.5358 54.2272 69.3164 53.9489 69.0735C53.6705 68.8305 53.4563 68.5669 53.2823 68.3097C52.9381 67.7966 52.7232 67.3012 52.5429 66.8487L51.5555 64.3279C50.9052 62.6592 50.261 60.9838 49.666 59.2963C48.5825 56.2276 47.7153 53.0864 46.7048 49.9953C46.4686 49.2669 45.9992 48.4549 45.7308 47.659C45.509 47.0018 45.1282 45.9063 44.9734 45.2334C44.9051 44.9414 44.8438 44.6387 44.7141 44.3725C44.1203 43.1652 44.3148 42.7206 45.4484 42.7886C45.6994 42.8053 45.9448 42.5932 46.2004 42.8427C46.21 42.8537 46.2342 42.8729 46.2438 42.8838C47.1686 43.5905 47.2312 44.6386 47.5843 45.5877C49.3185 50.2452 50.9925 54.9243 52.6902 59.593L54.2384 63.8975L54.6294 64.9705C54.7615 65.3216 54.8979 65.7033 55.0239 66.0149C55.1527 66.3315 55.286 66.6156 55.4276 66.8219C55.5681 67.0321 55.7065 67.1408 55.7729 67.1586C55.7914 67.1677 55.8053 67.163 55.8219 67.1633C55.8723 67.1473 55.8942 67.1279 56.0161 67.0638C56.1242 67.0043 56.2762 66.9061 56.443 66.7993L56.4381 66.8022C56.5201 66.7147 56.5866 66.6231 56.6494 66.5136C56.7193 66.3934 56.7846 66.2594 56.848 66.1164C56.9681 65.8245 57.0753 65.4869 57.1841 65.112C57.2867 64.7606 57.3812 64.3608 57.4839 63.9463C57.5856 63.5357 57.6822 63.128 57.7839 62.7175C57.9793 61.8943 58.1758 61.0671 58.3702 60.2478C58.7601 58.6053 59.1535 56.9806 59.5604 55.431C59.5823 55.3022 59.5796 55.1247 59.6231 54.9469Z" fill="#7179CE"/>
</svg>
