<svg width="464" height="300" viewBox="0 0 464 300" fill="none" xmlns="http://www.w3.org/2000/svg">
<g clip-path="url(#clip0_110_1988)">
<path opacity="0.3" d="M439.422 200.785C436.65 196.091 438.869 189.876 442.521 185.837C446.182 181.798 451.072 179.077 454.958 175.248C461.905 168.409 465.16 158.015 463.346 148.432C461.539 138.848 454.717 130.357 445.761 126.528C433.371 121.233 416.822 123.838 408.396 113.319C402.742 106.27 403.443 96.0703 405.81 87.3447C408.178 78.6191 411.962 70.0183 411.565 60.9808C410.685 41.0967 388.771 27.3027 368.935 28.6127C349.1 29.9227 331.733 42.1338 316.804 55.2807C312.49 59.086 308.098 63.1096 302.623 64.8874C297.148 66.6653 290.24 65.4723 287.219 60.5675C285.646 58.0099 285.334 54.844 283.855 52.2318C279.174 43.9741 266.465 45.8689 258.646 51.2415C250.827 56.6141 243.942 64.5521 234.519 65.6282C222.698 66.9772 212.644 56.7155 207.371 46.0327C202.099 35.3499 199.327 23.1933 191.64 14.0934C179.499 -0.277724 155.614 -2.61703 140.919 9.12627C130.078 17.7895 125.133 31.6304 118.786 43.9819C112.447 56.3334 102.479 68.8487 88.6554 70.0417C71.6159 71.5155 57.7148 55.2495 40.6908 53.5574C26.0966 52.1071 11.9308 62.4858 6.3392 76.0615C0.74762 89.6373 2.71791 105.467 8.86242 118.793C14.9291 131.94 25.1465 144.868 22.5922 159.122C20.03 173.431 5.38131 182.757 1.17594 196.676C-2.28959 208.139 2.1572 220.825 9.72686 230.112C17.2887 239.392 27.6152 245.926 37.7471 252.297L427.974 266.27C440.146 256.102 448.417 242.136 456.454 228.451C458.938 224.217 461.5 219.164 459.615 214.634C456.391 206.891 443.682 207.998 439.414 200.785H439.422Z" fill="#C6E3FF"/>
<mask id="mask0_110_1988" style="mask-type:luminance" maskUnits="userSpaceOnUse" x="0" y="0" width="464" height="266">
<path d="M439.578 199.873C436.805 195.179 439.025 188.964 442.677 184.925C446.338 180.886 451.228 178.164 455.114 174.336C462.061 167.497 465.316 157.103 463.502 147.52C461.687 137.936 454.873 129.445 445.917 125.616C433.527 120.321 416.978 122.926 408.552 112.407C402.898 105.358 403.599 95.1582 405.966 86.4326C408.333 77.707 412.118 69.1062 411.721 60.0687C410.841 40.1846 388.926 26.3905 369.091 27.7006C349.256 29.0106 331.889 41.2217 316.96 54.3686C312.646 58.1739 308.253 62.1975 302.779 63.9753C297.312 65.7532 290.396 64.5602 287.375 59.6554C285.801 57.0978 285.49 53.9319 284.01 51.3197C279.33 43.062 266.62 44.9568 258.801 50.3294C250.983 55.702 244.098 63.64 234.675 64.7161C222.853 66.0651 212.799 55.8034 207.527 45.1206C202.247 34.4377 199.482 22.2812 191.796 13.1813C179.655 -1.18983 155.77 -3.52914 141.075 8.21416C130.234 16.8774 125.289 30.7183 118.942 43.0698C112.603 55.4213 102.634 67.9366 88.8111 69.1296C71.7716 70.6034 57.8705 54.3374 40.8466 52.6453C26.2524 51.1949 12.0865 61.5736 6.49496 75.1494C0.903382 88.7252 2.87367 104.554 9.01818 117.881C15.0848 131.028 25.3023 143.956 22.7479 158.21C20.1858 172.519 5.53707 181.845 1.33171 195.764C-2.13383 207.226 2.31296 219.913 9.88262 229.2C17.4445 238.48 27.771 245.014 37.9028 251.385L428.13 265.358C440.302 255.19 448.573 241.224 456.61 227.539C459.094 223.305 461.656 218.252 459.771 213.722C456.547 205.979 443.838 207.086 439.57 199.873H439.578Z" fill="white"/>
</mask>
<g mask="url(#mask0_110_1988)">
<path d="M126.535 127.604H53.7507V229.933H126.535V127.604Z" fill="white"/>
<path d="M126.535 20.0981H53.7507V122.427H126.535V20.0981Z" fill="white"/>
<path d="M205.557 127.604H132.773V229.933H205.557V127.604Z" fill="white"/>
<path d="M205.557 20.0981H132.773V122.427H205.557V20.0981Z" fill="white"/>
<path d="M119.253 -0.846418C119.253 -0.846418 118.459 82.1754 65.4635 135.114C65.4635 135.114 83.3909 252.796 85.7817 277.546H28.4174C28.4174 277.546 37.1863 168.246 40.3715 136.634C40.3715 136.634 33.5962 30.7576 32.0075 -1.99268L119.261 -0.846418H119.253Z" fill="#A4BFFB"/>
<path d="M138.216 -0.846418C138.216 -0.846418 139.011 82.1754 192.006 135.114C192.006 135.114 174.079 252.796 171.688 277.546H229.06C229.06 277.546 220.291 168.246 217.106 136.634C217.106 136.634 223.881 30.7576 225.47 -1.99268L138.216 -0.846418Z" fill="#84A6F2"/>
</g>
<path d="M369.613 90.7993H360.057V131.285H369.613V90.7993Z" fill="#ADDCFF"/>
<path d="M378.904 96.0859H369.348V131.277H378.904V96.0859Z" fill="#C6E3FF"/>
<path d="M360.244 100.664H353.757V131.277H360.244V100.664Z" fill="#C6E3FF"/>
<path d="M383.67 100.359H378.569V131.277H383.67V100.359Z" fill="#ADDCFF"/>
<path d="M426.23 106.262C425.801 105.545 424.89 105.335 424.189 105.654C423.808 105.834 423.488 106.138 423.239 106.512C424.08 104.399 424.431 102.021 424.22 99.7046C424.166 99.0808 424.049 98.4258 423.652 97.9891C422.967 97.2249 421.744 97.568 421.121 98.3946C420.895 98.6909 420.732 99.0262 420.607 99.3849C420.778 98.2776 420.856 97.147 420.809 96.0241C420.778 95.3067 420.537 94.3944 419.906 94.3398C419.47 94.3008 419.12 94.7219 418.863 95.1196C417.897 96.6323 417.297 98.4492 417.149 100.313C417.523 96.9208 417.897 93.4119 417.048 90.1369C416.884 89.4896 416.659 88.8424 416.246 88.359C415.841 87.8755 415.21 87.5792 414.649 87.782C413.917 88.0393 413.567 88.9672 413.357 89.8094C412.757 92.1876 412.586 94.6907 412.811 97.147C412.702 96.9208 412.593 96.6947 412.461 96.4764C412.111 95.8837 411.597 95.3067 410.966 95.3145C410.475 95.3145 410.031 95.6888 409.774 96.1567C409.509 96.6245 409.4 97.186 409.33 97.7396C409.042 99.9697 409.33 102.286 410.133 104.344C409.805 103.908 409.338 103.611 408.84 103.564C408.014 103.486 407.181 104.11 406.901 104.999C406.667 105.74 406.799 106.559 407.01 107.307C408.489 112.532 413.489 115.986 418.201 115.355C420.288 115.074 422.281 114.013 423.854 112.423C425.077 111.183 427.452 108.282 426.245 106.27L426.23 106.262Z" fill="#C6E3FF"/>
<path d="M423.231 130.52H409.587L406.441 114.473H426.378L423.231 130.52Z" fill="#C6E3FF"/>
<path d="M423.893 129.039H408.863V131.012H423.893V129.039Z" fill="#ADDCFF"/>
<path d="M426.876 111.744H405.88V116.173H426.876V111.744Z" fill="#ADDCFF"/>
<path d="M442.833 130.926H332.216V133.648H442.833V130.926Z" fill="#C6E3FF"/>
<path d="M441.338 133.655H333.712V141.554H441.338V133.655Z" fill="#C6E3FF"/>
<path d="M322.45 55.8193H296.907V68.5373H322.45V55.8193Z" fill="#C6E3FF"/>
<path d="M322.964 68.5371H296.385V70.4008H322.964V68.5371Z" fill="#ADDCFF"/>
<path d="M316.353 58.7041H302.997C301.995 58.7041 301.182 59.5175 301.182 60.521V64.2794C301.182 65.2829 301.995 66.0963 302.997 66.0963H316.353C317.355 66.0963 318.167 65.2829 318.167 64.2794V60.521C318.167 59.5175 317.355 58.7041 316.353 58.7041Z" fill="white"/>
<path d="M318.588 37.1511C317.544 37.1121 316.104 36.6599 315.114 34.7183C314.92 34.3362 315.068 33.8683 315.449 33.6656C315.831 33.4706 316.298 33.6188 316.501 34.0009C317.03 35.0224 317.747 35.5604 318.642 35.5916C318.65 35.5916 318.666 35.5916 318.673 35.5916C320.324 35.6228 322.466 33.9931 323.751 31.7162C325.083 29.3613 324.974 26.8348 324.172 25.556C323.798 24.9634 323.323 24.6749 322.731 24.7138C321.578 24.784 320.924 25.6963 320.293 26.5775C319.694 27.4118 319.039 28.3554 317.887 28.2306C317.459 28.176 317.155 27.7939 317.209 27.365C317.256 26.9362 317.638 26.6321 318.074 26.6789C318.268 26.71 318.697 26.133 319.032 25.673C319.756 24.6593 320.745 23.2713 322.645 23.1543C323.798 23.0841 324.818 23.6456 325.495 24.7294C326.726 26.71 326.57 29.8993 325.106 32.4803C323.502 35.3187 320.901 37.1901 318.642 37.1433C318.627 37.1433 318.603 37.1433 318.588 37.1433V37.1511Z" fill="#ADDCFF"/>
<path d="M300.762 37.1511C301.805 37.1121 303.246 36.6599 304.235 34.7183C304.43 34.3362 304.282 33.8683 303.9 33.6656C303.519 33.4706 303.051 33.6188 302.849 34.0009C302.319 35.0224 301.603 35.5604 300.707 35.5916C300.699 35.5916 300.684 35.5916 300.676 35.5916C299.025 35.6228 296.883 33.9931 295.598 31.7162C294.267 29.3613 294.376 26.8348 295.178 25.556C295.552 24.9634 296.027 24.6749 296.619 24.7138C297.771 24.784 298.425 25.6963 299.056 26.5775C299.656 27.4118 300.31 28.3554 301.463 28.2306C301.891 28.176 302.195 27.7939 302.14 27.365C302.093 26.9362 301.712 26.6321 301.276 26.6789C301.081 26.71 300.653 26.133 300.318 25.673C299.593 24.6593 298.604 23.2713 296.704 23.1543C295.552 23.0841 294.531 23.6456 293.854 24.7294C292.623 26.71 292.779 29.8993 294.243 32.4803C295.848 35.3187 298.449 37.1901 300.707 37.1433C300.723 37.1433 300.746 37.1433 300.762 37.1433V37.1511Z" fill="#ADDCFF"/>
<path d="M300.987 53.8696H318.37C318.697 53.8696 318.962 54.1347 318.962 54.4622V55.2186C318.962 55.5461 318.697 55.8112 318.37 55.8112H300.987C300.66 55.8112 300.396 55.5461 300.396 55.2186V54.4622C300.396 54.1347 300.66 53.8696 300.987 53.8696Z" fill="#ADDCFF"/>
<path d="M316.734 53.02L314.99 51.6242C313.269 50.2518 312.248 48.1854 312.186 45.9865C313.043 45.2691 313.604 44.2008 313.604 42.9922C313.604 42.1656 313.347 41.4015 312.91 40.7699C318.938 37.9939 320.06 27.3813 320.13 20.9092H299.227C299.298 27.3813 300.419 37.9939 306.447 40.7699C306.011 41.4015 305.754 42.1656 305.754 42.9922C305.754 44.2008 306.314 45.2691 307.171 45.9865C307.109 48.1854 306.088 50.2518 304.367 51.6242L302.623 53.02C302.218 53.2851 302.428 53.87 302.927 53.87H316.438C316.937 53.87 317.147 53.2851 316.742 53.02H316.734Z" fill="#C6E3FF"/>
<path d="M319.888 19.646H299.469C298.931 19.646 298.495 20.0827 298.495 20.6207C298.495 21.1587 298.931 21.5954 299.469 21.5954H319.888C320.426 21.5954 320.862 21.1587 320.862 20.6207C320.862 20.0827 320.426 19.646 319.888 19.646Z" fill="#ADDCFF"/>
<path d="M387.447 69.9717H276.83V72.6931H387.447V69.9717Z" fill="#C6E3FF"/>
<path d="M385.952 72.6934H278.325V80.5924H385.952V72.6934Z" fill="#C6E3FF"/>
<path d="M359.356 44.0601H364.73C365.034 44.0601 365.283 44.2394 365.353 44.5201L371.755 68.7787C371.887 69.2933 371.404 69.8782 370.843 69.8782H365.47C365.166 69.8782 364.917 69.6988 364.847 69.4181L358.445 45.1595C358.313 44.6449 358.796 44.0601 359.356 44.0601Z" fill="#ADDCFF"/>
<path d="M368.99 34.8745H343.174L337.699 69.9251H363.523L368.99 34.8745Z" fill="#ADDCFF"/>
<path d="M367.534 34.8745H341.717L336.243 69.9251H362.059L367.534 34.8745Z" fill="#C6E3FF"/>
<path d="M363.741 38.1108H344.498L340.035 66.6893H359.279L363.741 38.1108Z" fill="white"/>
<path d="M357.885 43.6001H348.633L345.891 61.1994H355.143L357.885 43.6001Z" fill="#C6E3FF"/>
<path d="M184.195 179.553C183.089 171.061 186.017 163.653 194.895 163.653C203.773 163.653 208.898 174.305 210.004 182.789C211.109 191.28 217.137 228.998 219.917 231.407C224.87 235.688 255.25 231.22 261.309 235.883C267.368 240.546 274.564 273.078 269.393 278.794C264.222 284.502 211.164 284.97 202.574 278.794C193.984 272.618 185.301 188.037 184.195 179.553Z" fill="#FFB145"/>
<g style="mix-blend-mode:multiply" opacity="0.32">
<path d="M184.195 179.553C183.089 171.061 186.017 163.653 194.895 163.653C203.773 163.653 208.898 174.305 210.004 182.789C211.109 191.28 217.137 228.998 219.917 231.407C224.87 235.688 255.25 231.22 261.309 235.883C267.368 240.546 274.564 273.078 269.393 278.794C264.222 284.502 211.164 284.97 202.574 278.794C193.984 272.618 185.301 188.037 184.195 179.553Z" fill="#FFB145"/>
</g>
<path d="M91.3502 173.034C94.2239 166.562 106.879 160.464 144.54 160.464C182.202 160.464 194.327 164.082 197.092 168.558C199.856 173.034 225.603 274.864 219.006 279.979C212.41 285.094 121.559 287.862 112.198 280.408C102.837 272.953 89.6447 176.87 91.3502 173.034Z" fill="#FFB145"/>
<g style="mix-blend-mode:multiply" opacity="0.1">
<path d="M197.099 168.558C196.398 167.427 195.098 166.351 192.941 165.376C199.747 194.953 182.108 224.226 159.438 242.152C148.185 251.05 133.957 258.325 119.207 256.929C113.085 256.352 107.587 254.13 102.432 250.901C105.664 266.005 109.137 277.967 112.205 280.408C121.566 287.862 212.418 285.094 219.014 279.979C225.61 274.864 199.864 173.034 197.099 168.558Z" fill="#FFB145"/>
</g>
<g style="mix-blend-mode:overlay" opacity="0.36">
<path d="M93.624 176.527C97.5957 174.391 101.793 172.535 105.936 170.765C116.123 166.421 126.698 164.23 137.695 163.201C149.875 162.062 162.125 162.296 174.328 162.764C177.607 162.889 180.885 162.998 184.117 162.873C176.041 161.384 163.542 160.464 144.54 160.464C106.879 160.464 94.2237 166.562 91.35 173.034C91.1475 173.478 91.1553 175.194 91.3344 177.868C92.0665 177.385 92.8452 176.948 93.6162 176.527H93.624Z" fill="#FFB145"/>
</g>
<path d="M187.941 234.76C189.101 230.83 189.911 226.806 190.379 222.736C191.321 214.525 190.861 206.158 189 198.103C187.933 193.502 186.415 189.011 184.437 184.722C184.063 183.911 183.627 183.054 182.84 182.617C182.061 182.18 180.846 182.43 180.605 183.295C164.601 176.566 145.95 176.41 129.845 182.882C126.706 184.145 123.482 185.674 120.11 185.369C118.911 185.26 117.735 184.917 116.535 185.011C115.336 185.096 114.059 185.783 113.786 186.952C113.514 188.122 114.908 189.448 115.912 188.793C112.338 202.891 112.86 218.003 117.384 231.82C118.498 235.228 119.869 238.846 118.926 242.308C118.615 243.439 118.062 244.624 118.428 245.739C118.794 246.854 120.741 247.275 121.006 246.129C135.553 255.736 154.563 258.223 171.096 252.695C175.364 251.268 179.445 249.349 183.518 247.431C184.764 246.846 186.111 246.152 186.64 244.881C187.248 243.408 185.714 242.175 185.893 240.686C186.111 238.799 187.388 236.631 187.933 234.775L187.941 234.76Z" fill="#FFF8DB"/>
<g style="mix-blend-mode:multiply">
<path d="M187.941 234.76C188.969 231.282 189.709 227.727 190.192 224.132C186.687 224.896 183.136 225.426 179.6 225.808C167.413 227.134 154.82 226.292 143.029 222.876C133.248 220.038 124.035 214.743 117.532 206.782C116.224 205.183 114.962 203.406 113.833 201.503C113.015 211.71 114.207 222.081 117.392 231.812C118.506 235.22 119.876 238.838 118.934 242.3C118.623 243.431 118.07 244.616 118.436 245.731C118.802 246.846 120.749 247.267 121.013 246.121C135.561 255.728 154.571 258.215 171.104 252.687C175.372 251.26 179.452 249.342 183.525 247.423C184.771 246.839 186.119 246.145 186.648 244.874C187.256 243.4 185.722 242.168 185.901 240.678C186.119 238.791 187.396 236.624 187.941 234.768V234.76Z" fill="#FFF8DB"/>
</g>
<path d="M231.451 190.08C231.451 190.08 252.649 220.943 255.375 222.916C258.101 224.881 301.805 244.164 301.805 244.164L287.756 260.781C287.756 260.781 239.659 242.067 236.077 237.957C232.495 233.848 211.826 204.178 211.826 204.178L231.451 190.072V190.08Z" fill="#FFC9B0"/>
<g style="mix-blend-mode:multiply" opacity="0.6">
<path d="M231.451 190.08C231.451 190.08 252.649 220.943 255.375 222.916C258.101 224.881 301.805 244.164 301.805 244.164L287.756 260.781C287.756 260.781 239.659 242.067 236.077 237.957C232.495 233.848 211.826 204.178 211.826 204.178L231.451 190.072V190.08Z" fill="#FFC9B0"/>
</g>
<g style="mix-blend-mode:multiply">
<path d="M230.127 215.944C232.651 213.909 234.652 211.305 236.256 208.505C237.596 206.166 238.554 203.726 239.145 201.144C234.878 195.062 231.459 190.08 231.459 190.08L211.834 204.186C211.834 204.186 216.989 211.586 222.597 219.508C225.244 218.58 227.814 217.816 230.127 215.944Z" fill="#FFC9B0"/>
</g>
<path d="M185.208 168.893C189.974 168.441 194.335 166.211 196.531 161.852C197.559 159.809 197.691 157.727 197.567 155.629C194.124 154.943 190.363 154.086 187.045 153.111C177.934 150.428 176.906 151.216 172.506 153.353C170.715 154.218 167.218 155.653 163.612 157.111C168.378 164.542 176.111 169.759 185.215 168.893H185.208Z" fill="#FFC9B0"/>
<g style="mix-blend-mode:multiply" opacity="0.3">
<path d="M197.567 155.63C196.656 155.45 195.729 155.255 194.786 155.053C192.684 158.562 189.109 161.735 186.609 163.162C183.728 164.815 177.537 166.741 172.755 166.102C176.431 168.239 180.644 169.33 185.208 168.894C189.974 168.441 194.335 166.211 196.531 161.852C197.559 159.809 197.691 157.727 197.567 155.63Z" fill="#FFC9B0"/>
</g>
<path d="M191.749 138.763L171.369 135.262L170.123 157.243L189.569 160.479L191.749 138.763Z" fill="#FFC9B0"/>
<mask id="mask1_110_1988" style="mask-type:luminance" maskUnits="userSpaceOnUse" x="170" y="135" width="22" height="26">
<path d="M191.749 138.763L171.369 135.262L170.123 157.243L189.569 160.479L191.749 138.763Z" fill="white"/>
</mask>
<g mask="url(#mask1_110_1988)">
<g style="mix-blend-mode:multiply">
<path d="M196.11 152.471C179.491 153.227 171.306 133.998 171.735 133.187C172.272 132.182 173.869 132.236 175.177 132.501C184.382 134.357 197.349 139.324 199.007 143.402C200.666 147.481 198.447 152.362 196.102 152.471H196.11Z" fill="#FFC9B0"/>
</g>
</g>
<path d="M210.658 100.313C211.164 101.147 211.398 102.114 211.561 103.073C211.989 105.506 212.036 108.009 211.701 110.458C211.553 111.526 211.327 112.61 210.775 113.538C209.996 114.824 208.664 115.666 207.317 116.337C206.484 116.75 205.51 117.117 204.646 116.766C204.069 116.532 203.657 116.01 203.368 115.456C202.372 113.53 202.66 111.222 202.995 109.077C203.306 107.019 203.641 104.945 204.467 103.034C205.074 101.615 205.985 100.266 207.223 99.3148C208.578 98.2777 209.786 98.8859 210.65 100.313H210.658Z" fill="#FB4F4F"/>
<g style="mix-blend-mode:multiply" opacity="0.64">
<path d="M210.658 100.313C211.164 101.147 211.398 102.114 211.561 103.073C211.989 105.506 212.036 108.009 211.701 110.458C211.553 111.526 211.327 112.61 210.775 113.538C209.996 114.824 208.664 115.666 207.317 116.337C206.484 116.75 205.51 117.117 204.646 116.766C204.069 116.532 203.657 116.01 203.368 115.456C202.372 113.53 202.66 111.222 202.995 109.077C203.306 107.019 203.641 104.945 204.467 103.034C205.074 101.615 205.985 100.266 207.223 99.3148C208.578 98.2777 209.786 98.8859 210.65 100.313H210.658Z" fill="#FB4F4F"/>
</g>
<path d="M209.513 127.129C209.513 127.129 209.505 127.183 209.497 127.207C209.451 127.456 209.404 127.698 209.365 127.94C208.828 130.731 207.005 137.726 204.879 142.03C204.614 142.56 204.35 143.044 204.085 143.481C201.126 148.292 197.598 149.89 188.634 147.645C172.833 143.691 160.528 125.92 168.441 106.496C168.62 106.067 168.807 105.638 168.993 105.225C171.524 99.7902 175.808 95.2753 180.807 92.8659C194.047 86.4874 209.63 94.8309 210.3 114.193C210.447 118.746 210.206 123.121 209.513 127.129Z" fill="#FFC9B0"/>
<g style="mix-blend-mode:multiply" opacity="0.3">
<path d="M210.299 114.192C210.089 108.055 208.376 103.034 205.712 99.2285C208.329 118.27 203.415 133.164 200.004 139.067C198.182 142.225 195.557 145.547 192.45 148.408C198.672 149.297 201.585 147.535 204.077 143.48C204.342 143.044 204.607 142.56 204.871 142.03C206.997 137.726 208.82 130.731 209.357 127.94C209.396 127.698 209.443 127.456 209.489 127.207C209.489 127.183 209.489 127.152 209.505 127.129C210.198 123.121 210.44 118.746 210.292 114.192H210.299Z" fill="#FFC9B0"/>
</g>
<g opacity="0.15">
<path d="M209.497 127.207C209.451 127.456 209.404 127.698 209.365 127.94C208.828 130.731 207.005 137.726 204.879 142.03C203.945 141.921 203.041 141.523 202.52 140.759C201.982 139.964 201.959 138.927 202.052 137.96C202.372 134.537 203.89 131.23 206.281 128.759C207.146 127.862 208.298 127.035 209.497 127.207Z" fill="#FB4F4F"/>
<path d="M177.942 137.718C177.747 137.562 177.56 137.406 177.381 137.25C174.422 134.583 171.081 129.094 174.079 124.969C175.559 122.934 178.331 122.388 180.519 123.253C182.708 124.119 184.351 126.146 185.41 128.408C186.204 130.092 186.734 131.987 186.594 133.897C186.454 135.815 185.566 137.741 184.055 138.763C182.061 140.104 179.67 139.09 177.934 137.718H177.942Z" fill="#FB4F4F"/>
</g>
<path d="M215.182 94.7297C215.198 97.2873 213.368 99.6422 211.016 100.773C207.379 102.535 204.91 102.395 199.132 101.693C198.696 101.638 198.244 101.56 197.785 101.459C192.248 100.274 185.612 96.2502 181.384 98.7299C178.502 100.414 177.007 103.19 176.423 106.052C176.073 107.744 176.049 109.459 176.244 111.003C176.781 115.144 176.602 116.181 176.703 118.131C176.143 120.01 175.364 121.928 173.425 121.866C171.828 121.811 170.652 118.169 169.079 117.951C167.989 117.795 167.358 118.645 166.681 119.316C166.353 119.635 165.941 119.924 165.473 119.947C165.263 119.963 165.053 119.916 164.843 119.846C162.935 113.998 161.346 107.627 162.787 101.521C162.833 101.303 162.888 101.085 162.95 100.866C162.958 100.827 162.974 100.788 162.981 100.749C163.098 100.336 163.231 99.9307 163.371 99.5408C164.858 95.3925 167.818 91.9537 171.509 89.5052C171.953 89.2011 172.412 88.9204 172.88 88.6553C175.434 87.1815 178.284 86.1522 181.205 85.6454C183.86 85.1775 186.578 85.1385 189.195 85.5908C190.293 85.7779 191.399 86.16 192.396 86.6513C192.816 86.854 194.888 87.8443 194.895 88.3434C194.88 86.8228 196.593 85.544 198.096 85.9417C199.599 86.3472 200.394 88.3044 199.576 89.5988C200.97 87.8209 202.372 86.0431 203.766 84.273C204.459 83.3841 205.533 82.386 206.585 82.8304C207.317 83.1423 207.589 84.0079 207.675 84.772C207.885 86.5499 207.535 88.3902 206.694 89.9809C207.27 89.0686 208.072 88.1328 209.015 88.7255C210.338 89.552 208.921 91.5794 208.368 92.8504C209.474 91.8523 210.775 90.7763 212.27 90.9322C214.038 91.1116 215.167 92.9986 215.182 94.7297Z" fill="#FB4F4F"/>
<g style="mix-blend-mode:multiply" opacity="0.64">
<path d="M212.94 91.0884C211.958 94.2932 209.56 96.9054 205.954 97.9581C202.932 98.8393 199.646 98.7301 196.554 98.426C193.494 98.1219 190.285 97.2174 187.147 97.0302C185.916 97.2096 184.678 97.4123 183.494 97.888C183.307 97.9659 183.128 98.0517 182.949 98.1297C187.528 97.0692 193.984 101.069 199.14 101.701C204.918 102.403 207.379 102.543 211.024 100.781C213.376 99.6424 215.198 97.2953 215.182 94.7377C215.175 93.2405 214.318 91.6186 212.94 91.104V91.0884Z" fill="#FB4F4F"/>
</g>
<g style="mix-blend-mode:multiply" opacity="0.64">
<path d="M179.102 100.585C177.942 101.63 176.976 102.878 176.259 104.336C173.596 109.81 176.633 116.656 173.869 121.834C175.488 121.616 176.197 119.861 176.703 118.13C176.602 116.181 176.781 115.136 176.252 110.995C175.823 107.666 176.454 103.478 179.102 100.578V100.585Z" fill="#FB4F4F"/>
</g>
<g style="mix-blend-mode:screen" opacity="0.5">
<path d="M189.358 94.3942C188.977 94.9323 188.432 95.2988 187.855 95.5873C186.08 96.5074 184.032 96.8271 182.155 97.5445C179.702 98.4958 177.56 100.141 175.971 102.309C175.629 102.785 175.301 103.291 174.811 103.603C174.328 103.907 173.635 103.97 173.113 103.564C172.677 103.213 172.451 102.613 172.046 102.215C171.345 101.498 170.255 101.584 169.593 102.122C168.931 102.66 168.588 103.533 168.277 104.383C168.028 105.046 167.662 105.794 166.976 105.818C166.135 105.841 165.481 104.804 165.224 103.9C164.975 102.995 164.85 101.974 164.188 101.295C163.838 100.944 163.41 100.773 162.981 100.749C163.098 100.336 163.231 99.9306 163.371 99.5407C164.858 95.3923 167.817 91.9535 171.509 89.5051C171.774 89.7312 172.046 89.9261 172.35 90.0509C173.199 90.394 174.071 90.1367 174.764 89.7234C175.473 89.3101 176.088 88.7331 176.828 88.39C177.381 88.1405 178.183 88.1093 178.565 88.7097C178.728 88.9592 178.775 89.2634 178.907 89.5363C179.172 90.0977 179.795 90.4018 180.34 90.4408C180.885 90.4876 181.407 90.316 181.921 90.1835C183.245 89.8404 184.662 89.739 186.08 89.895C186.827 89.9651 187.583 90.1289 188.268 90.5266C188.961 90.9243 189.569 91.6104 189.763 92.4136C189.935 93.131 189.732 93.864 189.358 94.3942Z" fill="#FB4F4F"/>
</g>
<path d="M203.33 123.644C203.135 124.876 203.587 125.975 204.326 126.092C205.074 126.209 205.829 125.304 206.024 124.065C206.219 122.833 205.767 121.733 205.027 121.616C204.28 121.499 203.524 122.404 203.33 123.644Z" fill="black"/>
<path d="M185.457 121.304C185.262 122.536 185.714 123.636 186.454 123.753C187.201 123.87 187.957 122.965 188.151 121.725C188.346 120.493 187.894 119.394 187.155 119.277C186.407 119.16 185.651 120.064 185.457 121.304Z" fill="black"/>
<path d="M198.579 133.562C196.663 133.414 194.732 132.954 193.003 132.112C191.266 131.262 189.795 130.084 188.385 128.782C188.268 128.673 188.05 128.813 188.151 128.961C190.347 132.236 194.716 134.116 198.579 133.96C198.836 133.952 198.828 133.585 198.579 133.562Z" fill="#B92513"/>
<path d="M199.443 126.614C199.007 126.217 198.509 125.92 197.979 125.694C198.338 124.478 198.696 123.261 199.039 122.037C199.389 120.789 199.747 119.534 199.919 118.247C199.942 118.084 199.7 118.084 199.646 118.208C199.148 119.433 198.828 120.711 198.478 121.982C198.12 123.253 197.761 124.517 197.388 125.78C197.341 125.928 197.442 126.068 197.582 126.115C198.081 126.295 198.556 126.536 198.968 126.872C199.334 127.168 199.903 127.659 199.911 128.174C199.911 128.688 199.319 129.156 198.953 129.445C198.525 129.78 198.034 130.045 197.528 130.225C197.317 130.303 197.395 130.638 197.621 130.568C198.268 130.388 198.844 130.092 199.366 129.671C199.809 129.312 200.386 128.798 200.386 128.166C200.386 127.542 199.88 126.996 199.451 126.606L199.443 126.614Z" fill="#B92513"/>
<path d="M203.15 114.512C202.722 115.814 204.28 115.658 206.6 116.461C208.921 117.272 209.069 119.767 209.77 119.666C210.471 119.565 210.377 115.182 207.371 113.67C205.074 112.516 203.431 113.646 203.143 114.504L203.15 114.512Z" fill="#FB4F4F"/>
<path d="M196.258 113.155C196.344 114.426 193.213 113.686 189.724 113.155C186.228 112.625 183.323 115.44 183.058 114.325C182.793 113.202 185.745 109.841 190.044 110.029C194.343 110.208 196.212 112.321 196.266 113.155H196.258Z" fill="#FB4F4F"/>
<g style="mix-blend-mode:multiply" opacity="0.64">
<path d="M203.15 114.512C202.722 115.814 204.28 115.658 206.6 116.461C208.921 117.272 209.069 119.767 209.77 119.666C210.471 119.565 210.377 115.182 207.371 113.67C205.074 112.516 203.431 113.646 203.143 114.504L203.15 114.512Z" fill="#FB4F4F"/>
</g>
<g style="mix-blend-mode:multiply" opacity="0.64">
<path d="M196.258 113.155C196.344 114.426 193.213 113.686 189.724 113.155C186.228 112.625 183.323 115.44 183.058 114.325C182.793 113.202 185.745 109.841 190.044 110.029C194.343 110.208 196.212 112.321 196.266 113.155H196.258Z" fill="#FB4F4F"/>
</g>
<path d="M171.236 119.62C170.045 116.423 167.561 113.865 163.994 115.019C162.833 115.394 161.969 116.431 161.572 117.577C161.175 118.731 161.19 119.986 161.362 121.187C161.805 124.228 163.363 127.191 165.925 128.891C166.891 129.531 168.121 129.991 169.212 129.593C170.707 129.047 171.478 127.379 171.828 125.928C172.249 124.15 172.031 121.741 171.236 119.612V119.62Z" fill="#FFC9B0"/>
<g style="mix-blend-mode:multiply" opacity="0.3">
<path d="M167.257 116.672C168.129 117.585 168.604 118.84 169.437 119.729C170.021 120.353 170.395 121.273 171.4 120.22C171.408 120.213 171.415 120.197 171.423 120.181C171.361 119.994 171.306 119.807 171.236 119.62C170.123 116.626 167.864 114.193 164.663 114.84C165.621 115.222 166.501 115.877 167.257 116.672Z" fill="#FFC9B0"/>
</g>
<path d="M163.822 118.037C164.157 117.795 164.562 117.694 164.967 117.725C165.902 117.787 166.696 118.442 167.195 119.206C167.709 120.002 168.067 120.937 168.355 121.842C168.651 122.785 168.791 123.784 168.737 124.774C168.729 124.969 168.394 124.969 168.394 124.774C168.371 123.144 167.747 121.491 166.977 120.08C166.86 119.861 166.72 119.651 166.572 119.448C166.096 120.126 165.824 120.922 165.777 121.748C165.715 122.746 165.949 123.651 166.26 124.587C166.291 124.68 166.167 124.758 166.104 124.672C164.959 123.027 165.03 120.664 166.315 119.128C166.042 118.832 165.715 118.59 165.318 118.473C164.702 118.286 163.838 118.489 163.472 119.058C163.402 119.167 163.207 119.082 163.246 118.957C163.347 118.59 163.511 118.271 163.83 118.044L163.822 118.037Z" fill="#B92513"/>
<path d="M166.657 119.557C165.801 119.167 164.726 119.323 164.017 119.939C163.308 120.563 163.013 121.608 163.285 122.513C163.519 123.269 164.095 123.862 164.648 124.423C166.704 126.497 170.504 130.7 170.987 130.801C171.47 130.903 172.669 129.788 172.514 129.187C172.358 128.587 169.585 126.154 168.76 124.454C167.958 122.793 168.799 120.501 166.657 119.565V119.557Z" fill="white"/>
<path d="M215.455 216.888C225.532 216.256 233.686 208.069 239.176 199.873C240.181 198.376 241.03 196.871 241.77 195.359C237.066 186.812 232.37 178.274 227.666 169.728C225.984 166.679 223.64 163.965 220.899 161.829C219.536 160.76 217.184 158.865 215.541 158.312C212.76 157.384 211.008 163.653 210.759 165.821C210.494 168.098 210.268 170.375 210.058 172.652C209.63 177.268 209.311 181.892 209.279 186.524C209.272 186.836 209.272 187.14 209.272 187.452C209.272 197.285 210.385 207.468 214.077 214.346C214.544 215.211 215.003 216.054 215.455 216.888Z" fill="#393B6B"/>
<g style="mix-blend-mode:multiply" opacity="0.2">
<path d="M215.455 216.888C225.532 216.256 233.686 208.069 239.176 199.873C240.181 198.376 241.03 196.871 241.77 195.359C237.066 186.812 232.37 178.274 227.666 169.728C225.984 166.679 223.64 163.965 220.899 161.829C219.536 160.76 217.184 158.865 215.541 158.312C212.76 157.384 211.008 163.653 210.759 165.821C210.494 168.098 210.268 170.375 210.058 172.652C209.63 177.268 209.311 181.892 209.279 186.524C209.272 186.836 209.272 187.14 209.272 187.452C209.272 197.285 210.385 207.468 214.077 214.346C214.544 215.211 215.003 216.054 215.455 216.888Z" fill="#393B6B"/>
</g>
<path d="M220.135 186.937C219.567 175.085 218.259 161.01 215.626 158.374C214.388 157.134 197.349 155.146 194.21 154.795C193.961 154.764 193.782 155.013 193.867 155.247C195.137 158.873 193.774 162.959 186.212 163.755C177.614 164.659 172.412 161.47 166.073 156.058C165.084 155.208 143.092 163.872 140.747 167.981C136.378 175.623 146.238 207.437 147.46 220.366C148.683 233.294 146.845 251.369 145.319 261.257C157.102 263.347 200.3 268.36 215.323 259.432C220.143 256.57 220.704 198.774 220.143 186.922L220.135 186.937Z" fill="#393B6B"/>
<path d="M188.237 167.24C198.517 165.735 196.905 156.737 196.071 155.013C195.261 154.92 194.623 154.85 194.218 154.803C193.969 154.772 193.79 155.021 193.875 155.255C195.145 158.881 193.782 162.967 186.22 163.762C177.622 164.667 172.42 161.478 166.081 156.066C165.808 155.832 163.908 156.331 161.268 157.259C168.308 165.314 177.965 168.745 188.245 167.24H188.237Z" fill="black"/>
<g style="mix-blend-mode:multiply" opacity="0.2">
<path d="M220.135 186.937C219.567 175.085 218.259 161.01 215.626 158.374C214.863 157.61 208.002 156.55 202.161 155.77C203.82 160.394 204.217 166.102 204.513 170.703C204.887 176.387 204.661 182.103 203.703 187.717C201.679 199.57 196.406 210.978 189.958 221.052C183.775 230.713 175.839 238.987 165.544 244.219C159.492 247.291 153.177 249.022 146.713 250.153C146.285 254.379 145.778 258.216 145.311 261.273C157.094 263.362 200.292 268.376 215.315 259.448C220.135 256.586 220.704 198.79 220.135 186.937Z" fill="#393B6B"/>
</g>
<path d="M221.483 182.119C221.771 181.354 221.973 180.543 221.888 179.686C221.381 180.38 221.062 181.105 220.758 181.83C220.54 182.399 220.346 182.961 220.174 183.561L219.847 179.92C219.668 178.235 219.512 176.551 219.31 174.867C219.341 176.567 219.419 178.259 219.473 179.951L219.715 185.019C219.925 188.396 219.917 191.772 219.925 195.156L219.987 205.309C220.019 208.693 220.034 212.077 220.112 215.469C220.354 212.085 220.486 208.701 220.587 205.317C220.688 201.932 220.696 198.54 220.704 195.156L220.603 190.072C220.556 188.38 220.494 186.672 220.315 184.988L220.221 183.951C220.821 183.468 221.21 182.797 221.491 182.119H221.483Z" fill="black"/>
<path d="M255.367 232.389C254.721 228.389 252.525 224.756 249.674 221.878C248.802 220.997 247.852 220.17 246.723 219.648C244.457 218.595 241.536 218.697 239.122 219.048C236.038 219.5 233.079 220.568 230.104 221.449C227.331 222.276 224.559 223.102 221.794 223.952C221.164 224.147 220.338 224.584 219.684 224.607C214.318 224.833 180.893 226.221 175.013 225.855C170.419 218.252 165.037 198.633 165.037 198.633C165.037 198.633 148.418 199.203 141.511 209.043C141.511 208.762 155.069 241.918 157.67 243.922C160.271 245.926 174.048 244.811 191.041 241.809C203.898 239.54 215.136 236.959 219.847 235.844C220.455 236.101 221.148 236.304 221.935 236.444C230.314 237.949 230.08 232.475 230.548 232.202L230.392 231.867C231.911 232.67 233.445 233.442 235.01 234.152C235.641 234.44 236.513 234.659 236.926 234.097C237.245 233.66 237.027 233.044 236.786 232.561C235.991 230.939 235.065 229.38 234.013 227.906C236.365 230.206 238.709 232.506 241.061 234.799C241.528 235.259 242.198 235.75 242.767 235.431C243.335 235.119 243.281 234.292 243.117 233.66C242.323 230.612 240.765 227.773 238.631 225.457C240.181 227.188 241.723 228.919 243.273 230.651C244.332 231.836 245.399 233.029 246.567 234.113C247.618 235.087 248.989 236.031 250.375 235.672C250.554 235.625 250.749 235.54 250.827 235.376C250.905 235.22 250.866 235.033 250.827 234.861C249.908 231.29 247.634 228.241 245.414 225.301C247.455 227.625 249.495 229.957 251.543 232.28C252.33 233.177 253.342 234.16 254.518 233.972C254.775 233.933 255.032 233.832 255.196 233.629C255.476 233.302 255.437 232.811 255.375 232.382L255.367 232.389Z" fill="#FFC9B0"/>
<g style="mix-blend-mode:multiply">
<path d="M165.255 224.116C167.685 221.824 169.43 219.344 170.855 216.685C167.685 208.295 165.037 198.641 165.037 198.641C165.037 198.641 148.418 199.21 141.511 209.051C141.511 208.864 147.204 222.728 151.915 233.044C156.821 231.766 161.938 227.235 165.248 224.116H165.255Z" fill="#FFC9B0"/>
</g>
<g style="mix-blend-mode:multiply" opacity="0.3">
<path d="M231.023 230.463C228.975 230.526 227.059 231.267 225.042 231.586C223.103 231.89 221.132 231.883 219.185 232.062C213.936 232.545 208.758 234.019 203.649 235.275C194.023 237.637 184.296 239.509 174.468 240.795C168.511 241.575 162.133 242.776 156.183 241.754C156.821 242.893 157.335 243.665 157.67 243.922C160.271 245.926 174.048 244.811 191.041 241.809C203.898 239.54 215.136 236.959 219.847 235.844C220.455 236.101 221.148 236.304 221.934 236.444C230.314 237.949 230.08 232.475 230.548 232.202L230.392 231.867C231.91 232.67 233.445 233.442 235.01 234.152C235.415 234.331 235.913 234.487 236.334 234.432C234.66 232.927 232.853 231.75 231.03 230.463H231.023Z" fill="#FFC9B0"/>
</g>
<path d="M173.378 214.954C172.334 212.451 164.453 190.025 161.86 181.72C160.497 177.338 158.885 172.886 155.871 169.353C153.737 166.835 147.484 160.963 140.942 167.045C140.599 167.365 140.265 167.708 139.937 168.051C139.579 168.449 139.244 168.854 138.925 169.275C134.151 175.513 133.365 184.785 133.894 192.754C133.995 194.321 134.198 195.858 134.478 197.386C136.238 207.195 140.015 219.609 144.338 228.873C152.468 229.224 167.724 222.9 173.386 214.962L173.378 214.954Z" fill="#393B6B"/>
<g style="mix-blend-mode:multiply" opacity="0.2">
<path d="M158.753 174.195C157.133 173.19 155.116 172.48 154.399 174.78C154.018 175.989 154.641 177.79 154.851 179.022C155.544 183.061 156.362 187.077 156.938 191.132C158.137 199.538 157.32 207.952 155.357 216.186C154.438 220.038 154.166 225.317 150.895 227.968C158.947 226.027 168.807 220.927 173.113 214.884C172.07 212.381 164.188 189.955 161.595 181.65C160.809 179.124 159.929 176.582 158.753 174.195Z" fill="#393B6B"/>
</g>
<path d="M170.691 206.58C169.726 203.812 168.807 201.028 167.825 198.267C166.829 195.507 165.902 192.731 164.882 189.986C163.893 187.226 162.888 184.473 161.868 181.721C162.608 184.559 163.464 187.366 164.352 190.166C165.217 192.973 166.19 195.733 167.117 198.517C168.051 201.293 169.079 204.045 170.06 206.806C170.551 208.186 171.096 209.551 171.618 210.923C172.14 212.272 172.646 213.613 173.238 214.939C172.654 215.812 171.992 216.631 171.291 217.418C172.093 216.693 172.833 215.898 173.495 215.04L173.534 214.986L173.51 214.908L170.699 206.58H170.691Z" fill="black"/>
<path d="M81.6387 179.553C80.5328 171.061 83.461 163.653 92.339 163.653C101.217 163.653 106.341 174.305 107.447 182.789C108.553 191.28 114.581 228.998 117.361 231.407C122.314 235.688 152.694 231.22 158.753 235.883C164.812 240.546 172.007 273.078 166.836 278.794C161.657 284.502 108.608 284.97 100.018 278.794C91.4278 272.618 82.7445 188.037 81.6387 179.553Z" fill="#FFD245"/>
<g style="mix-blend-mode:multiply" opacity="0.3">
<path d="M158.753 235.883C152.694 231.22 122.314 235.688 117.361 231.407C114.581 228.998 108.553 191.281 107.447 182.789C106.489 175.436 102.518 166.468 95.7033 164.199C97.2609 166.632 98.3901 169.65 98.8729 171.046C101.131 177.635 102.611 184.723 103.413 191.647C104.784 203.515 103 215.157 101.458 226.885C100.485 234.3 98.8807 245.287 90.9373 248.11C93.7253 263.791 96.8793 276.54 100.026 278.802C108.615 284.977 161.665 284.51 166.844 278.802C172.023 273.094 164.827 240.554 158.76 235.891L158.753 235.883Z" fill="#FFD245"/>
</g>
<path d="M437.319 277H38.0118V296.705H437.319V277Z" fill="#84A6F2"/>
<g style="mix-blend-mode:multiply" opacity="0.49">
<path d="M437.319 276.992H38.0118V288.4H437.319V276.992Z" fill="#73A3EB"/>
</g>
<path d="M454.079 248.04H20.7388V284.166H454.079V248.04Z" fill="#73A3EB"/>
<g style="mix-blend-mode:multiply" opacity="0.3">
<path d="M454.335 274.341H20.9957V284.088H454.335V274.341Z" fill="#73A3EB"/>
</g>
<g style="mix-blend-mode:multiply" opacity="0.3">
<path d="M270.358 254.418C310.13 254.418 342.371 253.199 342.371 251.696C342.371 250.193 310.13 248.975 270.358 248.975C230.587 248.975 198.345 250.193 198.345 251.696C198.345 253.199 230.587 254.418 270.358 254.418Z" fill="#73A3EB"/>
<path d="M257.244 299.278C256.816 299.278 256.465 298.927 256.465 298.499V280.509C256.465 273.094 253.015 269.632 245.601 269.632C240.415 269.632 236.817 268.633 234.924 266.676C233.974 265.694 233.491 264.477 233.53 263.167C233.585 261.491 234.566 257.6 242.447 257.6C254.837 257.6 260.312 257.108 260.312 255.463C260.312 253.818 257.166 253.553 255.297 253.553H251.668C251.24 253.553 250.889 253.202 250.889 252.773C250.889 252.344 251.24 251.993 251.668 251.993H255.297C259.417 251.993 261.87 253.171 261.87 255.128C261.87 259.198 254.97 259.159 242.447 259.159C237.79 259.159 235.173 260.602 235.088 263.222C235.057 264.111 235.376 264.906 236.038 265.592C237.128 266.723 239.675 268.072 245.593 268.072C253.833 268.072 258.015 272.259 258.015 280.509V298.499C258.015 298.927 257.664 299.278 257.236 299.278H257.244Z" fill="#73A3EB"/>
</g>
<path d="M353.189 183.069H269.79C268.155 183.069 266.69 184.083 266.114 185.619L243.709 245.513H333.556L355.611 186.563C356.241 184.871 354.995 183.062 353.189 183.062V183.069Z" fill="#7CF7E8"/>
<path d="M336.601 245.521H203.898V251.751H336.601V245.521Z" fill="#7CF7E8"/>
<g style="mix-blend-mode:multiply" opacity="0.32">
<path d="M219.699 250.901C216.327 250.23 209.801 248.585 206.102 245.513H203.898V251.743H224.543C222.908 251.501 221.288 251.213 219.699 250.901Z" fill="#57D9CD"/>
</g>
<path d="M336.593 245.521H246.746V251.751H336.593V245.521Z" fill="#57D9CD"/>
<path d="M356.234 183.069H272.835C271.199 183.069 269.735 184.083 269.159 185.619L246.754 245.513H336.601L358.656 186.563C359.286 184.871 358.04 183.062 356.234 183.062V183.069Z" fill="#57D9CD"/>
<g style="mix-blend-mode:overlay" opacity="0.22">
<path d="M356.233 183.069H285.973C320.137 183.935 338.4 184.972 345.424 186.009C352.449 187.046 357.176 188.598 355.953 193.791L358.655 186.57C359.286 184.878 358.04 183.069 356.233 183.069Z" fill="#57D9CD"/>
</g>
<g style="mix-blend-mode:multiply" opacity="0.32">
<path d="M337.045 240.546C318.658 245.544 295.1 244.304 280.405 230.814C272.609 223.656 268.816 212.732 268.964 202.291C269.05 196.403 270.133 189.128 272.874 183.069H272.843C271.207 183.069 269.743 184.083 269.167 185.619L246.762 245.513H336.609L338.633 240.094C338.104 240.25 337.574 240.406 337.052 240.546H337.045Z" fill="#57D9CD"/>
</g>
<path d="M253.872 248.632C253.872 249.583 253.101 250.347 252.158 250.347C251.216 250.347 250.445 249.575 250.445 248.632C250.445 247.688 251.216 246.917 252.158 246.917C253.101 246.917 253.872 247.688 253.872 248.632Z" fill="#393B6B"/>
<path d="M253.303 248.632C253.303 249.264 252.789 249.778 252.158 249.778C251.528 249.778 251.014 249.264 251.014 248.632C251.014 248 251.528 247.486 252.158 247.486C252.789 247.486 253.303 248 253.303 248.632Z" fill="#73A3EB"/>
<path d="M257.921 298.256C257.493 298.256 257.143 297.905 257.143 297.477V279.487C257.143 272.072 253.693 268.61 246.279 268.61C241.092 268.61 237.494 267.611 235.602 265.654C234.652 264.672 234.169 263.455 234.208 262.145C234.262 260.469 235.244 256.578 243.125 256.578C255.515 256.578 260.99 256.414 260.99 252.624C260.99 249.856 257.843 249.443 255.974 249.443H252.345C251.917 249.443 251.567 249.092 251.567 248.663C251.567 248.234 251.917 247.883 252.345 247.883H255.974C260.094 247.883 262.547 249.653 262.547 252.624C262.547 258.137 255.647 258.137 243.125 258.137C238.468 258.137 235.851 259.58 235.765 262.2C235.734 263.089 236.061 263.884 236.715 264.57C237.806 265.701 240.352 267.05 246.271 267.05C254.51 267.05 258.692 271.237 258.692 279.487V297.477C258.692 297.905 258.342 298.256 257.914 298.256H257.921Z" fill="#FFD245"/>
<g style="mix-blend-mode:multiply">
<path d="M256.932 276.625C257.065 277.506 257.143 278.458 257.143 279.487V297.476C257.143 297.905 257.493 298.256 257.922 298.256C258.35 298.256 258.7 297.905 258.7 297.476V279.487C258.7 278.029 258.56 276.711 258.303 275.51C257.914 275.939 257.446 276.321 256.932 276.625Z" fill="#FFD245"/>
</g>
<path d="M290.692 212.162C288.831 218.705 282.694 223.757 276.994 223.453C271.293 223.149 268.178 217.597 270.047 211.063C271.908 204.521 278.045 199.468 283.746 199.772C289.446 200.076 292.561 205.628 290.692 212.162Z" fill="white"/>
<path opacity="0.43" d="M288.808 212.061C287.281 217.41 282.266 221.535 277.609 221.285C272.944 221.036 270.405 216.498 271.932 211.156C273.458 205.807 278.473 201.682 283.13 201.932C287.795 202.181 290.334 206.719 288.808 212.061Z" fill="#FB4F4F"/>
<path d="M303.347 217.137L284.049 226.923C283.193 227.36 282.352 226.916 282.157 225.933L280.919 219.547C280.732 218.564 281.269 217.418 282.126 216.989L301.424 207.203C302.28 206.766 303.121 207.211 303.316 208.193L304.554 214.58C304.741 215.562 304.204 216.708 303.347 217.137Z" fill="#393B6B"/>
<g style="mix-blend-mode:screen">
<path d="M302.724 216.561L284.594 225.762C283.878 226.128 283.169 225.754 283.013 224.935L281.978 219.594C281.822 218.775 282.266 217.816 282.982 217.45L301.112 208.248C301.829 207.882 302.537 208.256 302.693 209.075L303.729 214.416C303.885 215.235 303.441 216.194 302.724 216.561Z" fill="#393B6B"/>
</g>
<path d="M301.836 211.726C301.626 211.336 300.987 211.422 300.886 211.851C300.715 212.537 300.832 213.246 300.684 213.94C300.629 214.182 300.567 214.751 300.38 214.907C300.084 215.133 299.586 214.876 299.266 214.806C297.981 214.51 297.164 214.946 296.307 215.89C295.972 216.256 295.777 216.373 295.295 216.178C295.038 216.077 294.82 215.944 294.547 215.874C293.94 215.71 293.278 215.726 292.67 215.898C291.673 216.178 290.786 216.888 290.217 217.769C290.053 217.652 289.898 217.535 289.742 217.434C288.698 216.74 287.351 216.264 286.16 216.903C283.963 218.089 283.34 222.12 285.599 223.539C286.167 223.898 286.674 223.017 286.121 222.643C284.991 221.871 285.225 219.952 285.84 218.939C286.689 217.558 288.013 217.87 289.158 218.697C289.345 218.829 289.508 218.985 289.664 219.141C289.524 219.882 289.61 220.677 290.17 221.192C290.996 221.949 292.141 221.138 291.993 220.108C291.915 219.555 291.588 219.056 291.183 218.611C291.214 218.557 291.229 218.51 291.268 218.455C291.938 217.41 293.278 216.662 294.485 217.2C295.404 217.605 296.034 217.925 296.876 217.13C297.28 216.747 297.576 216.178 298.129 216.007C298.69 215.835 299.297 216.163 299.866 216.241C300.871 216.381 301.4 215.882 301.735 214.97C302.086 213.995 302.342 212.685 301.836 211.734V211.726Z" fill="#73A3EB"/>
<path d="M285.381 210.72C283.94 211.008 282.429 210.252 281.534 209.09C280.646 207.921 280.303 206.416 280.272 204.942C280.334 208.365 277.811 211.453 275.07 213.129C276.324 212.669 277.36 212.966 278.302 213.402C279.244 213.839 279.953 214.705 280.389 215.648C280.833 216.592 281.043 217.629 281.246 218.658C281.168 217.083 281.425 215.477 282.11 214.057C282.795 212.638 283.94 211.406 285.365 210.728L285.381 210.72Z" fill="#FFD245"/>
<g style="mix-blend-mode:multiply" opacity="0.3">
<path d="M319.951 263.401C341.439 263.401 358.858 262.182 358.858 260.679C358.858 259.176 341.439 257.958 319.951 257.958C298.463 257.958 281.043 259.176 281.043 260.679C281.043 262.182 298.463 263.401 319.951 263.401Z" fill="#73A3EB"/>
</g>
<path d="M333.26 251.019V261.218H287.024C286.027 261.218 285.217 260.407 285.217 259.409V252.828C285.217 251.83 286.027 251.019 287.024 251.019H333.26Z" fill="#FFD245"/>
<g style="mix-blend-mode:multiply">
<path d="M323.65 251.011H292.11C291.596 253.217 291.308 258.886 292.312 261.21H323.627C323.113 257.818 323.198 254.582 323.658 251.011H323.65Z" fill="#FFD245"/>
</g>
<path d="M356 252.04V251.011H333.26V261.218H356V260.189H346.476V252.04H356Z" fill="#FFD245"/>
<g style="mix-blend-mode:multiply">
<path d="M356 252.04V251.011H333.26V261.218H356V260.189H346.476V252.04H356Z" fill="#FFD245"/>
</g>
<path d="M355.198 252.032V260.181H335.316C334.685 260.181 334.179 259.674 334.179 259.042V253.171C334.179 252.539 334.685 252.032 335.316 252.032H355.198Z" fill="#DFFAFF"/>
<path d="M331.204 241.045V251.244H284.968C283.971 251.244 283.161 250.433 283.161 249.435V242.854C283.161 241.856 283.971 241.045 284.968 241.045H331.204Z" fill="#FB4F4F"/>
<path d="M353.936 242.074V241.053H331.204V251.252H353.936V250.223H344.412V242.074H353.936Z" fill="#B92513"/>
<path d="M353.142 242.074V250.223H333.26C332.629 250.223 332.123 249.716 332.123 249.084V243.213C332.123 242.581 332.629 242.074 333.26 242.074H353.142Z" fill="#DFFAFF"/>
<path d="M287.935 251.353C287.382 251.353 286.931 250.901 286.931 250.348V241.809C286.931 241.255 287.382 240.803 287.935 240.803C288.488 240.803 288.94 241.255 288.94 241.809V250.348C288.94 250.901 288.488 251.353 287.935 251.353Z" fill="#B92513"/>
<path d="M326.921 251.353C326.368 251.353 325.916 250.901 325.916 250.348V241.809C325.916 241.255 326.368 240.803 326.921 240.803C327.474 240.803 327.925 241.255 327.925 241.809V250.348C327.925 250.901 327.474 251.353 326.921 251.353Z" fill="#B92513"/>
<g style="mix-blend-mode:multiply" opacity="0.3">
<path d="M399.969 262.792C414.004 262.792 425.381 261.574 425.381 260.071C425.381 258.568 414.004 257.35 399.969 257.35C385.935 257.35 374.558 258.568 374.558 260.071C374.558 261.574 385.935 262.792 399.969 262.792Z" fill="#73A3EB"/>
</g>
<path d="M393.336 182.021L396.128 184.816L406.525 174.406L403.733 171.611L393.336 182.021Z" fill="#393B6B"/>
<g style="mix-blend-mode:multiply" opacity="0.33">
<path d="M394.737 183.421L396.135 184.821L406.532 174.411L405.134 173.011L394.737 183.421Z" fill="#393B6B"/>
</g>
<path d="M396.539 170.371L393.747 173.167L433.357 212.827L436.149 210.032L396.539 170.371Z" fill="#393B6B"/>
<g style="mix-blend-mode:multiply" opacity="0.33">
<path d="M396.532 170.376L395.326 171.583L434.936 211.244L436.142 210.037L396.532 170.376Z" fill="#393B6B"/>
</g>
<path d="M436.68 213.976L433.888 211.18L394.278 250.841L397.07 253.636L436.68 213.976Z" fill="#393B6B"/>
<g style="mix-blend-mode:multiply" opacity="0.33">
<path d="M436.666 213.98L435.543 212.855L395.933 252.516L397.056 253.641L436.666 213.98Z" fill="#393B6B"/>
</g>
<path d="M438.643 211.554C438.643 213.737 436.875 215.507 434.695 215.507C432.514 215.507 430.746 213.737 430.746 211.554C430.746 209.371 432.514 207.601 434.695 207.601C436.875 207.601 438.643 209.371 438.643 211.554Z" fill="#393B6B"/>
<g style="mix-blend-mode:multiply" opacity="0.33">
<path d="M437.779 209.121C437.787 211.585 436.058 213.457 433.846 214.416C433.425 214.603 432.966 214.751 432.499 214.845C433.122 215.258 433.877 215.507 434.679 215.507C436.86 215.507 438.628 213.737 438.628 211.554C438.628 210.634 438.301 209.792 437.771 209.121H437.779Z" fill="#393B6B"/>
</g>
<path d="M436.922 211.554C436.922 212.794 435.925 213.792 434.687 213.792C433.449 213.792 432.452 212.786 432.452 211.554C432.452 210.322 433.449 209.316 434.687 209.316C435.925 209.316 436.922 210.315 436.922 211.554Z" fill="#73A3EB"/>
<path d="M404.486 177.517C404.486 179.701 402.718 181.471 400.538 181.471C398.357 181.471 396.589 179.701 396.589 177.517C396.589 175.334 398.357 173.564 400.538 173.564C402.718 173.564 404.486 175.334 404.486 177.517Z" fill="#393B6B"/>
<g style="mix-blend-mode:multiply" opacity="0.33">
<path d="M403.63 175.084C403.637 177.549 401.909 179.42 399.697 180.379C399.276 180.566 398.817 180.714 398.35 180.808C398.973 181.221 399.728 181.471 400.53 181.471C402.711 181.471 404.479 179.701 404.479 177.517C404.479 176.597 404.151 175.755 403.622 175.084H403.63Z" fill="#393B6B"/>
</g>
<path d="M402.773 177.517C402.773 178.757 401.776 179.755 400.538 179.755C399.3 179.755 398.303 178.757 398.303 177.517C398.303 176.277 399.3 175.279 400.538 175.279C401.776 175.279 402.773 176.285 402.773 177.517Z" fill="#73A3EB"/>
<path d="M383.265 249.209H412.43C416.074 249.209 419.034 252.173 419.034 255.822V260.181H376.653V255.822C376.653 252.173 379.612 249.209 383.257 249.209H383.265Z" fill="#393B6B"/>
<g style="mix-blend-mode:multiply" opacity="0.33">
<path d="M416.106 250.324C413.824 252.188 410.818 253.623 408.731 254.449C403.583 256.477 398.139 257.545 392.657 258.137C389.479 258.481 386.216 258.8 383.023 258.785C380.843 258.769 378.763 258.418 376.661 258.083V260.188H419.042V255.829C419.042 253.537 417.881 251.517 416.113 250.332L416.106 250.324Z" fill="#393B6B"/>
</g>
<g style="mix-blend-mode:overlay" opacity="0.5">
<path d="M391.901 261.638L394.954 208.747L368.647 190.032L275.568 260.484C274.805 261.061 274.836 262.324 275.716 262.714C294.555 271.019 379.067 271.292 391.901 261.638Z" fill="white"/>
</g>
<path d="M365.922 190.196L395.655 210.977C395.655 210.977 407.352 187.389 393.957 179.903C380.562 172.417 365.922 190.196 365.922 190.196Z" fill="#393B6B"/>
<g style="mix-blend-mode:multiply" opacity="0.33">
<path d="M393.957 179.903C393.358 179.568 392.75 179.295 392.143 179.061C395.118 184.792 393.841 192.988 391.855 198.641C391.037 200.957 389.791 203.468 388.187 205.76L395.655 210.977C395.655 210.977 407.352 187.389 393.957 179.903Z" fill="#393B6B"/>
</g>
<g style="mix-blend-mode:multiply" opacity="0.3">
<path d="M87.9389 261.842C107.01 261.842 122.47 260.623 122.47 259.12C122.47 257.617 107.01 256.399 87.9389 256.399C68.8681 256.399 53.4082 257.617 53.4082 259.12C53.4082 260.623 68.8681 261.842 87.9389 261.842Z" fill="#73A3EB"/>
</g>
<path d="M117.836 258.535H73.5706L65.7828 224.545H110.048L117.836 258.535Z" fill="#D0E7FF"/>
<g style="mix-blend-mode:multiply" opacity="0.15">
<path d="M109.908 254.2C107.735 246.683 108.498 237.466 111.279 229.91L110.048 224.553H65.7828L73.5706 258.543H111.481C110.843 257.085 110.313 255.619 109.9 254.2H109.908Z" fill="#73A3EB"/>
</g>
<path d="M110.04 224.545H65.775L57.9873 259.432H102.253L110.04 224.545Z" fill="white"/>
<g style="mix-blend-mode:multiply" opacity="0.15">
<path d="M102.93 249.584C95.9135 251.744 88.3672 252.859 81.3582 250.013C75.1125 247.478 70.2374 241.895 68.0958 235.54C67.1145 232.624 66.289 228.203 66.951 224.545H65.775L57.9873 259.432H102.253L104.566 249.069C104.013 249.248 103.468 249.42 102.93 249.584Z" fill="#73A3EB"/>
</g>
<path d="M71.647 224.545H70.5489C70.5022 224.436 70.4788 224.319 70.4399 224.195C70.4009 224.062 70.3464 223.961 70.2452 223.805C70.0972 223.571 69.8714 223.368 69.5988 223.228C69.3496 223.103 69.0381 223.048 68.7188 223.079C68.454 223.095 68.1347 223.204 67.8855 223.376C67.6051 223.579 67.3949 223.883 67.2469 224.195C67.1924 224.312 67.1534 224.429 67.1301 224.545C67.0911 224.717 67.0834 224.881 67.1145 225.045C67.169 225.349 67.3014 225.614 67.4961 225.863C67.5818 225.98 67.6986 226.066 67.7998 226.167C67.9089 226.277 68.0724 226.393 68.0958 226.549C68.1113 226.635 68.0958 226.752 68.0257 226.815C67.683 227.088 67.1924 226.783 66.9042 226.549C66.5927 226.292 66.3747 225.949 66.2267 225.575C66.0943 225.239 66.0554 224.889 66.0943 224.545C66.2111 223.352 67.2235 222.23 68.3995 222.003C69.2172 221.847 70.0349 222.042 70.6891 222.565C70.9694 222.791 71.2186 223.08 71.39 223.399C71.5847 223.742 71.7638 224.163 71.647 224.545Z" fill="#393B6B"/>
<path d="M78.5236 224.545H77.4255C77.3788 224.436 77.3554 224.319 77.3165 224.195C77.2775 224.062 77.223 223.961 77.1218 223.805C76.9738 223.571 76.748 223.368 76.4754 223.228C76.2262 223.103 75.9147 223.048 75.5954 223.079C75.3306 223.095 75.0113 223.204 74.7621 223.376C74.4817 223.579 74.2715 223.883 74.1235 224.195C74.069 224.312 74.03 224.429 74.0067 224.545C73.9677 224.717 73.96 224.881 73.9911 225.045C74.0456 225.349 74.178 225.614 74.3727 225.863C74.4584 225.98 74.5752 226.066 74.6764 226.167C74.7854 226.277 74.949 226.393 74.9724 226.549C74.9879 226.635 74.9724 226.752 74.9023 226.815C74.5596 227.088 74.069 226.783 73.7808 226.549C73.4693 226.292 73.2513 225.949 73.1033 225.575C72.9709 225.239 72.932 224.889 72.9709 224.545C73.0877 223.352 74.1001 222.23 75.2761 222.003C76.0938 221.847 76.9115 222.042 77.5657 222.565C77.846 222.791 78.0952 223.08 78.2666 223.399C78.4613 223.742 78.6404 224.163 78.5236 224.545Z" fill="#393B6B"/>
<path d="M85.4001 224.545H84.3021C84.2553 224.436 84.232 224.319 84.193 224.195C84.1541 224.062 84.0996 223.961 83.9984 223.805C83.8504 223.571 83.6245 223.368 83.352 223.228C83.1028 223.103 82.7913 223.048 82.472 223.079C82.2072 223.095 81.8879 223.204 81.6387 223.376C81.3583 223.579 81.148 223.883 81.0001 224.195C80.9456 224.312 80.9066 224.429 80.8833 224.545C80.8443 224.717 80.8365 224.881 80.8677 225.045C80.9222 225.349 81.0546 225.614 81.2493 225.863C81.335 225.98 81.4518 226.066 81.553 226.167C81.662 226.277 81.8256 226.393 81.8489 226.549C81.8645 226.635 81.8489 226.752 81.7789 226.815C81.4362 227.088 80.9456 226.783 80.6574 226.549C80.3459 226.292 80.1279 225.949 79.9799 225.575C79.8475 225.239 79.8086 224.889 79.8475 224.545C79.9643 223.352 80.9767 222.23 82.1527 222.003C82.9704 221.847 83.7881 222.042 84.4423 222.565C84.7226 222.791 84.9718 223.08 85.1431 223.399C85.3378 223.742 85.517 224.163 85.4001 224.545Z" fill="#393B6B"/>
<path d="M92.2688 224.545H91.1707C91.124 224.436 91.1006 224.319 91.0617 224.195C91.0228 224.062 90.9682 223.961 90.867 223.805C90.719 223.571 90.4932 223.368 90.2206 223.228C89.9714 223.103 89.6599 223.048 89.3406 223.079C89.0758 223.095 88.7565 223.204 88.5073 223.376C88.227 223.579 88.0167 223.883 87.8687 224.195C87.8142 224.312 87.7753 224.429 87.7519 224.545C87.713 224.717 87.7052 224.881 87.7363 225.045C87.7909 225.349 87.9232 225.614 88.1179 225.863C88.2036 225.98 88.3204 226.066 88.4217 226.167C88.5307 226.277 88.6942 226.393 88.7176 226.549C88.7332 226.635 88.7176 226.752 88.6475 226.815C88.3048 227.088 87.8142 226.783 87.5261 226.549C87.2146 226.292 86.9965 225.949 86.8485 225.575C86.7161 225.239 86.6772 224.889 86.7161 224.545C86.833 223.352 87.8454 222.23 89.0213 222.003C89.839 221.847 90.6567 222.042 91.3109 222.565C91.5913 222.791 91.8405 223.08 92.0118 223.399C92.2065 223.742 92.3856 224.163 92.2688 224.545Z" fill="#393B6B"/>
<path d="M99.1455 224.545H98.0474C98.0007 224.436 97.9773 224.319 97.9384 224.195C97.8995 224.062 97.845 223.961 97.7437 223.805C97.5957 223.571 97.3699 223.368 97.0973 223.228C96.8481 223.103 96.5366 223.048 96.2173 223.079C95.9525 223.095 95.6332 223.204 95.384 223.376C95.1037 223.579 94.8934 223.883 94.7454 224.195C94.6909 224.312 94.652 224.429 94.6286 224.545C94.5897 224.717 94.5819 224.881 94.613 225.045C94.6676 225.349 94.8 225.614 94.9947 225.863C95.0803 225.98 95.1971 226.066 95.2984 226.167C95.4074 226.277 95.5709 226.393 95.5943 226.549C95.6099 226.635 95.5943 226.752 95.5242 226.815C95.1816 227.088 94.6909 226.783 94.4028 226.549C94.0913 226.292 93.8732 225.949 93.7252 225.575C93.5929 225.239 93.5539 224.889 93.5929 224.545C93.7097 223.352 94.7221 222.23 95.898 222.003C96.7157 221.847 97.5334 222.042 98.1876 222.565C98.468 222.791 98.7172 223.08 98.8885 223.399C99.0832 223.742 99.2623 224.163 99.1455 224.545Z" fill="#393B6B"/>
<path d="M106.022 224.545H104.924C104.877 224.436 104.854 224.319 104.815 224.195C104.776 224.062 104.721 223.961 104.62 223.805C104.472 223.571 104.246 223.368 103.974 223.228C103.725 223.103 103.413 223.048 103.094 223.079C102.829 223.095 102.51 223.204 102.261 223.376C101.98 223.579 101.77 223.883 101.622 224.195C101.567 224.312 101.528 224.429 101.505 224.545C101.466 224.717 101.458 224.881 101.49 225.045C101.544 225.349 101.676 225.614 101.871 225.863C101.957 225.98 102.074 226.066 102.175 226.167C102.284 226.277 102.447 226.393 102.471 226.549C102.486 226.635 102.471 226.752 102.401 226.815C102.058 227.088 101.567 226.783 101.279 226.549C100.968 226.292 100.75 225.949 100.602 225.575C100.469 225.239 100.43 224.889 100.469 224.545C100.586 223.352 101.599 222.23 102.774 222.003C103.592 221.847 104.41 222.042 105.064 222.565C105.344 222.791 105.594 223.08 105.765 223.399C105.96 223.742 106.139 224.163 106.022 224.545Z" fill="#393B6B"/>
<g style="mix-blend-mode:multiply" opacity="0.3">
<path d="M127.703 265.935C137.152 265.935 144.813 264.717 144.813 263.214C144.813 261.711 137.152 260.492 127.703 260.492C118.254 260.492 110.593 261.711 110.593 263.214C110.593 264.717 118.254 265.935 127.703 265.935Z" fill="#73A3EB"/>
</g>
<path d="M123.42 218.011H131.986C135.74 218.011 138.785 221.06 138.785 224.818V261.249C138.785 262.504 137.773 263.518 136.519 263.518H118.879C117.626 263.518 116.613 262.504 116.613 261.249V224.818C116.613 221.06 119.658 218.011 123.412 218.011H123.42Z" fill="#57D9CD"/>
<g style="mix-blend-mode:multiply" opacity="0.32">
<path d="M138.302 222.307C138.255 224.007 138.154 225.629 138.045 227.079C137.469 234.822 136.005 243.337 130.904 249.49C127.384 253.732 121.06 256.937 116.964 251.673C116.847 251.517 116.738 251.353 116.629 251.197V261.241C116.629 262.496 117.641 263.51 118.895 263.51H136.534C137.788 263.51 138.801 262.496 138.801 261.241V224.81C138.801 223.921 138.629 223.079 138.318 222.299L138.302 222.307Z" fill="#57D9CD"/>
</g>
<path d="M133.785 211.718H132.999V209.348C132.999 208.755 132.516 208.271 131.924 208.271H123.482C122.89 208.271 122.407 208.755 122.407 209.348V211.718H121.621C121.029 211.718 120.546 212.202 120.546 212.794V217.34C120.546 217.933 121.029 218.416 121.621 218.416H133.793C134.385 218.416 134.868 217.933 134.868 217.34V212.794C134.868 212.202 134.385 211.718 133.793 211.718H133.785Z" fill="#393B6B"/>
<g style="mix-blend-mode:multiply" opacity="0.33">
<path d="M133.785 211.718H132.999V209.348C132.999 208.755 132.516 208.271 131.924 208.271H130.055C130.086 210.829 129.37 213.473 128.194 215.079C127.368 216.21 126.223 217.488 124.899 218.416H133.785C134.377 218.416 134.86 217.933 134.86 217.34V212.794C134.86 212.202 134.377 211.718 133.785 211.718Z" fill="#393B6B"/>
</g>
<g style="mix-blend-mode:overlay">
<path d="M119.666 222.393C119.02 223.43 119.121 225.317 119.612 225.372C119.915 225.403 119.962 224.467 120.219 223.594C120.383 223.04 120.476 222.604 120.679 222.089C120.881 221.574 120.18 221.574 119.666 222.393Z" fill="#57D9CD"/>
</g>
<g style="mix-blend-mode:overlay">
<path d="M118.841 229.816C118.911 229.224 118.996 228.631 119.09 228.054C119.144 227.726 119.214 227.399 119.386 227.118C119.44 227.025 119.518 226.931 119.627 226.923C120.048 226.876 119.939 228.771 119.939 229.029C119.954 230.588 119.954 232.148 119.962 233.707C119.962 235.267 119.962 236.803 119.635 238.331C119.588 238.557 119.23 238.557 119.175 238.331C118.529 235.618 118.513 232.647 118.841 229.824V229.816Z" fill="#57D9CD"/>
</g>
<path d="M138.614 256.991C138.987 256.991 139.291 257.295 139.291 257.67C139.291 258.044 138.987 258.348 138.614 258.348H116.971C116.598 258.348 116.294 258.044 116.294 257.67C116.294 257.295 116.598 256.991 116.971 256.991" fill="#393B6B"/>
<path d="M269.011 131.207H308.316C311.425 131.207 313.946 128.683 313.946 125.569V104.703C313.946 101.589 311.425 99.065 308.316 99.065H269.011C265.902 99.065 263.381 101.589 263.381 104.703V125.569C263.381 128.683 265.902 131.207 269.011 131.207Z" fill="#7179CE"/>
<path d="M309.126 140.806V129.414H297.748L309.126 140.806Z" fill="#7179CE"/>
<path d="M296.331 111.697C296.331 106.956 292.032 103.213 287.125 104.172C284.088 104.765 281.658 107.252 281.121 110.301C280.638 113.046 281.62 115.588 283.403 117.272C283.971 117.811 284.291 118.544 284.244 119.323C284.189 120.103 284.376 120.953 284.984 121.881C285.77 123.09 287.071 123.947 288.512 123.994C291.027 124.08 293.091 122.06 293.091 119.565V119.549C293.091 118.676 293.356 117.818 293.986 117.21C295.427 115.814 296.331 113.857 296.331 111.689V111.697Z" fill="#FFD245"/>
<path d="M290.389 123.651C290.264 123.651 290.155 123.565 290.124 123.432C289.547 120.609 289.563 117.701 290.155 114.886C289.399 115.042 288.621 114.909 288.083 114.496C288.052 114.473 288.021 114.449 287.99 114.418C287.741 114.605 287.453 114.746 287.141 114.839C287.149 114.878 287.157 114.917 287.164 114.956C287.71 117.67 287.857 120.438 287.616 123.191C287.601 123.339 287.484 123.448 287.328 123.432C287.18 123.417 287.071 123.292 287.087 123.144C287.328 120.446 287.18 117.732 286.643 115.065C286.635 115.026 286.627 114.987 286.619 114.948C286.191 114.995 285.747 114.948 285.35 114.792C284.275 114.379 283.637 113.248 283.901 112.227C284.003 111.845 284.306 111.385 284.828 111.361C285.116 111.338 285.436 111.486 285.739 111.79C286.448 112.492 286.798 113.397 287.024 114.325C287.266 114.247 287.484 114.137 287.671 113.997C287.266 113.264 287.102 112.11 287.382 111.385C287.562 110.925 287.904 110.683 288.348 110.73C288.823 110.777 289.041 111.05 289.135 111.276C289.485 112.094 288.823 113.49 288.403 114.028C288.403 114.036 288.387 114.044 288.379 114.052C288.387 114.052 288.395 114.067 288.403 114.075C288.917 114.465 289.664 114.481 290.279 114.301C290.459 113.553 290.677 112.82 290.941 112.087C291.043 111.79 291.159 111.51 291.401 111.276C291.65 111.034 292.086 110.855 292.499 111.018C292.842 111.151 293.067 111.494 293.06 111.884C293.06 112.204 292.912 112.477 292.779 112.71C292.258 113.638 291.65 114.262 290.926 114.621C290.864 114.652 290.801 114.675 290.739 114.707C290.1 117.537 290.069 120.477 290.645 123.323C290.677 123.471 290.583 123.612 290.435 123.643C290.42 123.643 290.396 123.643 290.381 123.643L290.389 123.651ZM284.875 111.907H284.859C284.61 111.923 284.47 112.211 284.423 112.375C284.228 113.124 284.735 113.989 285.545 114.301C285.84 114.418 286.175 114.457 286.502 114.426C286.292 113.592 285.981 112.781 285.365 112.172C285.186 111.993 285.023 111.9 284.883 111.9L284.875 111.907ZM292.187 111.502C292.039 111.502 291.884 111.58 291.783 111.673C291.627 111.822 291.541 112.032 291.455 112.274C291.245 112.851 291.066 113.436 290.918 114.02C291.448 113.693 291.907 113.178 292.32 112.445C292.421 112.266 292.53 112.063 292.53 111.868C292.53 111.736 292.468 111.572 292.312 111.517C292.273 111.502 292.226 111.494 292.18 111.494L292.187 111.502ZM288.255 111.268C288.138 111.268 287.998 111.322 287.889 111.58C287.686 112.087 287.795 112.991 288.068 113.584C288.465 113.015 288.854 111.962 288.652 111.486C288.613 111.393 288.535 111.283 288.309 111.26C288.294 111.26 288.278 111.26 288.262 111.26L288.255 111.268Z" fill="white"/>
<path d="M292.047 122.543H285.342C285.088 122.543 284.883 122.749 284.883 123.004V123.401C284.883 123.655 285.088 123.861 285.342 123.861H292.047C292.301 123.861 292.507 123.655 292.507 123.401V123.004C292.507 122.749 292.301 122.543 292.047 122.543Z" fill="#C6E3FF"/>
<path d="M292.047 123.768H285.342C285.088 123.768 284.883 123.974 284.883 124.228V124.626C284.883 124.88 285.088 125.086 285.342 125.086H292.047C292.301 125.086 292.507 124.88 292.507 124.626V124.228C292.507 123.974 292.301 123.768 292.047 123.768Z" fill="#C6E3FF"/>
<path d="M292.047 124.992H285.342C285.088 124.992 284.883 125.198 284.883 125.452V125.85C284.883 126.104 285.088 126.31 285.342 126.31H292.047C292.301 126.31 292.507 126.104 292.507 125.85V125.452C292.507 125.198 292.301 124.992 292.047 124.992Z" fill="#C6E3FF"/>
<path d="M239.496 159.403H278.8C281.91 159.403 284.431 156.879 284.431 153.766V132.899C284.431 129.785 281.91 127.261 278.8 127.261H239.496C236.386 127.261 233.865 129.785 233.865 132.899V153.766C233.865 156.879 236.386 159.403 239.496 159.403Z" fill="#84A6F2"/>
<path d="M279.618 169.002V157.61H268.24L279.618 169.002Z" fill="#84A6F2"/>
<path d="M264.159 134.451H242.175V137.796H264.159V134.451Z" fill="#1B2D5E"/>
<path d="M276.129 141.243H242.175V142.833H276.129V141.243Z" fill="white"/>
<path d="M273.731 145.937H242.175V147.527H273.731V145.937Z" fill="white"/>
<path d="M275.374 150.639H242.175V152.229H275.374V150.639Z" fill="white"/>
</g>
<defs>
<clipPath id="clip0_110_1988">
<rect width="464" height="298.557" fill="white" transform="translate(0 0.720703)"/>
</clipPath>
</defs>
</svg>
