<svg width="74" height="84" viewBox="0 0 74 84" fill="none" xmlns="http://www.w3.org/2000/svg">
<path d="M15.8571 21C15.8571 26.5695 18.0847 31.911 22.0497 35.8492C26.0148 39.7875 31.3926 42 37 42C42.6074 42 47.9852 39.7875 51.9503 35.8492C55.9153 31.911 58.1429 26.5695 58.1429 21C58.1429 15.4305 55.9153 10.089 51.9503 6.15076C47.9852 2.21249 42.6074 0 37 0C31.3926 0 26.0148 2.21249 22.0497 6.15076C18.0847 10.089 15.8571 15.4305 15.8571 21ZM31.4665 53.8453L34.5388 58.9313L29.0384 79.2586L23.092 55.1578C22.7616 53.8289 21.4732 52.9594 20.1353 53.3039C8.57277 56.175 0 66.5766 0 78.9633C0 81.7523 2.27946 84 5.07098 84H68.929C71.7371 84 74 81.7359 74 78.9633C74 66.5766 65.4272 56.175 53.8647 53.3039C52.5268 52.9758 51.2384 53.8453 50.908 55.1578L44.9616 79.2586L39.4612 58.9313L42.5335 53.8453C43.5906 52.0898 42.3187 49.875 40.2705 49.875H33.746C31.6978 49.875 30.4259 52.1063 31.483 53.8453H31.4665Z" fill="white"/>
</svg>
