<svg width="43" height="42" viewBox="0 0 43 42" fill="none" xmlns="http://www.w3.org/2000/svg">
<path d="M33.7499 5.25L9.24988 5.25C7.31688 5.25 5.74988 6.817 5.74988 8.75L5.74988 33.25C5.74988 35.183 7.31688 36.75 9.24988 36.75H33.7499C35.6829 36.75 37.2499 35.183 37.2499 33.25V8.75C37.2499 6.817 35.6829 5.25 33.7499 5.25Z" stroke="#7179CE" stroke-width="1.5" stroke-linecap="round" stroke-linejoin="round"/>
<path d="M37.2499 26.25L28.4999 17.5L9.24988 36.75" stroke="#7179CE" stroke-width="1.5" stroke-linecap="round" stroke-linejoin="round"/>
<path d="M15.3749 17.5C16.8246 17.5 17.9999 16.3247 17.9999 14.875C17.9999 13.4253 16.8246 12.25 15.3749 12.25C13.9251 12.25 12.7499 13.4253 12.7499 14.875C12.7499 16.3247 13.9251 17.5 15.3749 17.5Z" stroke="#7179CE" stroke-width="1.5" stroke-linecap="round" stroke-linejoin="round"/>
</svg>
