<svg width="215" height="53" viewBox="0 0 215 53" fill="none" xmlns="http://www.w3.org/2000/svg">
<rect x="0.435223" y="1.25749" width="214.13" height="50.4858" rx="6.52834" fill="white"/>
<rect x="0.435223" y="1.25749" width="214.13" height="50.4858" rx="6.52834" stroke="#CEDFFF" stroke-width="0.870445"/>
<path d="M14.8188 12.1064C14.9491 11.7055 15.5164 11.7055 15.6466 12.1064L16.6984 15.3435C16.7567 15.5228 16.9238 15.6442 17.1124 15.6442L20.516 15.6442C20.9376 15.6442 21.1129 16.1837 20.7718 16.4315L18.0182 18.4322C17.8657 18.543 17.8018 18.7394 17.8601 18.9188L18.9119 22.1558C19.0422 22.5568 18.5832 22.8902 18.2421 22.6424L15.4885 20.6418C15.336 20.531 15.1295 20.531 14.9769 20.6418L12.2233 22.6424C11.8822 22.8902 11.4233 22.5568 11.5536 22.1558L12.6054 18.9188C12.6636 18.7394 12.5998 18.543 12.4472 18.4322L9.69365 16.4315C9.35256 16.1837 9.52785 15.6442 9.94946 15.6442L13.3531 15.6442C13.5417 15.6442 13.7088 15.5228 13.767 15.3435L14.8188 12.1064Z" fill="#FED26C"/>
<path d="M32.2277 12.1064C32.358 11.7055 32.9253 11.7055 33.0556 12.1064L34.1074 15.3435C34.1656 15.5228 34.3327 15.6442 34.5213 15.6442L37.9249 15.6442C38.3465 15.6442 38.5218 16.1837 38.1807 16.4315L35.4271 18.4322C35.2746 18.543 35.2108 18.7394 35.269 18.9188L36.3208 22.1558C36.4511 22.5568 35.9922 22.8902 35.6511 22.6424L32.8975 20.6418C32.7449 20.531 32.5384 20.531 32.3858 20.6418L29.6322 22.6424C29.2912 22.8902 28.8322 22.5568 28.9625 22.1558L30.0143 18.9188C30.0726 18.7394 30.0087 18.543 29.8562 18.4322L27.1026 16.4315C26.7615 16.1837 26.9368 15.6442 27.3584 15.6442L30.762 15.6442C30.9506 15.6442 31.1177 15.5228 31.176 15.3435L32.2277 12.1064Z" fill="#FED26C"/>
<path d="M49.6367 12.1064C49.767 11.7055 50.3342 11.7055 50.4645 12.1064L51.5163 15.3435C51.5746 15.5228 51.7417 15.6442 51.9302 15.6442L55.3339 15.6442C55.7555 15.6442 55.9308 16.1837 55.5897 16.4315L52.8361 18.4322C52.6835 18.543 52.6197 18.7394 52.678 18.9188L53.7298 22.1558C53.86 22.5568 53.4011 22.8902 53.06 22.6424L50.3064 20.6418C50.1539 20.531 49.9473 20.531 49.7948 20.6418L47.0412 22.6424C46.7001 22.8902 46.2412 22.5568 46.3714 22.1558L47.4232 18.9188C47.4815 18.7394 47.4177 18.543 47.2651 18.4322L44.5115 16.4315C44.1704 16.1837 44.3457 15.6442 44.7673 15.6442L48.171 15.6442C48.3595 15.6442 48.5266 15.5228 48.5849 15.3435L49.6367 12.1064Z" fill="#FED26C"/>
<path d="M67.0455 12.1064C67.1758 11.7055 67.743 11.7055 67.8733 12.1064L68.9251 15.3435C68.9834 15.5228 69.1505 15.6442 69.339 15.6442L72.7427 15.6442C73.1643 15.6442 73.3396 16.1837 72.9985 16.4315L70.2449 18.4322C70.0924 18.543 70.0285 18.7394 70.0868 18.9188L71.1386 22.1558C71.2689 22.5568 70.8099 22.8902 70.4688 22.6424L67.7152 20.6418C67.5627 20.531 67.3561 20.531 67.2036 20.6418L64.45 22.6424C64.1089 22.8902 63.65 22.5568 63.7803 22.1558L64.832 18.9188C64.8903 18.7394 64.8265 18.543 64.6739 18.4322L61.9203 16.4315C61.5792 16.1837 61.7545 15.6442 62.1761 15.6442L65.5798 15.6442C65.7683 15.6442 65.9354 15.5228 65.9937 15.3435L67.0455 12.1064Z" fill="#FED26C"/>
<path d="M84.4544 12.1064C84.5847 11.7055 85.152 11.7055 85.2823 12.1064L86.3341 15.3435C86.3923 15.5228 86.5594 15.6442 86.748 15.6442L90.1516 15.6442C90.5732 15.6442 90.7485 16.1837 90.4074 16.4315L87.6538 18.4322C87.5013 18.543 87.4375 18.7394 87.4957 18.9188L88.5475 22.1558C88.6778 22.5568 88.2189 22.8902 87.8778 22.6424L85.1242 20.6418C84.9716 20.531 84.7651 20.531 84.6125 20.6418L81.8589 22.6424C81.5178 22.8902 81.0589 22.5568 81.1892 22.1558L82.241 18.9188C82.2992 18.7394 82.2354 18.543 82.0829 18.4322L79.3293 16.4315C78.9882 16.1837 79.1635 15.6442 79.5851 15.6442L82.9887 15.6442C83.1773 15.6442 83.3444 15.5228 83.4026 15.3435L84.4544 12.1064Z" fill="#FED26C"/>
<path d="M8.67255 38.1113V37.2906L11.0901 33.471H11.7744V34.6394H11.3571L9.7297 37.2183V37.2628H13.1042V38.1113H8.67255ZM11.3905 39.1685V37.8609L11.4017 37.4937V33.471H12.3753V39.1685H11.3905ZM16.099 39.277C15.6409 39.277 15.2477 39.161 14.9194 38.9292C14.593 38.6955 14.3417 38.3589 14.1655 37.9194C13.9912 37.478 13.904 36.9466 13.904 36.3253C13.9059 35.704 13.994 35.1754 14.1683 34.7396C14.3445 34.3019 14.5958 33.968 14.9222 33.7381C15.2505 33.5081 15.6428 33.3931 16.099 33.3931C16.5552 33.3931 16.9475 33.5081 17.2758 33.7381C17.604 33.968 17.8553 34.3019 18.0297 34.7396C18.2059 35.1773 18.294 35.7058 18.294 36.3253C18.294 36.9485 18.2059 37.4807 18.0297 37.9221C17.8553 38.3617 17.604 38.6974 17.2758 38.9292C16.9494 39.161 16.5571 39.277 16.099 39.277ZM16.099 38.4062C16.4551 38.4062 16.7361 38.2309 16.9419 37.8804C17.1497 37.528 17.2535 37.0097 17.2535 36.3253C17.2535 35.8728 17.2062 35.4926 17.1116 35.1847C17.017 34.8768 16.8835 34.645 16.711 34.4892C16.5386 34.3316 16.3345 34.2527 16.099 34.2527C15.7448 34.2527 15.4647 34.4289 15.2588 34.7813C15.053 35.1318 14.9491 35.6465 14.9473 36.3253C14.9454 36.7797 14.9909 37.1617 15.0836 37.4715C15.1782 37.7812 15.3117 38.0149 15.4842 38.1725C15.6567 38.3283 15.8616 38.4062 16.099 38.4062ZM21.0544 39.8806V32.7588H21.5106V39.8806H21.0544ZM22.3702 35.0372C22.3443 34.7943 22.2349 34.6051 22.042 34.4697C21.8509 34.3343 21.6024 34.2666 21.2964 34.2666C21.0813 34.2666 20.8967 34.2991 20.7428 34.364C20.5889 34.4289 20.4711 34.517 20.3895 34.6283C20.3079 34.7396 20.2661 34.8666 20.2643 35.0094C20.2643 35.1281 20.2912 35.2311 20.345 35.3182C20.4006 35.4054 20.4757 35.4796 20.5703 35.5408C20.6649 35.6001 20.7697 35.6502 20.8847 35.691C20.9997 35.7318 21.1156 35.7661 21.2324 35.7939L21.7666 35.9275C21.9817 35.9775 22.1885 36.0452 22.3869 36.1306C22.5872 36.2159 22.7662 36.3234 22.9239 36.4533C23.0834 36.5831 23.2095 36.7398 23.3022 36.9234C23.3949 37.107 23.4413 37.3222 23.4413 37.5688C23.4413 37.9027 23.356 38.1966 23.1854 38.4507C23.0147 38.7029 22.7681 38.9005 22.4454 39.0433C22.1245 39.1842 21.736 39.2547 21.2797 39.2547C20.8365 39.2547 20.4516 39.1861 20.1252 39.0488C19.8006 38.9116 19.5465 38.7113 19.3629 38.4479C19.1812 38.1846 19.0829 37.8637 19.0681 37.4854H20.0835C20.0983 37.6838 20.1595 37.8489 20.2671 37.9806C20.3746 38.1122 20.5147 38.2105 20.6872 38.2754C20.8615 38.3404 21.0562 38.3728 21.2714 38.3728C21.4958 38.3728 21.6924 38.3394 21.8611 38.2727C22.0318 38.204 22.1653 38.1095 22.2617 37.9889C22.3582 37.8665 22.4073 37.7237 22.4092 37.5605C22.4073 37.4121 22.3637 37.2897 22.2784 37.1933C22.1931 37.095 22.0735 37.0134 21.9196 36.9485C21.7675 36.8817 21.5894 36.8223 21.3854 36.7704L20.7372 36.6035C20.268 36.4829 19.8971 36.3003 19.6244 36.0554C19.3537 35.8088 19.2183 35.4814 19.2183 35.0734C19.2183 34.7377 19.3092 34.4438 19.4909 34.1915C19.6745 33.9393 19.924 33.7436 20.2393 33.6045C20.5545 33.4636 20.9116 33.3931 21.3103 33.3931C21.7146 33.3931 22.0689 33.4636 22.373 33.6045C22.679 33.7436 22.9192 33.9374 23.0936 34.186C23.2679 34.4326 23.3578 34.7164 23.3634 35.0372H22.3702ZM26.6426 33.2039L24.8065 40.0253H23.9247L25.7608 33.2039H26.6426ZM28.2923 36.6647V39.1685H27.2853V33.471H28.2701V35.6215H28.3202C28.4203 35.3804 28.5752 35.1902 28.7848 35.0512C28.9962 34.9102 29.2651 34.8397 29.5915 34.8397C29.8883 34.8397 30.147 34.9019 30.3677 35.0261C30.5884 35.1504 30.759 35.3321 30.8796 35.5714C31.002 35.8106 31.0632 36.1027 31.0632 36.4477V39.1685H30.0561V36.6035C30.0561 36.316 29.9819 36.0925 29.8336 35.933C29.687 35.7717 29.4812 35.691 29.216 35.691C29.0379 35.691 28.8784 35.73 28.7375 35.8078C28.5984 35.8839 28.4889 35.9942 28.4092 36.1389C28.3313 36.2836 28.2923 36.4588 28.2923 36.6647Z" fill="#1B3DBC"/>
<path d="M128.132 18.9864H128.612V19.8325H128.027C127.442 19.8325 126.986 19.6515 126.659 19.2894C126.331 19.6515 125.875 19.8325 125.29 19.8325H121.561C120.997 19.8325 120.555 19.6445 120.235 19.2685C119.956 18.9412 119.817 18.5129 119.817 17.9837V16.7198L120.715 16.2393V17.9001C120.715 18.6243 121.053 18.9864 121.729 18.9864H125.196C125.872 18.9864 126.21 18.6243 126.21 17.9001V15.7797L127.108 15.2992V17.9419C127.108 18.6383 127.449 18.9864 128.132 18.9864ZM123.086 20.8771C123.421 20.8771 123.588 21.0477 123.588 21.3889C123.588 21.7371 123.421 21.9111 123.086 21.9111C122.745 21.9111 122.575 21.7371 122.575 21.3889C122.575 21.0477 122.745 20.8771 123.086 20.8771ZM131.624 18.9864H132.313V19.8325H131.519C130.941 19.8325 130.485 19.648 130.151 19.2789C129.817 19.648 129.361 19.8325 128.783 19.8325H127.989V18.9864H128.678C129.361 18.9864 129.702 18.6383 129.702 17.9419V15.7797L130.6 15.2992V17.9419C130.6 18.6383 130.941 18.9864 131.624 18.9864ZM129.127 20.8771C129.462 20.8771 129.629 21.0511 129.629 21.3993C129.629 21.7405 129.462 21.9111 129.127 21.9111C128.786 21.9111 128.616 21.7405 128.616 21.3993C128.616 21.0511 128.786 20.8771 129.127 20.8771ZM130.454 20.8771C130.788 20.8771 130.955 21.0511 130.955 21.3993C130.955 21.7405 130.788 21.9111 130.454 21.9111C130.113 21.9111 129.942 21.7405 129.942 21.3993C129.942 21.0511 130.113 20.8771 130.454 20.8771ZM135.316 18.9864H136.006V19.8325H135.212C134.634 19.8325 134.178 19.648 133.844 19.2789C133.509 19.648 133.053 19.8325 132.475 19.8325H131.681V18.9864H132.371C133.053 18.9864 133.395 18.6383 133.395 17.9419V15.7797L134.293 15.2992V17.9419C134.293 18.6383 134.634 18.9864 135.316 18.9864ZM133.781 20.8771C134.115 20.8771 134.282 21.0477 134.282 21.3889C134.282 21.7371 134.115 21.9111 133.781 21.9111C133.44 21.9111 133.269 21.7371 133.269 21.3889C133.269 21.0477 133.44 20.8771 133.781 20.8771ZM135.374 19.8325V18.9864H136.805C138.219 18.9864 139.336 18.5199 140.158 17.5868C139.58 16.5213 138.877 15.9886 138.048 15.9886C137.484 15.9886 136.903 16.2881 136.304 16.8869V16.0513C136.889 15.4594 137.508 15.1635 138.163 15.1635C138.699 15.1635 139.218 15.3584 139.719 15.7484C140.221 16.1314 140.663 16.6815 141.046 17.3988V17.8583C140.022 19.1745 138.605 19.8325 136.795 19.8325H135.374ZM146.769 19.8325C146.163 19.8325 145.696 19.6375 145.369 19.2476C145.09 18.9133 144.951 18.4886 144.951 17.9732V13.5758L145.849 13.0953V17.9419C145.849 18.6383 146.191 18.9864 146.873 18.9864H147.562V19.8325H146.769ZM148.916 14.0354C148.575 14.0354 148.404 13.8613 148.404 13.5131C148.404 13.1719 148.575 13.0013 148.916 13.0013C149.25 13.0013 149.417 13.1719 149.417 13.5131C149.417 13.8613 149.25 14.0354 148.916 14.0354ZM150.566 18.9864H151.256V19.8325H150.462C149.884 19.8325 149.428 19.648 149.093 19.2789C148.759 19.648 148.303 19.8325 147.725 19.8325H146.931V18.9864H147.621C148.303 18.9864 148.644 18.6383 148.644 17.9419V15.7797L149.543 15.2992V17.9419C149.543 18.6383 149.884 18.9864 150.566 18.9864ZM154.259 18.9864H154.948V19.8325H154.154C153.576 19.8325 153.12 19.648 152.786 19.2789C152.452 19.648 151.996 19.8325 151.418 19.8325H150.624V18.9864H151.313C151.996 18.9864 152.337 18.6383 152.337 17.9419V15.7797L153.235 15.2992V17.9419C153.235 18.6383 153.576 18.9864 154.259 18.9864ZM151.762 20.8771C152.097 20.8771 152.264 21.0511 152.264 21.3993C152.264 21.7405 152.097 21.9111 151.762 21.9111C151.421 21.9111 151.251 21.7405 151.251 21.3993C151.251 21.0511 151.421 20.8771 151.762 20.8771ZM153.089 20.8771C153.423 20.8771 153.59 21.0511 153.59 21.3993C153.59 21.7405 153.423 21.9111 153.089 21.9111C152.748 21.9111 152.577 21.7405 152.577 21.3993C152.577 21.0511 152.748 20.8771 153.089 20.8771ZM156.03 17.0018C156.03 16.396 156.211 15.926 156.573 15.5917C156.893 15.3062 157.311 15.1635 157.826 15.1635C158.488 15.1635 158.996 15.4072 159.351 15.8946C159.658 16.3055 159.811 16.8417 159.811 17.5032C159.811 18.2553 159.616 18.8437 159.226 19.2685C158.885 19.6445 158.439 19.8325 157.889 19.8325C157.262 19.8325 156.785 19.6584 156.458 19.3103C156.124 19.6584 155.674 19.8325 155.11 19.8325H154.316V18.9864H155.006C155.688 18.9864 156.03 18.6383 156.03 17.9419V17.0018ZM156.928 18.015C156.928 18.6626 157.245 18.9864 157.878 18.9864C158.206 18.9864 158.46 18.8541 158.641 18.5895C158.829 18.3249 158.923 17.9558 158.923 17.4823C158.923 17.0158 158.825 16.6537 158.63 16.396C158.435 16.1314 158.167 15.9991 157.826 15.9991C157.227 15.9991 156.928 16.3473 156.928 17.0436V18.015Z" fill="#7179CE"/>
<path d="M118.949 37.1685V32.2095H121.863V32.7031H119.529V34.3482H121.495V34.8418H119.529V37.1685H118.949ZM123.428 32.1155V37.1685H122.903V32.3975L123.428 32.1155ZM127.514 33.6118V37.1685H127.107L127.06 36.7611L127.036 36.7689C126.718 37.098 126.331 37.2625 125.877 37.2625C125.496 37.2625 125.195 37.1293 124.976 36.8629C124.757 36.5914 124.647 36.2179 124.647 35.7427V33.6118H125.172V35.6487C125.172 36.4164 125.459 36.8003 126.034 36.8003C126.211 36.8003 126.389 36.7559 126.566 36.6671C126.749 36.5783 126.893 36.4634 126.997 36.3224V33.6118H127.514ZM129.523 34.0427L129.515 36.2675C129.515 36.6488 129.67 36.8394 129.978 36.8394C130.15 36.8394 130.32 36.795 130.487 36.7063L130.675 36.9961C130.419 37.1737 130.15 37.2625 129.868 37.2625C129.591 37.2625 129.377 37.1763 129.226 37.0039C129.074 36.8316 128.998 36.5914 128.998 36.2832V34.0427H128.458V33.6118H129.006V32.8363L129.523 32.5699V33.6118H130.612V34.0427H129.523ZM132.4 34.0427L132.392 36.2675C132.392 36.6488 132.546 36.8394 132.854 36.8394C133.027 36.8394 133.196 36.795 133.363 36.7063L133.551 36.9961C133.296 37.1737 133.027 37.2625 132.745 37.2625C132.468 37.2625 132.254 37.1763 132.102 37.0039C131.951 36.8316 131.875 36.5914 131.875 36.2832V34.0427H131.334V33.6118H131.883V32.8363L132.4 32.5699V33.6118H133.489V34.0427H132.4ZM137.307 35.5703H134.769C134.79 35.9516 134.92 36.2571 135.161 36.4869C135.406 36.7167 135.722 36.8316 136.109 36.8316C136.432 36.8316 136.748 36.735 137.057 36.5417L137.237 36.8551C136.892 37.1267 136.477 37.2625 135.991 37.2625C135.427 37.2625 134.978 37.0771 134.644 36.7063C134.336 36.372 134.181 35.9385 134.181 35.4058C134.181 34.8522 134.346 34.39 134.675 34.0192C134.973 33.6849 135.341 33.5178 135.78 33.5178C136.307 33.5178 136.709 33.7319 136.986 34.1602C137.2 34.4944 137.307 34.907 137.307 35.398V35.5703ZM134.761 35.1473H136.767C136.751 34.766 136.657 34.4683 136.485 34.2542C136.318 34.0401 136.085 33.933 135.787 33.933C135.505 33.933 135.268 34.0453 135.075 34.2699C134.887 34.4944 134.782 34.7869 134.761 35.1473ZM140.614 33.9173L140.183 34.215C140.006 34.0584 139.815 33.98 139.611 33.98C139.314 33.98 139.05 34.1341 138.82 34.4422V37.1685H138.295V33.6118H138.742L138.789 33.9878H138.804C139.113 33.6745 139.429 33.5178 139.752 33.5178C140.134 33.5178 140.421 33.651 140.614 33.9173ZM144.365 36.7924C144.365 37.743 144.015 38.3383 143.316 38.5786C143.148 38.636 142.971 38.6648 142.783 38.6648C142.48 38.6648 142.187 38.5916 141.905 38.4454V37.9832C142.172 38.1294 142.443 38.2025 142.72 38.2025C142.94 38.2025 143.133 38.1529 143.3 38.0537C143.665 37.8343 143.848 37.4244 143.848 36.8238V34.0897L144.365 33.8155V36.7924ZM149.211 36.6827V37.1685H148.381C148.375 37.5132 148.263 37.8161 148.044 38.0772C147.83 38.3436 147.55 38.5185 147.206 38.6021C147.08 38.6386 146.944 38.6569 146.798 38.6569C146.495 38.6569 146.2 38.5838 145.913 38.4376V37.9754C146.184 38.1216 146.453 38.1947 146.72 38.1947C146.934 38.1947 147.122 38.1477 147.284 38.0537C147.446 37.9701 147.582 37.8422 147.691 37.6698C147.801 37.5027 147.856 37.3356 147.856 37.1685L147.19 37.145C146.61 37.1188 146.177 36.936 145.889 36.5966C145.654 36.3093 145.537 35.9255 145.537 35.445C145.537 34.8809 145.683 34.4448 145.976 34.1367C146.237 33.8599 146.587 33.7215 147.025 33.7215C147.48 33.7215 147.827 33.8573 148.067 34.1289C148.276 34.3639 148.381 34.6772 148.381 35.0689V36.6827H149.211ZM147.856 35.1238C147.856 34.5075 147.579 34.1994 147.025 34.1994C146.717 34.1994 146.477 34.309 146.305 34.5284C146.137 34.7425 146.054 35.0454 146.054 35.4371C146.054 36.2153 146.438 36.6227 147.206 36.6592C147.435 36.6749 147.652 36.6827 147.856 36.6827V35.1238ZM156.258 36.6827V37.1685H155.921C155.483 37.1685 155.143 37.0274 154.903 36.7454C154.715 37.0274 154.412 37.1685 153.994 37.1685H149.051V36.6827H150.375V32.3897L150.861 32.1155V35.4058C151.472 34.2829 152.281 33.7215 153.289 33.7215C153.874 33.7215 154.339 33.9226 154.684 34.3247C154.976 34.6694 155.122 35.0951 155.122 35.6017V35.8053C155.122 36.3903 155.412 36.6827 155.992 36.6827H156.258ZM154.597 35.6017C154.597 35.163 154.459 34.8104 154.182 34.5441C153.947 34.3143 153.652 34.1994 153.297 34.1994C152.686 34.1994 152.143 34.4944 151.667 35.0846C151.307 35.5285 151.041 36.0613 150.868 36.6827H153.939C154.19 36.6827 154.362 36.6253 154.456 36.5104C154.55 36.3903 154.597 36.1735 154.597 35.8602V35.6017ZM157.24 35.0689C157.24 34.625 157.374 34.2803 157.64 34.0349C157.87 33.8259 158.173 33.7215 158.549 33.7215C159.034 33.7215 159.408 33.8991 159.669 34.2542C159.894 34.5571 160.006 34.954 160.006 35.445C160.006 36.0038 159.862 36.4399 159.575 36.7533C159.324 37.0301 158.998 37.1685 158.596 37.1685C158.105 37.1685 157.739 37.0118 157.499 36.6984C157.264 37.0118 156.911 37.1685 156.441 37.1685H156.105V36.6827H156.379C156.953 36.6827 157.24 36.3851 157.24 35.7897V35.0689ZM157.765 35.821C157.765 36.3955 158.047 36.6827 158.611 36.6827C158.883 36.6827 159.097 36.5731 159.254 36.3537C159.41 36.1344 159.489 35.8288 159.489 35.4371C159.489 35.0507 159.405 34.7477 159.238 34.5284C159.076 34.309 158.846 34.1994 158.549 34.1994C158.026 34.1994 157.765 34.5049 157.765 35.1159V35.821Z" fill="#1B3DBC"/>
<circle cx="188.887" cy="26.5004" r="17.8441" fill="#D9D9D9"/>
</svg>
