<svg width="247" height="59" viewBox="0 0 247 59" fill="none" xmlns="http://www.w3.org/2000/svg">
<rect x="0.5" y="0.5" width="246" height="58" rx="7.5" fill="white"/>
<rect x="0.5" y="0.5" width="246" height="58" rx="7.5" stroke="#CEDFFF"/>
<path d="M17.0245 12.9635C17.1741 12.5029 17.8259 12.5029 17.9755 12.9635L19.1839 16.6824C19.2508 16.8884 19.4428 17.0279 19.6594 17.0279H23.5696C24.054 17.0279 24.2554 17.6477 23.8635 17.9324L20.7001 20.2307C20.5248 20.3581 20.4515 20.5838 20.5184 20.7898L21.7268 24.5086C21.8764 24.9693 21.3492 25.3523 20.9573 25.0676L17.7939 22.7693C17.6186 22.6419 17.3814 22.6419 17.2061 22.7693L14.0427 25.0676C13.6508 25.3523 13.1236 24.9693 13.2732 24.5086L14.4816 20.7898C14.5485 20.5838 14.4752 20.3581 14.2999 20.2307L11.1365 17.9324C10.7446 17.6477 10.946 17.0279 11.4304 17.0279H15.3406C15.5572 17.0279 15.7492 16.8884 15.8161 16.6824L17.0245 12.9635Z" fill="#FED26C"/>
<path d="M37.0245 12.9635C37.1741 12.5029 37.8259 12.5029 37.9755 12.9635L39.1839 16.6824C39.2508 16.8884 39.4428 17.0279 39.6594 17.0279H43.5696C44.054 17.0279 44.2554 17.6477 43.8635 17.9324L40.7001 20.2307C40.5248 20.3581 40.4515 20.5838 40.5184 20.7898L41.7268 24.5086C41.8764 24.9693 41.3492 25.3523 40.9573 25.0676L37.7939 22.7693C37.6186 22.6419 37.3814 22.6419 37.2061 22.7693L34.0427 25.0676C33.6508 25.3523 33.1236 24.9693 33.2732 24.5086L34.4816 20.7898C34.5485 20.5838 34.4752 20.3581 34.2999 20.2307L31.1365 17.9324C30.7446 17.6477 30.946 17.0279 31.4304 17.0279H35.3406C35.5572 17.0279 35.7492 16.8884 35.8161 16.6824L37.0245 12.9635Z" fill="#FED26C"/>
<path d="M57.0245 12.9635C57.1741 12.5029 57.8259 12.5029 57.9755 12.9635L59.1839 16.6824C59.2508 16.8884 59.4428 17.0279 59.6594 17.0279H63.5696C64.054 17.0279 64.2554 17.6477 63.8635 17.9324L60.7001 20.2307C60.5248 20.3581 60.4515 20.5838 60.5184 20.7898L61.7268 24.5086C61.8764 24.9693 61.3492 25.3523 60.9573 25.0676L57.7939 22.7693C57.6186 22.6419 57.3814 22.6419 57.2061 22.7693L54.0427 25.0676C53.6508 25.3523 53.1236 24.9693 53.2732 24.5086L54.4816 20.7898C54.5485 20.5838 54.4752 20.3581 54.2999 20.2307L51.1365 17.9324C50.7446 17.6477 50.946 17.0279 51.4304 17.0279H55.3406C55.5572 17.0279 55.7492 16.8884 55.8161 16.6824L57.0245 12.9635Z" fill="#FED26C"/>
<path d="M77.0245 12.9635C77.1741 12.5029 77.8259 12.5029 77.9755 12.9635L79.1839 16.6824C79.2508 16.8884 79.4428 17.0279 79.6594 17.0279H83.5696C84.054 17.0279 84.2554 17.6477 83.8635 17.9324L80.7001 20.2307C80.5248 20.3581 80.4515 20.5838 80.5184 20.7898L81.7268 24.5086C81.8764 24.9693 81.3492 25.3523 80.9573 25.0676L77.7939 22.7693C77.6186 22.6419 77.3814 22.6419 77.2061 22.7693L74.0427 25.0676C73.6508 25.3523 73.1236 24.9693 73.2732 24.5086L74.4816 20.7898C74.5485 20.5838 74.4752 20.3581 74.2999 20.2307L71.1365 17.9324C70.7446 17.6477 70.946 17.0279 71.4304 17.0279H75.3406C75.5572 17.0279 75.7492 16.8884 75.8161 16.6824L77.0245 12.9635Z" fill="#D9D9D9"/>
<path d="M97.0245 12.9635C97.1741 12.5029 97.8259 12.5029 97.9755 12.9635L99.1839 16.6824C99.2508 16.8884 99.4428 17.0279 99.6594 17.0279H103.57C104.054 17.0279 104.255 17.6477 103.864 17.9324L100.7 20.2307C100.525 20.3581 100.451 20.5838 100.518 20.7898L101.727 24.5086C101.876 24.9693 101.349 25.3523 100.957 25.0676L97.7939 22.7693C97.6186 22.6419 97.3814 22.6419 97.2061 22.7693L94.0427 25.0676C93.6508 25.3523 93.1236 24.9693 93.2732 24.5086L94.4816 20.7898C94.5485 20.5838 94.4752 20.3581 94.2999 20.2307L91.1365 17.9324C90.7446 17.6477 90.946 17.0279 91.4304 17.0279H95.3406C95.5572 17.0279 95.7492 16.8884 95.8161 16.6824L97.0245 12.9635Z" fill="#D9D9D9"/>
<path d="M12.744 36.9545V43.5H11.5582V38.1083H11.5199L9.98899 39.0863V37.9996L11.6158 36.9545H12.744ZM16.6815 43.5895C16.2553 43.5895 15.8739 43.5096 15.5373 43.3498C15.2006 43.1879 14.9332 42.9663 14.7351 42.685C14.5391 42.4038 14.4347 42.082 14.4219 41.7198H15.5724C15.5938 41.9883 15.7099 42.2077 15.9208 42.3782C16.1317 42.5465 16.3853 42.6307 16.6815 42.6307C16.9137 42.6307 17.1204 42.5774 17.3015 42.4709C17.4826 42.3643 17.6254 42.2163 17.7298 42.0266C17.8342 41.837 17.8853 41.6207 17.8832 41.3778C17.8853 41.1307 17.8331 40.9112 17.7266 40.7195C17.62 40.5277 17.4741 40.3775 17.2887 40.2688C17.1033 40.158 16.8903 40.1026 16.6495 40.1026C16.4535 40.1005 16.2607 40.1367 16.071 40.2113C15.8814 40.2859 15.7312 40.3839 15.6204 40.5053L14.5497 40.3295L14.8917 36.9545H18.6886V37.9453H15.8729L15.6843 39.6808H15.7227C15.8441 39.538 16.0156 39.4197 16.2372 39.326C16.4588 39.2301 16.7017 39.1822 16.9659 39.1822C17.3622 39.1822 17.7159 39.2759 18.027 39.4634C18.3381 39.6488 18.5831 39.9045 18.7621 40.2305C18.9411 40.5565 19.0305 40.9293 19.0305 41.3491C19.0305 41.7816 18.9304 42.1673 18.7301 42.506C18.532 42.8427 18.256 43.108 17.9023 43.3018C17.5508 43.4936 17.1438 43.5895 16.6815 43.5895ZM22.2106 44.3182V36.1364H22.7347V44.3182H22.2106ZM23.7223 38.7539C23.6925 38.4748 23.5668 38.2575 23.3452 38.1019C23.1257 37.9464 22.8402 37.8686 22.4886 37.8686C22.2415 37.8686 22.0295 37.9059 21.8526 37.9805C21.6758 38.055 21.5405 38.1562 21.4467 38.2841C21.353 38.4119 21.305 38.5579 21.3029 38.7219C21.3029 38.8583 21.3338 38.9766 21.3956 39.0767C21.4595 39.1768 21.5458 39.2621 21.6545 39.3324C21.7631 39.4006 21.8835 39.4581 22.0156 39.505C22.1477 39.5518 22.2809 39.5913 22.4151 39.6232L23.0288 39.7766C23.2759 39.8342 23.5135 39.9119 23.7415 40.0099C23.9716 40.108 24.1772 40.2315 24.3583 40.3807C24.5415 40.5298 24.6864 40.7099 24.793 40.9208C24.8995 41.1317 24.9528 41.3789 24.9528 41.6623C24.9528 42.0458 24.8548 42.3835 24.6587 42.6754C24.4627 42.9652 24.1793 43.1921 23.8086 43.3562C23.44 43.5181 22.9936 43.5991 22.4695 43.5991C21.9602 43.5991 21.5181 43.5202 21.1431 43.3626C20.7702 43.2049 20.4783 42.9748 20.2674 42.6722C20.0586 42.3697 19.9457 42.0011 19.9286 41.5664H21.0952C21.1122 41.7944 21.1825 41.984 21.3061 42.1353C21.4297 42.2866 21.5906 42.3995 21.7887 42.4741C21.989 42.5487 22.2127 42.5859 22.4599 42.5859C22.7177 42.5859 22.9435 42.5476 23.1374 42.4709C23.3335 42.392 23.4869 42.2834 23.5977 42.1449C23.7085 42.0043 23.7649 41.8402 23.767 41.6527C23.7649 41.4822 23.7148 41.3416 23.6168 41.2308C23.5188 41.1179 23.3814 41.0241 23.2045 40.9496C23.0298 40.8729 22.8253 40.8047 22.5909 40.745L21.8462 40.5533C21.3072 40.4148 20.881 40.2049 20.5678 39.9237C20.2567 39.6403 20.1012 39.2642 20.1012 38.7955C20.1012 38.4098 20.2056 38.0721 20.4144 37.7823C20.6254 37.4925 20.9119 37.2678 21.2741 37.108C21.6364 36.946 22.0465 36.8651 22.5046 36.8651C22.9691 36.8651 23.3761 36.946 23.7255 37.108C24.0771 37.2678 24.353 37.4904 24.5533 37.7759C24.7536 38.0593 24.8569 38.3853 24.8633 38.7539H23.7223ZM28.6306 36.6477L26.5212 44.4844H25.5081L27.6175 36.6477H28.6306ZM30.5258 40.6236V43.5H29.3689V36.9545H30.5003V39.4251H30.5578C30.6729 39.1481 30.8508 38.9297 31.0915 38.7699C31.3344 38.608 31.6434 38.527 32.0184 38.527C32.3593 38.527 32.6565 38.5984 32.9101 38.7411C33.1636 38.8839 33.3596 39.0927 33.4981 39.3675C33.6388 39.6424 33.7091 39.978 33.7091 40.3743V43.5H32.5521V40.5533C32.5521 40.223 32.4669 39.9663 32.2964 39.783C32.1281 39.5977 31.8916 39.505 31.5869 39.505C31.3824 39.505 31.1991 39.5497 31.0372 39.6392C30.8774 39.7266 30.7517 39.8533 30.6601 40.0195C30.5706 40.1857 30.5258 40.3871 30.5258 40.6236Z" fill="#1B3DBC"/>
<path d="M147.902 22.5C147.822 23.204 147.438 23.768 146.75 24.192C146.11 24.584 145.294 24.78 144.302 24.78C143.038 24.78 142.086 24.412 141.446 23.676C140.974 23.132 140.738 22.46 140.738 21.66C140.738 20.988 140.906 20.412 141.242 19.932L142.238 19.716C141.878 20.284 141.698 20.896 141.698 21.552C141.698 22.264 141.93 22.824 142.394 23.232C142.85 23.64 143.486 23.844 144.302 23.844C144.99 23.844 145.558 23.724 146.006 23.484C146.454 23.244 146.726 22.916 146.822 22.5H145.622L146.126 21.528H147.938V22.5H147.902ZM143.498 26.904C143.106 26.904 142.91 26.704 142.91 26.304C142.91 25.912 143.106 25.716 143.498 25.716C143.882 25.716 144.074 25.912 144.074 26.304C144.074 26.704 143.882 26.904 143.498 26.904ZM145.022 26.904C144.63 26.904 144.434 26.704 144.434 26.304C144.434 25.912 144.63 25.716 145.022 25.716C145.406 25.716 145.598 25.912 145.598 26.304C145.598 26.704 145.406 26.904 145.022 26.904ZM147.308 22.5V21.528H147.944C148.776 21.528 149.192 21.092 149.192 20.22V15.312L150.236 14.76V20.232C150.236 20.944 150.024 21.508 149.6 21.924C149.2 22.308 148.676 22.5 148.028 22.5H147.308ZM151.433 22.5L151.937 21.528H154.073C154.393 21.528 154.617 21.448 154.745 21.288C154.881 21.128 154.949 20.852 154.949 20.46C154.949 19.396 154.457 18.596 153.473 18.06L154.001 17.172C155.257 17.908 155.913 18.924 155.969 20.22C155.985 20.684 156.089 21.02 156.281 21.228C156.481 21.428 156.797 21.528 157.229 21.528H157.937V22.5H157.145C156.481 22.5 155.961 22.288 155.585 21.864C155.321 22.288 154.877 22.5 154.253 22.5H151.433ZM163.69 21.528V22.5H157.222V21.528H159.298C158.906 21.024 158.71 20.404 158.71 19.668C158.71 18.852 158.99 18.204 159.55 17.724C160.006 17.34 160.534 17.144 161.134 17.136C161.982 17.136 162.642 17.476 163.114 18.156V19.128C162.602 18.44 161.982 18.096 161.254 18.096C160.798 18.096 160.43 18.244 160.15 18.54C159.878 18.828 159.742 19.216 159.742 19.704C159.742 20.256 159.906 20.7 160.234 21.036C160.57 21.364 161.014 21.528 161.566 21.528H163.69ZM172.966 21.528H173.758V22.5H172.846C172.022 22.5 171.43 22.196 171.07 21.588C170.686 21.956 170.21 22.14 169.642 22.14C168.938 22.14 168.378 21.876 167.962 21.348C167.618 20.9 167.446 20.352 167.446 19.704C167.446 18.928 167.682 18.304 168.154 17.832C168.554 17.424 169.042 17.22 169.618 17.22C170.058 17.22 170.438 17.332 170.758 17.556V17.04L171.802 16.488V20.328C171.802 21.128 172.19 21.528 172.966 21.528ZM170.758 18.672C170.462 18.344 170.098 18.18 169.666 18.18C169.314 18.18 169.026 18.324 168.802 18.612C168.578 18.892 168.466 19.26 168.466 19.716C168.466 20.18 168.578 20.552 168.802 20.832C169.026 21.112 169.318 21.252 169.678 21.252C170.126 21.252 170.494 21.068 170.782 20.7C170.766 20.556 170.758 20.444 170.758 20.364V18.672ZM175.322 15.84C174.93 15.84 174.734 15.64 174.734 15.24C174.734 14.848 174.93 14.652 175.322 14.652C175.706 14.652 175.898 14.848 175.898 15.24C175.898 15.64 175.706 15.84 175.322 15.84ZM177.218 21.528H178.01V22.5H177.098C176.434 22.5 175.91 22.288 175.526 21.864C175.142 22.288 174.618 22.5 173.954 22.5H173.042V21.528H173.834C174.618 21.528 175.01 21.128 175.01 20.328V17.844L176.042 17.292V20.328C176.042 21.128 176.434 21.528 177.218 21.528ZM179.253 19.248C179.253 18.552 179.461 18.012 179.877 17.628C180.245 17.3 180.725 17.136 181.317 17.136C182.077 17.136 182.661 17.416 183.069 17.976C183.421 18.448 183.597 19.064 183.597 19.824C183.597 20.688 183.373 21.364 182.925 21.852C182.533 22.284 182.021 22.5 181.389 22.5C180.669 22.5 180.121 22.3 179.745 21.9C179.361 22.3 178.845 22.5 178.197 22.5H177.285V21.528H178.077C178.861 21.528 179.253 21.128 179.253 20.328V19.248ZM180.285 20.412C180.285 21.156 180.649 21.528 181.377 21.528C181.753 21.528 182.045 21.376 182.253 21.072C182.469 20.768 182.577 20.344 182.577 19.8C182.577 19.264 182.465 18.848 182.241 18.552C182.017 18.248 181.709 18.096 181.317 18.096C180.629 18.096 180.285 18.496 180.285 19.296V20.412Z" fill="#7179CE"/>
<path d="M145.96 40.942H146.275V41.5H145.888C145.516 41.5 145.207 41.41 144.961 41.23C144.913 42.226 144.511 42.856 143.755 43.12C143.563 43.186 143.359 43.219 143.143 43.219C142.795 43.219 142.459 43.135 142.135 42.967V42.436C142.441 42.604 142.753 42.688 143.071 42.688C143.323 42.688 143.545 42.631 143.737 42.517C144.157 42.265 144.367 41.794 144.367 41.104V37.963L144.961 37.648V37.657L144.97 37.648V39.916C144.97 40.6 145.3 40.942 145.96 40.942ZM148.834 36.478C148.588 36.478 148.465 36.352 148.465 36.1C148.465 35.86 148.588 35.74 148.834 35.74C149.068 35.74 149.185 35.86 149.185 36.1C149.185 36.352 149.068 36.478 148.834 36.478ZM146.098 41.5V40.942H147.628C147.298 40.612 147.133 40.138 147.133 39.52C147.133 38.872 147.301 38.371 147.637 38.017C147.931 37.699 148.321 37.54 148.807 37.54C149.305 37.54 149.689 37.696 149.959 38.008C150.193 38.278 150.31 38.638 150.31 39.088V39.961C150.304 40.447 150.157 40.828 149.869 41.104C149.605 41.368 149.245 41.5 148.789 41.5H146.098ZM149.716 39.142C149.716 38.44 149.413 38.089 148.807 38.089C148.471 38.089 148.207 38.215 148.015 38.467C147.829 38.713 147.736 39.061 147.736 39.511C147.736 39.949 147.826 40.297 148.006 40.555C148.192 40.813 148.438 40.942 148.744 40.942C149.392 40.942 149.716 40.606 149.716 39.934V39.142ZM154.145 41.167C153.893 41.311 153.569 41.383 153.173 41.383C152.651 41.383 152.243 41.182 151.949 40.78C151.697 40.438 151.571 40.006 151.571 39.484C151.571 38.854 151.739 38.362 152.075 38.008C152.369 37.696 152.759 37.54 153.245 37.54C153.743 37.54 154.127 37.696 154.397 38.008C154.631 38.278 154.748 38.638 154.748 39.088V41.068C154.748 41.626 154.631 42.085 154.397 42.445C154.163 42.811 153.83 43.045 153.398 43.147C153.254 43.189 153.098 43.21 152.93 43.21C152.582 43.21 152.243 43.126 151.913 42.958V42.427C152.225 42.595 152.534 42.679 152.84 42.679C153.086 42.679 153.302 42.625 153.488 42.517C153.908 42.307 154.127 41.857 154.145 41.167ZM154.145 39.142C154.145 38.44 153.845 38.089 153.245 38.089C152.909 38.089 152.642 38.212 152.444 38.458C152.252 38.704 152.156 39.043 152.156 39.475C152.156 39.895 152.249 40.231 152.435 40.483C152.621 40.729 152.873 40.852 153.191 40.852C153.665 40.852 153.983 40.72 154.145 40.456V39.142ZM156.28 41.5V36.01L156.883 35.695V41.5H156.28ZM171.933 40.942H172.455V41.5H171.87C171.318 41.5 170.901 41.311 170.619 40.933C170.337 41.311 169.926 41.5 169.386 41.5H168.909C168.363 41.5 167.955 41.314 167.685 40.942C167.415 41.314 167.007 41.5 166.461 41.5H165.984C165.63 41.5 165.321 41.413 165.057 41.239C165.015 41.869 164.763 42.364 164.301 42.724C163.893 43.048 163.377 43.21 162.753 43.21C161.991 43.21 161.4 42.94 160.98 42.4C160.65 41.986 160.485 41.491 160.485 40.915C160.485 40.399 160.617 39.955 160.881 39.583L161.466 39.466C161.178 39.904 161.034 40.372 161.034 40.87C161.034 41.398 161.205 41.833 161.547 42.175C161.865 42.493 162.267 42.652 162.753 42.652C163.323 42.652 163.764 42.484 164.076 42.148C164.334 41.872 164.463 41.509 164.463 41.059V38.62L165.066 38.305V39.916C165.066 40.6 165.399 40.942 166.065 40.942H166.389C167.055 40.942 167.388 40.6 167.388 39.916V38.296L167.982 37.972V39.916C167.982 40.6 168.315 40.942 168.981 40.942H169.314C169.974 40.942 170.304 40.6 170.304 39.916V37.963L170.907 37.648V39.88C170.907 40.588 171.249 40.942 171.933 40.942ZM172.272 41.5V40.942H172.587C173.247 40.942 173.577 40.6 173.577 39.916V37.963L174.18 37.648V39.934C174.18 40.438 174.033 40.831 173.739 41.113C173.469 41.371 173.109 41.5 172.659 41.5H172.272ZM172.569 43.183C172.323 43.183 172.2 43.057 172.2 42.805C172.2 42.565 172.323 42.445 172.569 42.445C172.803 42.445 172.92 42.565 172.92 42.805C172.92 43.057 172.803 43.183 172.569 43.183ZM173.595 43.183C173.349 43.183 173.226 43.057 173.226 42.805C173.226 42.565 173.349 42.445 173.595 42.445C173.829 42.445 173.946 42.565 173.946 42.805C173.946 43.057 173.829 43.183 173.595 43.183ZM179.751 40.942V41.5H178.797C178.791 41.896 178.662 42.244 178.41 42.544C178.164 42.85 177.843 43.051 177.447 43.147C177.303 43.189 177.147 43.21 176.979 43.21C176.631 43.21 176.292 43.126 175.962 42.958V42.427C176.274 42.595 176.583 42.679 176.889 42.679C177.135 42.679 177.351 42.625 177.537 42.517C177.723 42.421 177.879 42.274 178.005 42.076C178.131 41.884 178.194 41.692 178.194 41.5L177.429 41.473C176.763 41.443 176.265 41.233 175.935 40.843C175.665 40.513 175.53 40.072 175.53 39.52C175.53 38.872 175.698 38.371 176.034 38.017C176.334 37.699 176.736 37.54 177.24 37.54C177.762 37.54 178.161 37.696 178.437 38.008C178.677 38.278 178.797 38.638 178.797 39.088V40.942H179.751ZM178.194 39.151C178.194 38.443 177.876 38.089 177.24 38.089C176.886 38.089 176.61 38.215 176.412 38.467C176.22 38.713 176.124 39.061 176.124 39.511C176.124 40.405 176.565 40.873 177.447 40.915C177.711 40.933 177.96 40.942 178.194 40.942V39.151ZM182.303 36.478C182.057 36.478 181.934 36.352 181.934 36.1C181.934 35.86 182.057 35.74 182.303 35.74C182.537 35.74 182.654 35.86 182.654 36.1C182.654 36.352 182.537 36.478 182.303 36.478ZM179.567 41.5V40.942H181.097C180.767 40.612 180.602 40.138 180.602 39.52C180.602 38.872 180.77 38.371 181.106 38.017C181.4 37.699 181.79 37.54 182.276 37.54C182.774 37.54 183.158 37.696 183.428 38.008C183.662 38.278 183.779 38.638 183.779 39.088V39.961C183.773 40.447 183.626 40.828 183.338 41.104C183.074 41.368 182.714 41.5 182.258 41.5H179.567ZM183.185 39.142C183.185 38.44 182.882 38.089 182.276 38.089C181.94 38.089 181.676 38.215 181.484 38.467C181.298 38.713 181.205 39.061 181.205 39.511C181.205 39.949 181.295 40.297 181.475 40.555C181.661 40.813 181.907 40.942 182.213 40.942C182.861 40.942 183.185 40.606 183.185 39.934V39.142Z" fill="#1B3DBC"/>
<circle cx="217" cy="29.5" r="20.5" fill="#D9D9D9"/>
</svg>
