<svg width="180" height="43" viewBox="0 0 180 43" fill="none" xmlns="http://www.w3.org/2000/svg">
<rect x="0.364372" y="0.364372" width="179.271" height="42.2672" rx="5.46559" fill="white"/>
<rect x="0.364372" y="0.364372" width="179.271" height="42.2672" rx="5.46559" stroke="#CEDFFF" stroke-width="0.728745"/>
<path d="M12.4065 9.44691C12.5156 9.11121 12.9905 9.11121 13.0996 9.44691L13.9802 12.157C14.0289 12.3071 14.1688 12.4088 14.3267 12.4088H17.1763C17.5292 12.4088 17.676 12.8605 17.3904 13.0679L15.0851 14.7429C14.9574 14.8356 14.9039 15.0001 14.9527 15.1502L15.8333 17.8603C15.9424 18.196 15.5581 18.4752 15.2726 18.2677L12.9672 16.5928C12.8395 16.5 12.6666 16.5 12.5389 16.5928L10.2335 18.2677C9.94798 18.4752 9.56375 18.196 9.67283 17.8603L10.5534 15.1502C10.6022 15.0001 10.5487 14.8356 10.421 14.7429L8.11569 13.0679C7.83012 12.8605 7.97688 12.4088 8.32986 12.4088H11.1794C11.3373 12.4088 11.4772 12.3071 11.526 12.157L12.4065 9.44691Z" fill="#FED26C"/>
<path d="M26.9815 9.44691C27.0905 9.11121 27.5655 9.11121 27.6745 9.44691L28.5551 12.157C28.6039 12.3071 28.7438 12.4088 28.9016 12.4088H31.7512C32.1042 12.4088 32.2509 12.8605 31.9654 13.0679L29.66 14.7429C29.5323 14.8356 29.4789 15.0001 29.5277 15.1502L30.4082 17.8603C30.5173 18.196 30.1331 18.4752 29.8475 18.2677L27.5422 16.5928C27.4145 16.5 27.2415 16.5 27.1138 16.5928L24.8085 18.2677C24.5229 18.4752 24.1387 18.196 24.2478 17.8603L25.1283 15.1502C25.1771 15.0001 25.1237 14.8356 24.996 14.7429L22.6906 13.0679C22.4051 12.8605 22.5518 12.4088 22.9048 12.4088H25.7544C25.9122 12.4088 26.0521 12.3071 26.1009 12.157L26.9815 9.44691Z" fill="#FED26C"/>
<path d="M41.5563 9.44691C41.6654 9.11121 42.1403 9.11121 42.2494 9.44691L43.1299 12.157C43.1787 12.3071 43.3186 12.4088 43.4765 12.4088H46.326C46.679 12.4088 46.8258 12.8605 46.5402 13.0679L44.2349 14.7429C44.1072 14.8356 44.0537 15.0001 44.1025 15.1502L44.9831 17.8603C45.0921 18.196 44.7079 18.4752 44.4223 18.2677L42.117 16.5928C41.9893 16.5 41.8164 16.5 41.6887 16.5928L39.3833 18.2677C39.0978 18.4752 38.7135 18.196 38.8226 17.8603L39.7032 15.1502C39.752 15.0001 39.6985 14.8356 39.5708 14.7429L37.2655 13.0679C36.9799 12.8605 37.1267 12.4088 37.4796 12.4088H40.3292C40.4871 12.4088 40.627 12.3071 40.6757 12.157L41.5563 9.44691Z" fill="#FED26C"/>
<path d="M56.1312 9.44691C56.2403 9.11121 56.7152 9.11121 56.8243 9.44691L57.7049 12.157C57.7537 12.3071 57.8936 12.4088 58.0514 12.4088H60.901C61.254 12.4088 61.4007 12.8605 61.1152 13.0679L58.8098 14.7429C58.6821 14.8356 58.6287 15.0001 58.6775 15.1502L59.558 17.8603C59.6671 18.196 59.2829 18.4752 58.9973 18.2677L56.692 16.5928C56.5643 16.5 56.3913 16.5 56.2636 16.5928L53.9583 18.2677C53.6727 18.4752 53.2885 18.196 53.3976 17.8603L54.2781 15.1502C54.3269 15.0001 54.2735 14.8356 54.1458 14.7429L51.8404 13.0679C51.5549 12.8605 51.7016 12.4088 52.0546 12.4088H54.9041C55.062 12.4088 55.2019 12.3071 55.2507 12.157L56.1312 9.44691Z" fill="#FED26C"/>
<path d="M70.7061 9.44691C70.8152 9.11121 71.2901 9.11121 71.3992 9.44691L72.2797 12.157C72.3285 12.3071 72.4684 12.4088 72.6263 12.4088H75.4758C75.8288 12.4088 75.9755 12.8605 75.69 13.0679L73.3846 14.7429C73.2569 14.8356 73.2035 15.0001 73.2523 15.1502L74.1328 17.8603C74.2419 18.196 73.8577 18.4752 73.5721 18.2677L71.2668 16.5928C71.1391 16.5 70.9662 16.5 70.8384 16.5928L68.5331 18.2677C68.2475 18.4752 67.8633 18.196 67.9724 17.8603L68.853 15.1502C68.9017 15.0001 68.8483 14.8356 68.7206 14.7429L66.4152 13.0679C66.1297 12.8605 66.2764 12.4088 66.6294 12.4088H69.479C69.6368 12.4088 69.7767 12.3071 69.8255 12.157L70.7061 9.44691Z" fill="#FED26C"/>
<path d="M7.26081 30.7302V30.0431L9.28479 26.8453H9.85774V27.8235H9.50838L8.14587 29.9825V30.0198H10.971V30.7302H7.26081ZM9.53633 31.6152V30.5206L9.54565 30.2131V26.8453H10.3608V31.6152H9.53633ZM13.4783 31.7061C13.0948 31.7061 12.7656 31.609 12.4908 31.4149C12.2175 31.2193 12.0071 30.9375 11.8596 30.5695C11.7136 30.1999 11.6407 29.7551 11.6407 29.2349C11.6422 28.7147 11.716 28.2722 11.8619 27.9073C12.0094 27.5409 12.2198 27.2614 12.4931 27.0689C12.7679 26.8763 13.0963 26.7801 13.4783 26.7801C13.8603 26.7801 14.1887 26.8763 14.4635 27.0689C14.7383 27.2614 14.9487 27.5409 15.0947 27.9073C15.2422 28.2738 15.316 28.7163 15.316 29.2349C15.316 29.7566 15.2422 30.2023 15.0947 30.5718C14.9487 30.9398 14.7383 31.2208 14.4635 31.4149C14.1902 31.609 13.8618 31.7061 13.4783 31.7061ZM13.4783 30.9771C13.7764 30.9771 14.0117 30.8303 14.184 30.5369C14.3579 30.2419 14.4449 29.8079 14.4449 29.2349C14.4449 28.856 14.4053 28.5377 14.3261 28.28C14.2469 28.0222 14.1351 27.8281 13.9907 27.6977C13.8463 27.5657 13.6755 27.4997 13.4783 27.4997C13.1817 27.4997 12.9473 27.6472 12.7749 27.9423C12.6026 28.2357 12.5156 28.6666 12.5141 29.2349C12.5125 29.6153 12.5506 29.9352 12.6282 30.1945C12.7074 30.4538 12.8192 30.6494 12.9636 30.7814C13.108 30.9119 13.2796 30.9771 13.4783 30.9771ZM17.627 32.2115V26.249H18.009V32.2115H17.627ZM18.7286 28.1565C18.7069 27.9531 18.6153 27.7948 18.4538 27.6814C18.2939 27.5681 18.0858 27.5114 17.8296 27.5114C17.6495 27.5114 17.495 27.5386 17.3661 27.5929C17.2373 27.6472 17.1387 27.721 17.0703 27.8142C17.002 27.9073 16.9671 28.0137 16.9655 28.1333C16.9655 28.2326 16.988 28.3188 17.0331 28.3918C17.0797 28.4648 17.1425 28.5269 17.2217 28.5781C17.3009 28.6278 17.3886 28.6697 17.4849 28.7039C17.5812 28.738 17.6782 28.7668 17.7761 28.7901L18.2232 28.9018C18.4034 28.9438 18.5765 29.0004 18.7426 29.0719C18.9103 29.1433 19.0602 29.2334 19.1921 29.342C19.3257 29.4507 19.4313 29.5819 19.5089 29.7357C19.5865 29.8894 19.6253 30.0695 19.6253 30.276C19.6253 30.5555 19.5539 30.8016 19.4111 31.0143C19.2682 31.2255 19.0617 31.3909 18.7915 31.5104C18.5229 31.6284 18.1976 31.6874 17.8156 31.6874C17.4445 31.6874 17.1224 31.63 16.8491 31.5151C16.5773 31.4002 16.3646 31.2325 16.2109 31.012C16.0587 30.7915 15.9764 30.5229 15.964 30.2061H16.8141C16.8266 30.3723 16.8778 30.5105 16.9679 30.6207C17.0579 30.731 17.1751 30.8133 17.3196 30.8676C17.4655 30.9219 17.6285 30.9491 17.8087 30.9491C17.9965 30.9491 18.1611 30.9212 18.3024 30.8653C18.4453 30.8078 18.5571 30.7286 18.6378 30.6277C18.7186 30.5252 18.7597 30.4057 18.7613 30.269C18.7597 30.1448 18.7232 30.0423 18.6518 29.9616C18.5804 29.8793 18.4802 29.811 18.3513 29.7566C18.224 29.7007 18.075 29.651 17.9042 29.6076L17.3615 29.4678C16.9686 29.3669 16.6581 29.2139 16.4298 29.009C16.2031 28.8025 16.0898 28.5284 16.0898 28.1868C16.0898 27.9058 16.1659 27.6597 16.318 27.4485C16.4718 27.2373 16.6806 27.0735 16.9446 26.9571C17.2085 26.8391 17.5074 26.7801 17.8413 26.7801C18.1798 26.7801 18.4763 26.8391 18.731 26.9571C18.9872 27.0735 19.1883 27.2358 19.3342 27.4438C19.4802 27.6504 19.5555 27.8879 19.5601 28.1565H18.7286ZM22.3055 26.6217L20.7683 32.3326H20.03L21.5672 26.6217H22.3055ZM23.6867 29.5191V31.6152H22.8436V26.8453H23.6681V28.6457H23.71C23.7938 28.4438 23.9235 28.2846 24.0989 28.1682C24.2759 28.0502 24.5011 27.9912 24.7744 27.9912C25.0228 27.9912 25.2394 28.0432 25.4242 28.1472C25.609 28.2513 25.7518 28.4034 25.8527 28.6037C25.9552 28.804 26.0065 29.0486 26.0065 29.3374V31.6152H25.1633V29.4678C25.1633 29.2271 25.1012 29.04 24.977 28.9065C24.8543 28.7714 24.682 28.7039 24.4599 28.7039C24.3109 28.7039 24.1773 28.7365 24.0593 28.8017C23.9429 28.8654 23.8513 28.9577 23.7845 29.0789C23.7193 29.2 23.6867 29.3467 23.6867 29.5191Z" fill="#1B3DBC"/>
<path d="M107.273 15.672H107.675V16.3804H107.186C106.696 16.3804 106.314 16.2288 106.04 15.9256C105.766 16.2288 105.384 16.3804 104.894 16.3804H101.772C101.3 16.3804 100.93 16.223 100.662 15.9081C100.429 15.6341 100.312 15.2756 100.312 14.8325V13.7744L101.064 13.3721V14.7626C101.064 15.3689 101.347 15.672 101.912 15.672H104.816C105.381 15.672 105.664 15.3689 105.664 14.7626V12.9873L106.416 12.5851V14.7975C106.416 15.3805 106.702 15.672 107.273 15.672ZM103.049 17.2549C103.329 17.2549 103.469 17.3977 103.469 17.6834C103.469 17.9749 103.329 18.1206 103.049 18.1206C102.763 18.1206 102.621 17.9749 102.621 17.6834C102.621 17.3977 102.763 17.2549 103.049 17.2549ZM110.197 15.672H110.774V16.3804H110.109C109.625 16.3804 109.244 16.2259 108.964 15.9169C108.684 16.2259 108.302 16.3804 107.818 16.3804H107.154V15.672H107.731C108.302 15.672 108.588 15.3805 108.588 14.7975V12.9873L109.34 12.5851V14.7975C109.34 15.3805 109.625 15.672 110.197 15.672ZM108.107 17.2549C108.387 17.2549 108.526 17.4006 108.526 17.6921C108.526 17.9778 108.387 18.1206 108.107 18.1206C107.821 18.1206 107.678 17.9778 107.678 17.6921C107.678 17.4006 107.821 17.2549 108.107 17.2549ZM109.217 17.2549C109.497 17.2549 109.637 17.4006 109.637 17.6921C109.637 17.9778 109.497 18.1206 109.217 18.1206C108.932 18.1206 108.789 17.9778 108.789 17.6921C108.789 17.4006 108.932 17.2549 109.217 17.2549ZM113.288 15.672H113.865V16.3804H113.201C112.717 16.3804 112.335 16.2259 112.055 15.9169C111.775 16.2259 111.394 16.3804 110.91 16.3804H110.245V15.672H110.822C111.394 15.672 111.679 15.3805 111.679 14.7975V12.9873L112.431 12.5851V14.7975C112.431 15.3805 112.717 15.672 113.288 15.672ZM112.003 17.2549C112.283 17.2549 112.423 17.3977 112.423 17.6834C112.423 17.9749 112.283 18.1206 112.003 18.1206C111.717 18.1206 111.574 17.9749 111.574 17.6834C111.574 17.3977 111.717 17.2549 112.003 17.2549ZM113.336 16.3804V15.672H114.535C115.718 15.672 116.654 15.2814 117.342 14.5002C116.858 13.6082 116.269 13.1622 115.575 13.1622C115.103 13.1622 114.616 13.4129 114.115 13.9143V13.2147C114.604 12.7192 115.123 12.4714 115.671 12.4714C116.12 12.4714 116.555 12.6346 116.974 12.9611C117.394 13.2817 117.764 13.7423 118.085 14.3428V14.7276C117.228 15.8294 116.042 16.3804 114.526 16.3804H113.336ZM122.876 16.3804C122.369 16.3804 121.978 16.2171 121.704 15.8907C121.471 15.6108 121.354 15.2552 121.354 14.8238V11.1422L122.107 10.7399V14.7975C122.107 15.3805 122.392 15.672 122.964 15.672H123.541V16.3804H122.876ZM124.674 11.5269C124.388 11.5269 124.245 11.3812 124.245 11.0897C124.245 10.804 124.388 10.6612 124.674 10.6612C124.954 10.6612 125.094 10.804 125.094 11.0897C125.094 11.3812 124.954 11.5269 124.674 11.5269ZM126.056 15.672H126.633V16.3804H125.968C125.484 16.3804 125.102 16.2259 124.822 15.9169C124.543 16.2259 124.161 16.3804 123.677 16.3804H123.012V15.672H123.589C124.161 15.672 124.446 15.3805 124.446 14.7975V12.9873L125.199 12.5851V14.7975C125.199 15.3805 125.484 15.672 126.056 15.672ZM129.147 15.672H129.724V16.3804H129.06C128.576 16.3804 128.194 16.2259 127.914 15.9169C127.634 16.2259 127.252 16.3804 126.768 16.3804H126.104V15.672H126.681C127.252 15.672 127.538 15.3805 127.538 14.7975V12.9873L128.29 12.5851V14.7975C128.29 15.3805 128.576 15.672 129.147 15.672ZM127.057 17.2549C127.337 17.2549 127.477 17.4006 127.477 17.6921C127.477 17.9778 127.337 18.1206 127.057 18.1206C126.771 18.1206 126.628 17.9778 126.628 17.6921C126.628 17.4006 126.771 17.2549 127.057 17.2549ZM128.168 17.2549C128.447 17.2549 128.587 17.4006 128.587 17.6921C128.587 17.9778 128.447 18.1206 128.168 18.1206C127.882 18.1206 127.739 17.9778 127.739 17.6921C127.739 17.4006 127.882 17.2549 128.168 17.2549ZM130.629 14.0105C130.629 13.5033 130.781 13.1098 131.084 12.8299C131.352 12.5909 131.702 12.4714 132.134 12.4714C132.687 12.4714 133.113 12.6754 133.41 13.0835C133.667 13.4275 133.795 13.8764 133.795 14.4302C133.795 15.0599 133.632 15.5525 133.305 15.9081C133.02 16.223 132.647 16.3804 132.186 16.3804C131.661 16.3804 131.262 16.2346 130.988 15.9431C130.708 16.2346 130.332 16.3804 129.86 16.3804H129.195V15.672H129.772C130.344 15.672 130.629 15.3805 130.629 14.7975V14.0105ZM131.381 14.8588C131.381 15.4009 131.647 15.672 132.177 15.672C132.451 15.672 132.664 15.5613 132.816 15.3397C132.973 15.1182 133.052 14.8092 133.052 14.4128C133.052 14.0222 132.97 13.719 132.807 13.5033C132.644 13.2817 132.419 13.171 132.134 13.171C131.632 13.171 131.381 13.4625 131.381 14.0455V14.8588Z" fill="#7179CE"/>
<path d="M99.5851 30.6152V26.4636H102.025V26.8768H100.07V28.2541H101.717V28.6673H100.07V30.6152H99.5851ZM103.335 26.3849V30.6152H102.895V26.621L103.335 26.3849ZM106.756 27.6376V30.6152H106.415L106.376 30.2742L106.356 30.2807C106.089 30.5562 105.766 30.6939 105.385 30.6939C105.066 30.6939 104.815 30.5824 104.631 30.3594C104.447 30.1321 104.356 29.8194 104.356 29.4216V27.6376H104.795V29.3428C104.795 29.9856 105.036 30.307 105.517 30.307C105.665 30.307 105.814 30.2698 105.962 30.1955C106.116 30.1211 106.236 30.025 106.323 29.9069V27.6376H106.756ZM108.438 27.9983L108.432 29.861C108.432 30.1802 108.561 30.3398 108.819 30.3398C108.963 30.3398 109.105 30.3026 109.245 30.2283L109.402 30.4709C109.188 30.6196 108.963 30.6939 108.727 30.6939C108.495 30.6939 108.316 30.6218 108.189 30.4775C108.062 30.3332 107.999 30.1321 107.999 29.8741V27.9983H107.546V27.6376H108.005V26.9883L108.438 26.7653V27.6376H109.35V27.9983H108.438ZM110.846 27.9983L110.84 29.861C110.84 30.1802 110.969 30.3398 111.227 30.3398C111.371 30.3398 111.513 30.3026 111.653 30.2283L111.811 30.4709C111.596 30.6196 111.371 30.6939 111.135 30.6939C110.903 30.6939 110.724 30.6218 110.597 30.4775C110.47 30.3332 110.407 30.1321 110.407 29.8741V27.9983H109.954V27.6376H110.414V26.9883L110.846 26.7653V27.6376H111.758V27.9983H110.846ZM114.955 29.2773H112.83C112.847 29.5964 112.957 29.8522 113.158 30.0446C113.363 30.237 113.628 30.3332 113.951 30.3332C114.223 30.3332 114.487 30.2523 114.745 30.0905L114.896 30.3529C114.607 30.5803 114.26 30.6939 113.853 30.6939C113.381 30.6939 113.005 30.5387 112.725 30.2283C112.467 29.9484 112.338 29.5855 112.338 29.1395C112.338 28.676 112.476 28.2891 112.751 27.9786C113 27.6988 113.309 27.5589 113.676 27.5589C114.118 27.5589 114.454 27.7381 114.686 28.0967C114.865 28.3765 114.955 28.722 114.955 29.133V29.2773ZM112.823 28.9231H114.502C114.489 28.6039 114.411 28.3547 114.266 28.1754C114.126 27.9961 113.932 27.9065 113.683 27.9065C113.446 27.9065 113.247 28.0005 113.086 28.1885C112.928 28.3765 112.841 28.6214 112.823 28.9231ZM117.723 27.8934L117.363 28.1426C117.214 28.0114 117.054 27.9458 116.884 27.9458C116.635 27.9458 116.414 28.0748 116.222 28.3328V30.6152H115.782V27.6376H116.156L116.195 27.9524H116.208C116.466 27.6901 116.731 27.5589 117.002 27.5589C117.321 27.5589 117.562 27.6704 117.723 27.8934ZM120.864 30.3004C120.864 31.0962 120.571 31.5947 119.985 31.7958C119.845 31.8439 119.697 31.8679 119.539 31.8679C119.286 31.8679 119.041 31.8067 118.805 31.6843V31.2973C119.028 31.4198 119.255 31.481 119.487 31.481C119.67 31.481 119.832 31.4394 119.972 31.3564C120.278 31.1727 120.431 30.8295 120.431 30.3267V28.0377L120.864 27.8081V30.3004ZM124.921 30.2086V30.6152H124.226C124.221 30.9038 124.127 31.1574 123.944 31.376C123.764 31.599 123.53 31.7455 123.242 31.8155C123.137 31.8461 123.023 31.8614 122.901 31.8614C122.647 31.8614 122.4 31.8002 122.16 31.6777V31.2908C122.387 31.4132 122.612 31.4744 122.835 31.4744C123.014 31.4744 123.172 31.4351 123.307 31.3564C123.443 31.2864 123.557 31.1793 123.649 31.035C123.74 30.8951 123.786 30.7552 123.786 30.6152L123.229 30.5956C122.743 30.5737 122.38 30.4207 122.14 30.1364C121.943 29.896 121.845 29.5746 121.845 29.1723C121.845 28.7001 121.967 28.335 122.212 28.077C122.431 27.8453 122.724 27.7294 123.091 27.7294C123.471 27.7294 123.762 27.8431 123.963 28.0705C124.138 28.2672 124.226 28.5296 124.226 28.8575V30.2086H124.921ZM123.786 28.9034C123.786 28.3875 123.554 28.1295 123.091 28.1295C122.833 28.1295 122.632 28.2213 122.488 28.405C122.348 28.5842 122.278 28.8378 122.278 29.1658C122.278 29.8173 122.599 30.1583 123.242 30.1889C123.434 30.202 123.616 30.2086 123.786 30.2086V28.9034ZM130.821 30.2086V30.6152H130.539C130.171 30.6152 129.887 30.4972 129.686 30.2611C129.529 30.4972 129.275 30.6152 128.925 30.6152H124.787V30.2086H125.895V26.6144L126.302 26.3849V29.1395C126.813 28.1994 127.491 27.7294 128.335 27.7294C128.825 27.7294 129.214 27.8977 129.503 28.2344C129.747 28.523 129.87 28.8794 129.87 29.3035V29.474C129.87 29.9637 130.112 30.2086 130.598 30.2086H130.821ZM129.43 29.3035C129.43 28.9362 129.314 28.6411 129.083 28.4181C128.886 28.2257 128.639 28.1295 128.342 28.1295C127.83 28.1295 127.375 28.3765 126.977 28.8706C126.676 29.2423 126.453 29.6883 126.308 30.2086H128.879C129.089 30.2086 129.234 30.1605 129.312 30.0643C129.391 29.9637 129.43 29.7823 129.43 29.5199V29.3035ZM131.643 28.8575C131.643 28.4858 131.755 28.1973 131.978 27.9918C132.17 27.8169 132.424 27.7294 132.739 27.7294C133.145 27.7294 133.458 27.8781 133.676 28.1754C133.864 28.429 133.958 28.7613 133.958 29.1723C133.958 29.6402 133.838 30.0053 133.598 30.2676C133.388 30.4994 133.115 30.6152 132.778 30.6152C132.367 30.6152 132.061 30.4841 131.86 30.2217C131.663 30.4841 131.368 30.6152 130.974 30.6152H130.692V30.2086H130.922C131.403 30.2086 131.643 29.9594 131.643 29.4609V28.8575ZM132.083 29.4871C132.083 29.9681 132.319 30.2086 132.791 30.2086C133.018 30.2086 133.198 30.1168 133.329 29.9331C133.46 29.7495 133.526 29.4937 133.526 29.1658C133.526 28.8422 133.456 28.5886 133.316 28.405C133.18 28.2213 132.988 28.1295 132.739 28.1295C132.301 28.1295 132.083 28.3853 132.083 28.8969V29.4871Z" fill="#1B3DBC"/>
<circle cx="158.138" cy="21.4979" r="14.9393" fill="#D9D9D9"/>
</svg>
