<svg width="206" height="49" viewBox="0 0 206 49" fill="none" xmlns="http://www.w3.org/2000/svg">
<rect x="0.415254" y="0.415254" width="204.305" height="48.1695" rx="6.22881" fill="white"/>
<rect x="0.415254" y="0.415254" width="204.305" height="48.1695" rx="6.22881" stroke="#CEDFFF" stroke-width="0.830508"/>
<path d="M14.1389 10.7663C14.2632 10.3837 14.8045 10.3837 14.9288 10.7663L15.9323 13.8548C15.9879 14.0259 16.1473 14.1417 16.3272 14.1417H19.5747C19.977 14.1417 20.1442 14.6565 19.8188 14.8929L17.1915 16.8017C17.046 16.9075 16.9851 17.0949 17.0407 17.266L18.0442 20.3545C18.1685 20.7371 17.7306 21.0553 17.4052 20.8188L14.7779 18.91C14.6324 18.8043 14.4353 18.8042 14.2898 18.91L11.6625 20.8188C11.3371 21.0553 10.8992 20.7371 11.0235 20.3545L12.027 17.266C12.0826 17.0949 12.0217 16.9075 11.8762 16.8017L9.2489 14.8929C8.92346 14.6565 9.09071 14.1417 9.49298 14.1417H12.7405C12.9204 14.1417 13.0798 14.0259 13.1354 13.8548L14.1389 10.7663Z" fill="#FED26C"/>
<path d="M30.749 10.7663C30.8733 10.3837 31.4146 10.3837 31.5389 10.7663L32.5424 13.8548C32.598 14.0259 32.7574 14.1417 32.9373 14.1417H36.1848C36.5871 14.1417 36.7543 14.6565 36.4289 14.8929L33.8016 16.8017C33.6561 16.9075 33.5952 17.0949 33.6508 17.266L34.6543 20.3545C34.7786 20.7371 34.3407 21.0553 34.0153 20.8188L31.388 18.91C31.2425 18.8043 31.0454 18.8042 30.8999 18.91L28.2726 20.8188C27.9472 21.0553 27.5093 20.7371 27.6336 20.3545L28.6371 17.266C28.6927 17.0949 28.6318 16.9075 28.4863 16.8017L25.859 14.8929C25.5336 14.6565 25.7008 14.1417 26.1031 14.1417H29.3506C29.5305 14.1417 29.6899 14.0259 29.7455 13.8548L30.749 10.7663Z" fill="#FED26C"/>
<path d="M47.3592 10.7663C47.4836 10.3837 48.0248 10.3837 48.1491 10.7663L49.1526 13.8548C49.2082 14.0259 49.3677 14.1417 49.5476 14.1417H52.795C53.1973 14.1417 53.3646 14.6565 53.0391 14.8929L50.4119 16.8017C50.2663 16.9075 50.2054 17.0949 50.261 17.266L51.2645 20.3545C51.3888 20.7371 50.951 21.0553 50.6255 20.8188L47.9983 18.91C47.8527 18.8043 47.6556 18.8042 47.5101 18.91L44.8828 20.8188C44.5574 21.0553 44.1195 20.7371 44.2438 20.3545L45.2473 17.266C45.3029 17.0949 45.242 16.9075 45.0965 16.8017L42.4692 14.8929C42.1438 14.6565 42.311 14.1417 42.7133 14.1417H45.9608C46.1407 14.1417 46.3001 14.0259 46.3557 13.8548L47.3592 10.7663Z" fill="#FED26C"/>
<path d="M63.9694 10.7663C64.0937 10.3837 64.6349 10.3837 64.7592 10.7663L65.7627 13.8548C65.8183 14.0259 65.9778 14.1417 66.1577 14.1417H69.4051C69.8074 14.1417 69.9747 14.6565 69.6492 14.8929L67.022 16.8017C66.8764 16.9075 66.8155 17.0949 66.8711 17.266L67.8746 20.3545C67.9989 20.7371 67.5611 21.0553 67.2356 20.8188L64.6084 18.91C64.4628 18.8043 64.2657 18.8042 64.1202 18.91L61.4929 20.8188C61.1675 21.0553 60.7296 20.7371 60.8539 20.3545L61.8575 17.266C61.913 17.0949 61.8521 16.9075 61.7066 16.8017L59.0793 14.8929C58.7539 14.6565 58.9212 14.1417 59.3234 14.1417H62.5709C62.7508 14.1417 62.9102 14.0259 62.9658 13.8548L63.9694 10.7663Z" fill="#FED26C"/>
<path d="M80.5796 10.7663C80.7039 10.3837 81.2451 10.3837 81.3694 10.7663L82.373 13.8548C82.4286 14.0259 82.588 14.1417 82.7679 14.1417H86.0154C86.4176 14.1417 86.5849 14.6565 86.2595 14.8929L83.6322 16.8017C83.4867 16.9075 83.4257 17.0949 83.4813 17.266L84.4849 20.3545C84.6092 20.7371 84.1713 21.0553 83.8459 20.8188L81.2186 18.91C81.0731 18.8043 80.876 18.8042 80.7304 18.91L78.1032 20.8188C77.7777 21.0553 77.3398 20.7371 77.4642 20.3545L78.4677 17.266C78.5233 17.0949 78.4624 16.9075 78.3168 16.8017L75.6896 14.8929C75.3641 14.6565 75.5314 14.1417 75.9336 14.1417H79.1811C79.361 14.1417 79.5205 14.0259 79.5761 13.8548L80.5796 10.7663Z" fill="#D9D9D9"/>
<path d="M8.37286 36.4492V35.7379L10.2601 33.8878C10.4406 33.7055 10.591 33.5436 10.7113 33.4021C10.8316 33.2605 10.9219 33.1234 10.9821 32.9906C11.0422 32.8579 11.0723 32.7164 11.0723 32.5659C11.0723 32.3943 11.0334 32.2474 10.9555 32.1253C10.8777 32.0015 10.7706 31.9059 10.6343 31.8387C10.4981 31.7714 10.3433 31.7378 10.1698 31.7378C9.99111 31.7378 9.83451 31.775 9.70002 31.8493C9.56553 31.9218 9.46113 32.0253 9.38681 32.1598C9.31426 32.2943 9.27798 32.4545 9.27798 32.6403H8.34101C8.34101 32.2952 8.41975 31.9953 8.57724 31.7404C8.73473 31.4856 8.9515 31.2883 9.22755 31.1485C9.50537 31.0087 9.82389 30.9388 10.1831 30.9388C10.5476 30.9388 10.8679 31.007 11.144 31.1432C11.42 31.2795 11.6341 31.4662 11.7863 31.7033C11.9403 31.9404 12.0172 32.2111 12.0172 32.5155C12.0172 32.719 11.9783 32.919 11.9005 33.1154C11.8226 33.3118 11.6855 33.5295 11.489 33.7684C11.2944 34.0072 11.021 34.2966 10.6688 34.6363L9.73187 35.5892V35.6264H12.0995V36.4492H8.37286ZM15.0246 36.5527C14.5875 36.5527 14.2124 36.4421 13.8992 36.2209C13.5877 35.998 13.3479 35.6768 13.1798 35.2574C13.0135 34.8363 12.9303 34.3293 12.9303 33.7365C12.9321 33.1437 13.0162 32.6394 13.1825 32.2235C13.3506 31.8059 13.5904 31.4874 13.9018 31.268C14.215 31.0486 14.5893 30.9388 15.0246 30.9388C15.4599 30.9388 15.8342 31.0486 16.1474 31.268C16.4606 31.4874 16.7004 31.8059 16.8667 32.2235C17.0348 32.6411 17.1189 33.1455 17.1189 33.7365C17.1189 34.3311 17.0348 34.8389 16.8667 35.2601C16.7004 35.6795 16.4606 35.9998 16.1474 36.2209C15.8359 36.4421 15.4617 36.5527 15.0246 36.5527ZM15.0246 35.7219C15.3643 35.7219 15.6324 35.5547 15.8289 35.2203C16.027 34.8841 16.1261 34.3895 16.1261 33.7365C16.1261 33.3047 16.081 32.942 15.9908 32.6482C15.9005 32.3545 15.7731 32.1333 15.6085 31.9846C15.444 31.8342 15.2493 31.759 15.0246 31.759C14.6866 31.759 14.4194 31.9271 14.223 32.2633C14.0266 32.5978 13.9275 33.0888 13.9257 33.7365C13.9239 34.17 13.9673 34.5346 14.0558 34.8301C14.146 35.1256 14.2734 35.3486 14.438 35.499C14.6026 35.6476 14.7981 35.7219 15.0246 35.7219ZM19.7526 37.1287V30.3337H20.1879V37.1287H19.7526ZM21.0081 32.5075C20.9833 32.2757 20.8789 32.0952 20.6949 31.9661C20.5126 31.8369 20.2755 31.7723 19.9835 31.7723C19.7783 31.7723 19.6022 31.8033 19.4553 31.8652C19.3085 31.9271 19.1961 32.0112 19.1182 32.1174C19.0404 32.2235 19.0005 32.3447 18.9988 32.481C18.9988 32.5943 19.0244 32.6925 19.0758 32.7756C19.1288 32.8588 19.2005 32.9296 19.2908 32.988C19.381 33.0446 19.481 33.0924 19.5907 33.1313C19.7004 33.1702 19.811 33.203 19.9225 33.2295L20.4321 33.3569C20.6374 33.4047 20.8347 33.4693 21.024 33.5507C21.2151 33.6321 21.3859 33.7347 21.5363 33.8586C21.6885 33.9825 21.8088 34.132 21.8973 34.3072C21.9858 34.4824 22.03 34.6876 22.03 34.923C22.03 35.2415 21.9486 35.522 21.7858 35.7644C21.623 36.0051 21.3877 36.1935 21.0798 36.3298C20.7736 36.4643 20.4029 36.5315 19.9676 36.5315C19.5447 36.5315 19.1775 36.466 18.8661 36.3351C18.5564 36.2041 18.314 36.013 18.1388 35.7617C17.9654 35.5105 17.8716 35.2043 17.8574 34.8434H18.8262C18.8404 35.0327 18.8988 35.1902 19.0014 35.3158C19.1041 35.4415 19.2377 35.5352 19.4022 35.5972C19.5686 35.6591 19.7544 35.6901 19.9596 35.6901C20.1738 35.6901 20.3613 35.6582 20.5224 35.5945C20.6852 35.5291 20.8126 35.4388 20.9046 35.3238C20.9966 35.207 21.0435 35.0707 21.0453 34.915C21.0435 34.7735 21.0019 34.6567 20.9205 34.5646C20.8391 34.4709 20.725 34.393 20.5781 34.3311C20.433 34.2674 20.2631 34.2107 20.0685 34.1612L19.45 34.0019C19.0023 33.8869 18.6484 33.7126 18.3883 33.479C18.1299 33.2437 18.0008 32.9314 18.0008 32.5421C18.0008 32.2218 18.0875 31.9413 18.2609 31.7006C18.4361 31.46 18.6741 31.2733 18.9749 31.1406C19.2757 31.0061 19.6164 30.9388 19.9968 30.9388C20.3826 30.9388 20.7206 31.0061 21.0108 31.1406C21.3027 31.2733 21.5319 31.4582 21.6982 31.6953C21.8646 31.9307 21.9504 32.2014 21.9557 32.5075H21.0081ZM25.0845 30.7583L23.3326 37.2668H22.4912L24.2431 30.7583H25.0845ZM26.6585 34.0603V36.4492H25.6976V31.0132H26.6373V33.065H26.685C26.7806 32.8349 26.9284 32.6535 27.1283 32.5208C27.33 32.3863 27.5866 32.3191 27.8981 32.3191C28.1812 32.3191 28.428 32.3784 28.6386 32.4969C28.8492 32.6155 29.012 32.7889 29.127 33.0172C29.2438 33.2454 29.3022 33.5242 29.3022 33.8533V36.4492H28.3413V34.0019C28.3413 33.7277 28.2706 33.5144 28.129 33.3622C27.9892 33.2083 27.7928 33.1313 27.5397 33.1313C27.3699 33.1313 27.2177 33.1685 27.0832 33.2428C26.9505 33.3153 26.8461 33.4206 26.77 33.5587C26.6957 33.6967 26.6585 33.8639 26.6585 34.0603Z" fill="#1B3DBC"/>
<path d="M106.145 8.42522V9.83044L105.656 10.0896V8.68434L106.145 8.42522ZM105.906 11.7639C105.779 11.8569 105.63 11.9034 105.457 11.9034C105.258 11.9034 105.092 11.8436 104.959 11.724C104.833 11.6044 104.769 11.4516 104.769 11.2656V10.9566L105.258 10.6875V11.2357C105.258 11.3685 105.324 11.435 105.457 11.435C105.59 11.435 105.656 11.3785 105.656 11.2656V10.8271L106.145 10.558V11.2656C106.145 11.3785 106.215 11.435 106.354 11.435C106.487 11.435 106.553 11.3685 106.553 11.2357V10.7274L107.032 10.4583V11.2656C107.032 11.4516 106.969 11.6044 106.842 11.724C106.716 11.8436 106.553 11.9034 106.354 11.9034C106.181 11.9034 106.032 11.8569 105.906 11.7639ZM110.909 12.5811L111.766 12.1226V18.5508H110.909V12.5811ZM108.846 16.6572V13.2388L109.703 12.7804V16.6672C109.703 17.2652 109.527 17.7336 109.175 18.0724C108.849 18.3913 108.414 18.5508 107.869 18.5508H107.181C106.617 18.5508 106.171 18.3681 105.846 18.0026C105.52 18.3681 105.065 18.5508 104.48 18.5508H103.783C103.118 18.5508 102.637 18.3149 102.338 17.8432C102.006 18.1621 101.6 18.3216 101.122 18.3216C100.537 18.3216 100.072 18.1023 99.7266 17.6638C99.4409 17.2917 99.2981 16.8366 99.2981 16.2984C99.2981 15.654 99.4941 15.1324 99.8861 14.7338C100.218 14.3949 100.624 14.2255 101.102 14.2255C101.467 14.2255 101.783 14.3218 102.049 14.5145V14.086L102.916 13.6275V16.7469C102.916 17.4113 103.238 17.7435 103.883 17.7435H104.411C105.102 17.7435 105.447 17.3814 105.447 16.6572V13.2388L106.304 12.7804V16.7469C106.304 17.4113 106.63 17.7435 107.281 17.7435H107.799C108.497 17.7435 108.846 17.3814 108.846 16.6572ZM102.049 15.4314C101.796 15.159 101.494 15.0228 101.142 15.0228C100.849 15.0228 100.61 15.1424 100.424 15.3816C100.238 15.6207 100.145 15.9297 100.145 16.3084C100.145 16.6938 100.238 17.0027 100.424 17.2353C100.61 17.4678 100.853 17.5841 101.152 17.5841C101.524 17.5841 101.829 17.4279 102.069 17.1157C102.055 16.9695 102.049 16.8565 102.049 16.7768V15.4314ZM112.763 18.5508L113.182 17.7435H114.956C115.222 17.7435 115.408 17.6771 115.514 17.5442C115.627 17.4113 115.683 17.1821 115.683 16.8565C115.683 15.9729 115.275 15.3085 114.457 14.8633L114.896 14.1258C115.939 14.7371 116.484 15.5809 116.53 16.6572C116.544 17.0426 116.63 17.3216 116.79 17.4944C116.956 17.6605 117.218 17.7435 117.577 17.7435H118.165V18.5508H117.507C116.956 18.5508 116.524 18.3747 116.212 18.0226C115.992 18.3747 115.624 18.5508 115.105 18.5508H112.763ZM121.04 17.7435H121.697V18.5508H120.94C120.389 18.5508 119.953 18.3747 119.634 18.0226C119.316 18.3747 118.88 18.5508 118.329 18.5508H117.571V17.7435H118.229C118.88 17.7435 119.206 17.4113 119.206 16.7469V14.6839L120.063 14.2255V16.7469C120.063 17.4113 120.389 17.7435 121.04 17.7435ZM119.575 19.5474C119.894 19.5474 120.053 19.7102 120.053 20.0357C120.053 20.3679 119.894 20.534 119.575 20.534C119.249 20.534 119.086 20.3679 119.086 20.0357C119.086 19.7102 119.249 19.5474 119.575 19.5474ZM126.466 17.7435V18.5508H121.095V17.7435H122.819C122.493 17.325 122.33 16.81 122.33 16.1988C122.33 15.5211 122.563 14.9829 123.028 14.5843C123.407 14.2654 123.845 14.1026 124.344 14.0959C125.048 14.0959 125.596 14.3783 125.988 14.9431V15.7503C125.563 15.1789 125.048 14.8932 124.443 14.8932C124.065 14.8932 123.759 15.0161 123.526 15.262C123.3 15.5012 123.188 15.8234 123.188 16.2287C123.188 16.6871 123.324 17.0559 123.596 17.3349C123.875 17.6073 124.244 17.7435 124.702 17.7435H126.466ZM129.386 18.5508L129.805 17.7435H131.579C131.845 17.7435 132.031 17.6771 132.137 17.5442C132.25 17.4113 132.306 17.1821 132.306 16.8565C132.306 15.9729 131.898 15.3085 131.081 14.8633L131.519 14.1258C132.562 14.7371 133.107 15.5809 133.154 16.6572C133.167 17.0426 133.253 17.3216 133.413 17.4944C133.579 17.6605 133.841 17.7435 134.2 17.7435H134.788V18.5508H134.13C133.579 18.5508 133.147 18.3747 132.835 18.0226C132.615 18.3747 132.247 18.5508 131.728 18.5508H129.386ZM140.613 17.7435H141.281V18.5508H140.523C139.972 18.5508 139.536 18.3747 139.218 18.0226C138.879 18.5076 138.384 18.7501 137.733 18.7501C137.081 18.7501 136.59 18.5109 136.258 18.0325C135.945 18.378 135.51 18.5508 134.952 18.5508H134.195V17.7435H134.852C135.504 17.7435 135.829 17.4113 135.829 16.7469V16.418C135.829 15.6473 136.018 15.056 136.397 14.6441C136.729 14.2786 137.175 14.0959 137.733 14.0959C138.37 14.0959 138.862 14.3318 139.208 14.8035C139.5 15.2088 139.646 15.747 139.646 16.418V16.7469C139.646 17.4113 139.968 17.7435 140.613 17.7435ZM137.733 17.9428C138.058 17.9428 138.314 17.8066 138.5 17.5342C138.693 17.2618 138.789 16.8864 138.789 16.4081C138.789 15.3982 138.437 14.8932 137.733 14.8932C137.035 14.8932 136.686 15.3982 136.686 16.4081C136.686 17.4313 137.035 17.9428 137.733 17.9428ZM147.184 17.7435H147.832V18.5508H147.174C146.636 18.5508 146.204 18.491 145.879 18.3714C145.553 18.2452 145.251 18.0259 144.972 17.7136C144.135 18.2717 143.158 18.5508 142.042 18.5508H140.686V17.7435H142.052C143.4 17.7435 144.467 17.2984 145.251 16.4081C144.699 15.3915 144.028 14.8833 143.238 14.8833C142.699 14.8833 142.145 15.169 141.573 15.7403V14.9431C142.131 14.3783 142.723 14.0959 143.347 14.0959C143.859 14.0959 144.354 14.282 144.832 14.654C145.311 15.0195 145.732 15.5443 146.098 16.2287V16.6672C145.892 16.9263 145.696 17.1356 145.51 17.2951C145.869 17.594 146.427 17.7435 147.184 17.7435ZM148.871 15.85C148.871 15.2719 149.043 14.8235 149.389 14.5045C149.695 14.2321 150.093 14.0959 150.585 14.0959C151.216 14.0959 151.701 14.3285 152.04 14.7936C152.332 15.1856 152.478 15.6972 152.478 16.3283C152.478 17.0459 152.292 17.6073 151.92 18.0126C151.595 18.3714 151.17 18.5508 150.645 18.5508C150.047 18.5508 149.592 18.3847 149.279 18.0525C148.96 18.3847 148.532 18.5508 147.994 18.5508H147.236V17.7435H147.894C148.545 17.7435 148.871 17.4113 148.871 16.7469V15.85ZM149.728 16.8167C149.728 17.4346 150.03 17.7435 150.635 17.7435C150.947 17.7435 151.189 17.6173 151.362 17.3648C151.542 17.1123 151.631 16.7602 151.631 16.3084C151.631 15.8633 151.538 15.5178 151.352 15.2719C151.166 15.0195 150.91 14.8932 150.585 14.8932C150.013 14.8932 149.728 15.2254 149.728 15.8898V16.8167Z" fill="#7179CE"/>
<path d="M114.282 34.9858H114.536V35.4492H114.214C113.766 35.4492 113.43 35.2972 113.205 34.9933C112.981 35.2972 112.642 35.4492 112.189 35.4492H109.52C109.152 35.4492 108.858 35.3346 108.638 35.1054C108.419 34.8712 108.309 34.5573 108.309 34.1636V33.1844L108.81 32.9228V34.1038C108.81 34.6918 109.084 34.9858 109.632 34.9858H112.136C112.68 34.9858 112.951 34.6918 112.951 34.1038V30.8897L113.452 30.6281V34.1337C113.452 34.7018 113.729 34.9858 114.282 34.9858ZM110.851 31.8838C111.055 31.8838 111.217 31.9387 111.337 32.0483C111.456 32.1579 111.516 32.3049 111.516 32.4893C111.516 32.6537 111.466 32.7858 111.367 32.8854C111.272 32.9801 111.145 33.0275 110.985 33.0275H110.058L110.201 32.7658H110.963C111.152 32.7658 111.247 32.6712 111.247 32.4818C111.247 32.2526 111.102 32.138 110.813 32.138C110.664 32.138 110.537 32.1679 110.432 32.2277V31.9735L111.045 31.2859H111.359L110.843 31.8838H110.851ZM116.794 34.9858H117.055V35.4492H116.734C116.285 35.4492 115.949 35.2972 115.725 34.9933C115.491 35.2972 115.152 35.4492 114.708 35.4492H114.387V34.9858H114.649C115.197 34.9858 115.471 34.7018 115.471 34.1337V32.5117L115.972 32.2501V34.1337C115.972 34.7018 116.246 34.9858 116.794 34.9858ZM115.097 36.234C115.296 36.234 115.396 36.3362 115.396 36.5405C115.396 36.7448 115.296 36.847 115.097 36.847C114.898 36.847 114.798 36.7448 114.798 36.5405C114.798 36.3362 114.898 36.234 115.097 36.234ZM115.949 36.234C116.148 36.234 116.248 36.3362 116.248 36.5405C116.248 36.7448 116.148 36.847 115.949 36.847C115.75 36.847 115.65 36.7448 115.65 36.5405C115.65 36.3362 115.75 36.234 115.949 36.234ZM119.177 31.2784C118.973 31.2784 118.871 31.1738 118.871 30.9645C118.871 30.7652 118.973 30.6655 119.177 30.6655C119.372 30.6655 119.469 30.7652 119.469 30.9645C119.469 31.1738 119.372 31.2784 119.177 31.2784ZM116.905 35.4492V34.9858H118.176C117.902 34.7117 117.765 34.3181 117.765 33.8048C117.765 33.2666 117.904 32.8506 118.183 32.5566C118.428 32.2925 118.751 32.1604 119.155 32.1604C119.569 32.1604 119.888 32.29 120.112 32.5491C120.306 32.7733 120.403 33.0723 120.403 33.446V34.1711C120.398 34.5747 120.276 34.8911 120.037 35.1203C119.818 35.3396 119.519 35.4492 119.14 35.4492H116.905ZM119.91 33.4909C119.91 32.9079 119.658 32.6164 119.155 32.6164C118.876 32.6164 118.657 32.721 118.497 32.9303C118.343 33.1346 118.266 33.4236 118.266 33.7973C118.266 34.1611 118.34 34.4501 118.49 34.6644C118.644 34.8787 118.849 34.9858 119.103 34.9858C119.641 34.9858 119.91 34.7067 119.91 34.1486V33.4909ZM121.675 35.4492V30.8897L122.175 30.6281V35.4492H121.675ZM125.819 34.9858H126.081V35.4492H125.759C125.451 35.4492 125.194 35.3745 124.99 35.225C124.95 36.0522 124.616 36.5754 123.988 36.7946C123.829 36.8495 123.659 36.8769 123.48 36.8769C123.191 36.8769 122.912 36.8071 122.643 36.6676V36.2266C122.897 36.3661 123.156 36.4359 123.42 36.4359C123.629 36.4359 123.814 36.3885 123.973 36.2938C124.322 36.0846 124.496 35.6934 124.496 35.1203V32.5117L124.99 32.2501V32.2576L124.997 32.2501V34.1337C124.997 34.7018 125.271 34.9858 125.819 34.9858ZM125.935 35.4492V34.9858H126.772C127.858 34.9858 128.705 34.617 129.313 33.8796C128.87 33.0324 128.334 32.6089 127.706 32.6089C127.277 32.6089 126.859 32.8256 126.45 33.2592V32.7658C126.859 32.3622 127.285 32.1604 127.728 32.1604H127.743C128.526 32.1604 129.203 32.6886 129.776 33.745V34.0515C129.049 34.9833 128.045 35.4492 126.764 35.4492H125.935ZM127.908 36.847C127.704 36.847 127.601 36.7423 127.601 36.533C127.601 36.3337 127.704 36.234 127.908 36.234C128.102 36.234 128.199 36.3337 128.199 36.533C128.199 36.7423 128.102 36.847 127.908 36.847ZM136.451 34.9858H136.705V35.4492H136.384C135.94 35.4492 135.606 35.2997 135.382 35.0007C135.153 35.2947 134.814 35.4442 134.365 35.4492H133.416C132.868 35.4492 132.594 35.7333 132.594 36.3013V37.5421L132.093 37.8037V36.2864C132.093 35.8728 132.215 35.5489 132.459 35.3147C132.679 35.1004 132.97 34.9908 133.334 34.9858C133.1 34.6868 132.983 34.2932 132.983 33.8048C132.983 33.2666 133.122 32.8506 133.401 32.5566C133.645 32.2925 133.969 32.1604 134.373 32.1604C134.787 32.1604 135.105 32.29 135.33 32.5491C135.524 32.7733 135.621 33.0723 135.621 33.446V34.1337C135.621 34.7018 135.898 34.9858 136.451 34.9858ZM135.12 34.1636V33.4909C135.12 32.9079 134.871 32.6164 134.373 32.6164C134.089 32.6164 133.867 32.721 133.708 32.9303C133.553 33.1396 133.476 33.4286 133.476 33.7973C133.476 34.1711 133.551 34.4626 133.7 34.6719C133.85 34.8812 134.057 34.9858 134.321 34.9858C134.854 34.9858 135.12 34.7117 135.12 34.1636ZM141.257 34.9858H141.511V35.4492H141.189C140.736 35.4492 140.397 35.2923 140.173 34.9783C139.924 35.3919 139.545 35.5987 139.037 35.5987C138.523 35.5987 138.145 35.3944 137.901 34.9858C137.671 35.2947 137.33 35.4492 136.877 35.4492H136.555V34.9858H136.817C137.365 34.9858 137.639 34.7018 137.639 34.1337V33.8796C137.639 33.3065 137.779 32.868 138.058 32.564C138.302 32.2949 138.628 32.1604 139.037 32.1604C139.505 32.1604 139.861 32.3348 140.106 32.6836C140.32 32.9826 140.427 33.3813 140.427 33.8796V34.1337C140.427 34.7018 140.704 34.9858 141.257 34.9858ZM139.037 35.1353C139.311 35.1353 139.528 35.0232 139.687 34.7989C139.846 34.5697 139.926 34.2608 139.926 33.8721C139.926 33.0349 139.63 32.6164 139.037 32.6164C138.439 32.6164 138.14 33.0349 138.14 33.8721C138.14 34.7142 138.439 35.1353 139.037 35.1353ZM148.833 34.9858H149.094V35.4492H148.773C148.324 35.4492 147.988 35.2972 147.764 34.9933C147.54 35.2972 147.201 35.4492 146.747 35.4492H143.705C143.257 35.4492 142.92 35.2972 142.696 34.9933C142.462 35.2972 142.123 35.4492 141.68 35.4492H141.358V34.9858H141.62C142.168 34.9858 142.442 34.7018 142.442 34.1337V33.0574L142.943 32.7957V34.1337C142.943 34.6021 143.125 34.8762 143.488 34.9559C143.673 34.1885 143.994 33.5457 144.453 33.0275C144.966 32.4494 145.569 32.1604 146.261 32.1604C146.82 32.1604 147.263 32.3523 147.592 32.7359C147.871 33.0648 148.011 33.4709 148.011 33.9543V34.1486C148.011 34.7067 148.285 34.9858 148.833 34.9858ZM146.71 34.9858C147.243 34.9858 147.51 34.6918 147.51 34.1038V33.9543C147.51 33.5357 147.378 33.1994 147.114 32.9452C146.889 32.726 146.608 32.6164 146.269 32.6164C145.686 32.6164 145.168 32.8904 144.714 33.4386C144.37 33.8571 144.111 34.3729 143.937 34.9858H146.71ZM150.026 33.446C150.026 33.0225 150.153 32.6936 150.407 32.4594C150.627 32.2601 150.916 32.1604 151.274 32.1604C151.738 32.1604 152.094 32.3298 152.343 32.6687C152.557 32.9577 152.665 33.3364 152.665 33.8048C152.665 34.338 152.528 34.7541 152.253 35.0531C152.014 35.3172 151.703 35.4492 151.319 35.4492C150.851 35.4492 150.502 35.2997 150.273 35.0007C150.048 35.2997 149.712 35.4492 149.264 35.4492H148.942V34.9858H149.204C149.752 34.9858 150.026 34.7018 150.026 34.1337V33.446ZM150.527 34.1636C150.527 34.7117 150.796 34.9858 151.334 34.9858C151.593 34.9858 151.798 34.8812 151.947 34.6719C152.097 34.4626 152.171 34.1711 152.171 33.7973C152.171 33.4286 152.092 33.1396 151.932 32.9303C151.778 32.721 151.558 32.6164 151.274 32.6164C150.776 32.6164 150.527 32.9079 150.527 33.4909V34.1636Z" fill="#1B3DBC"/>
<circle cx="180.22" cy="24.5" r="17.0254" fill="#D9D9D9"/>
</svg>
