<svg width="76" height="84" viewBox="0 0 76 84" fill="none" xmlns="http://www.w3.org/2000/svg">
<path fill-rule="evenodd" clip-rule="evenodd" d="M26.2614 4.90743C23.1192 8.04961 21.3539 12.3113 21.3539 16.755C21.3539 21.1987 23.1192 25.4604 26.2614 28.6026C29.4035 31.7448 33.6652 33.51 38.109 33.51C42.5527 33.51 46.8144 31.7448 49.9565 28.6026C53.0987 25.4604 54.864 21.1987 54.864 16.755C54.864 12.3113 53.0987 8.04961 49.9565 4.90743C46.8144 1.76526 42.5527 0 38.109 0C33.6652 0 29.4035 1.76526 26.2614 4.90743ZM6.54445 48.0218C10.4722 44.0941 15.7993 41.8876 21.3539 41.8876H54.864C60.4186 41.8876 65.7457 44.0941 69.6735 48.0218C73.6012 51.9496 75.8077 57.2767 75.8077 62.8313C75.8077 66.1641 74.4838 69.3604 72.1272 71.717C69.8701 73.9741 66.8429 75.2839 63.6632 75.3905V53.5663C63.6632 50.2525 60.9769 47.5663 57.6632 47.5663H19.0607C15.747 47.5663 13.0607 50.2526 13.0607 53.5663V75.3976H12.9764C9.64364 75.3976 6.44736 74.0736 4.09073 71.717C1.7341 69.3604 0.410156 66.1641 0.410156 62.8313C0.410156 57.2767 2.61673 51.9496 6.54445 48.0218Z" fill="#7179CE"/>
<path d="M21.2363 50.0962C20.0159 50.0962 18.8454 50.5833 17.9825 51.4503C17.1195 52.3173 16.6347 53.4933 16.6347 54.7194V73.2123C16.6347 74.4384 17.1195 75.6144 17.9825 76.4814C18.8454 77.3484 20.0159 77.8355 21.2363 77.8355H54.9818C56.2022 77.8355 57.3727 77.3484 58.2357 76.4814C59.0986 75.6144 59.5835 74.4384 59.5835 73.2123V54.7194C59.5835 53.4933 59.0986 52.3173 58.2357 51.4503C57.3727 50.5833 56.2022 50.0962 54.9818 50.0962H21.2363ZM15.1008 80.9177C14.694 80.9177 14.3038 81.08 14.0162 81.369C13.7285 81.658 13.5669 82.05 13.5669 82.4587C13.5669 82.8675 13.7285 83.2594 14.0162 83.5484C14.3038 83.8374 14.694 83.9998 15.1008 83.9998H61.1173C61.5242 83.9998 61.9143 83.8374 62.202 83.5484C62.4896 83.2594 62.6512 82.8675 62.6512 82.4587C62.6512 82.05 62.4896 81.658 62.202 81.369C61.9143 81.08 61.5242 80.9177 61.1173 80.9177H15.1008Z" fill="#7179CE"/>
<circle cx="38.109" cy="65.0243" r="1.77108" fill="#D9D9D9"/>
</svg>
