<svg width="391" height="446" viewBox="0 0 391 446" fill="none" xmlns="http://www.w3.org/2000/svg">
<mask id="mask0_26_647" style="mask-type:luminance" maskUnits="userSpaceOnUse" x="0" y="0" width="390" height="446">
<path d="M389.697 0.89209H0.0791016V445.737H389.697V0.89209Z" fill="white"/>
</mask>
<g mask="url(#mask0_26_647)">
<path d="M369.699 85.0261H320.16C311.017 85.0261 303.605 92.437 303.605 101.579V373.951C303.605 383.092 311.017 390.504 320.16 390.504H369.699C378.843 390.504 386.256 383.092 386.256 373.951V101.579C386.256 92.437 378.843 85.0261 369.699 85.0261Z" fill="white"/>
<path opacity="0.45" d="M342.367 204.389V81.7043H102.143V388.74H342.367V204.389Z" fill="#C9D2DF"/>
<path d="M229.267 298.98H365.741V288.334H229.267V298.98Z" fill="#C9D2DF"/>
<path d="M229.267 323.17H365.741V312.525H229.267V323.17Z" fill="#C9D2DF"/>
<path d="M229.267 347.388H365.741V336.742H229.267V347.388Z" fill="#C9D2DF"/>
<path d="M229.267 209.194H365.741V198.548H229.267V209.194Z" fill="#C9D2DF"/>
<path d="M229.267 233.332H365.741V222.687H229.267V233.332Z" fill="#C9D2DF"/>
<path d="M229.267 257.623H365.741V246.978H229.267V257.623Z" fill="#C9D2DF"/>
<path d="M229.267 116.569H365.741V105.924H229.267V116.569Z" fill="#C9D2DF"/>
<path d="M229.267 165.051H365.741V105.202H229.267V165.051Z" fill="#C9D2DF"/>
<path d="M380.021 391.018C379.419 391.018 378.841 390.779 378.415 390.353C377.988 389.926 377.749 389.349 377.749 388.747C377.749 388.144 377.988 387.566 378.415 387.14C378.841 386.714 379.419 386.474 380.021 386.474C380.548 386.474 381.068 386.37 381.553 386.167C382.037 385.963 382.477 385.666 382.845 385.292C383.214 384.917 383.504 384.473 383.7 383.984C383.895 383.497 383.99 382.976 383.982 382.45V233.931C383.982 233.328 384.221 232.75 384.647 232.324C385.073 231.897 385.652 231.658 386.254 231.658C386.858 231.658 387.435 231.897 387.861 232.324C388.287 232.75 388.526 233.328 388.526 233.931V382.45C388.526 384.711 387.633 386.881 386.039 388.486C384.447 390.09 382.284 391.001 380.021 391.018Z" fill="#3E3126"/>
<path d="M364.57 391.005H336.003C335.401 391.005 334.822 390.766 334.396 390.34C333.97 389.914 333.731 389.335 333.731 388.733C333.731 388.13 333.97 387.552 334.396 387.127C334.822 386.701 335.401 386.462 336.003 386.462H364.57C365.174 386.462 365.752 386.701 366.177 387.127C366.603 387.552 366.843 388.13 366.843 388.733C366.843 389.335 366.603 389.914 366.177 390.34C365.752 390.766 365.174 391.005 364.57 391.005Z" fill="#3E3126"/>
<path d="M305.227 391.027H152.263C150.001 391.01 147.838 390.1 146.245 388.494C144.652 386.89 143.758 384.719 143.758 382.459V94.8323C143.775 90.7573 145.402 86.8543 148.284 83.9729C151.165 81.0915 155.07 79.4651 159.145 79.448H373.4C377.475 79.4651 381.378 81.0915 384.26 83.9729C387.142 86.8543 388.769 90.7573 388.786 94.8323V204.404C388.786 205.007 388.546 205.585 388.12 206.01C387.695 206.436 387.117 206.677 386.513 206.677C385.912 206.677 385.334 206.436 384.906 206.01C384.481 205.585 384.241 205.007 384.241 204.404V94.8323C384.241 91.9572 383.099 89.1999 381.066 87.167C379.032 85.134 376.275 83.992 373.4 83.992H159.145C156.27 83.992 153.512 85.134 151.478 87.167C149.445 89.1999 148.303 91.9572 148.303 94.8323V382.459C148.294 382.984 148.39 383.506 148.585 383.994C148.78 384.482 149.07 384.926 149.44 385.301C149.808 385.676 150.247 385.973 150.732 386.176C151.217 386.378 151.737 386.483 152.263 386.483H305.227C305.83 386.483 306.408 386.722 306.834 387.148C307.26 387.575 307.499 388.153 307.499 388.755C307.499 389.358 307.26 389.936 306.834 390.362C306.408 390.787 305.83 391.027 305.227 391.027Z" fill="#3E3126"/>
<path d="M322.5 46.5352H2.15869V408.161H322.5V46.5352Z" fill="white"/>
<path opacity="0.2" d="M322.5 151.738V400.742C322.5 401.992 322.251 403.23 321.771 404.384C321.29 405.538 320.586 406.585 319.7 407.467C318.813 408.347 317.761 409.044 316.602 409.517C315.446 409.988 314.205 410.227 312.954 410.219H30.2053C199.79 361.015 286.076 227.166 322.5 151.738Z" fill="#C9D2DF"/>
<path opacity="0.5" d="M322.434 159.09H3.71521V160.454H322.434V159.09Z" fill="#C9D2DF"/>
<path opacity="0.5" d="M322.434 255.598H3.71521V256.961H322.434V255.598Z" fill="#C9D2DF"/>
<path opacity="0.5" d="M322.434 358.875H3.71521V360.238H322.434V358.875Z" fill="#C9D2DF"/>
<path d="M8.58506 13.2138H317.629C318.904 13.2138 320.126 13.7199 321.027 14.6208C321.927 15.5215 322.434 16.7433 322.434 18.0174V44.5016H3.71565V18.0822C3.70692 17.4405 3.82689 16.8035 4.06852 16.2089C4.31014 15.6143 4.66849 15.0742 5.12241 14.6202C5.57632 14.1664 6.1166 13.8082 6.71133 13.5666C7.30606 13.3251 7.94317 13.2051 8.58506 13.2138Z" fill="#CEDFFF"/>
<path d="M32.414 31.007C35.6052 31.007 38.1923 28.4205 38.1923 25.2298C38.1923 22.0392 35.6052 19.4526 32.414 19.4526C29.2227 19.4526 26.6356 22.0392 26.6356 25.2298C26.6356 28.4205 29.2227 31.007 32.414 31.007Z" fill="#57A8B2"/>
<path d="M49.9419 31.007C53.1332 31.007 55.7202 28.4205 55.7202 25.2298C55.7202 22.0392 53.1332 19.4526 49.9419 19.4526C46.7506 19.4526 44.1636 22.0392 44.1636 25.2298C44.1636 28.4205 46.7506 31.007 49.9419 31.007Z" fill="#57A8B2"/>
<path d="M67.5365 31.007C70.7278 31.007 73.3149 28.4205 73.3149 25.2298C73.3149 22.0392 70.7278 19.4526 67.5365 19.4526C64.3452 19.4526 61.7582 22.0392 61.7582 25.2298C61.7582 28.4205 64.3452 31.007 67.5365 31.007Z" fill="#57A8B2"/>
<path opacity="0.2" d="M322.5 52.8243H3.71594C3.12216 52.7284 2.58193 52.4241 2.19203 51.9663C1.80214 51.5084 1.58801 50.9267 1.58801 50.3252C1.58801 49.7238 1.80214 49.1421 2.19203 48.6842C2.58193 48.2264 3.12216 47.9221 3.71594 47.8262H322.5C323.094 47.9221 323.634 48.2264 324.023 48.6842C324.413 49.1421 324.627 49.7238 324.627 50.3252C324.627 50.9267 324.413 51.5084 324.023 51.9663C323.634 52.4241 323.094 52.7284 322.5 52.8243Z" fill="#C9D2DF"/>
<path d="M32.414 31.007C35.6052 31.007 38.1923 28.4205 38.1923 25.2298C38.1923 22.0392 35.6052 19.4526 32.414 19.4526C29.2227 19.4526 26.6356 22.0392 26.6356 25.2298C26.6356 28.4205 29.2227 31.007 32.414 31.007Z" fill="#BBD2FF"/>
<path d="M49.9419 31.007C53.1332 31.007 55.7202 28.4205 55.7202 25.2298C55.7202 22.0392 53.1332 19.4526 49.9419 19.4526C46.7506 19.4526 44.1636 22.0392 44.1636 25.2298C44.1636 28.4205 46.7506 31.007 49.9419 31.007Z" fill="#BBD2FF"/>
<path d="M67.5365 31.007C70.7278 31.007 73.3149 28.4205 73.3149 25.2298C73.3149 22.0392 70.7278 19.4526 67.5365 19.4526C64.3452 19.4526 61.7582 22.0392 61.7582 25.2298C61.7582 28.4205 64.3452 31.007 67.5365 31.007Z" fill="#BBD2FF"/>
<path d="M32.541 32.1117C31.1659 32.1896 29.7991 31.8533 28.6173 31.1461C27.4355 30.4391 26.4931 29.3937 25.912 28.1451C25.3309 26.8967 25.1378 25.5027 25.3577 24.1434C25.5776 22.784 26.2003 21.5219 27.1455 20.5203C28.0906 19.5187 29.3146 18.8236 30.6591 18.5251C32.0035 18.2265 33.4068 18.338 34.6872 18.8454C35.9675 19.3528 37.0662 20.2325 37.8411 21.3709C38.616 22.5093 39.0313 23.854 39.0336 25.231C39.0364 26.9904 38.365 28.684 37.1575 29.9637C35.9499 31.2435 34.2979 32.0122 32.541 32.1117ZM32.541 20.3626C31.6139 20.3497 30.7037 20.6128 29.9265 21.1185C29.1492 21.6241 28.54 22.3494 28.1762 23.2023C27.8124 24.0551 27.7106 24.9968 27.8835 25.9076C28.0564 26.8184 28.4965 27.6572 29.1476 28.3174C29.7987 28.9775 30.6314 29.4291 31.54 29.6148C32.4485 29.8004 33.3916 29.7118 34.2497 29.3601C35.1076 29.0083 35.8416 28.4094 36.3581 27.6395C36.8748 26.8695 37.1506 25.9634 37.1508 25.0363C37.1594 24.4256 37.0465 23.8193 36.8186 23.2526C36.5909 22.6859 36.2527 22.1702 35.8238 21.7354C35.3949 21.3004 34.8838 20.9551 34.3202 20.7195C33.7567 20.4839 33.1518 20.3624 32.541 20.3626Z" fill="#3E3126"/>
<path d="M49.941 32.1225C48.5827 32.1096 47.2585 31.6951 46.1352 30.9314C45.0121 30.1676 44.1402 29.0886 43.6292 27.8301C43.1182 26.5718 42.9912 25.1904 43.264 23.86C43.5369 22.5296 44.1974 21.3097 45.1624 20.3538C46.1274 19.398 47.3538 18.7492 48.6869 18.4888C50.0201 18.2286 51.4006 18.3686 52.6543 18.8912C53.9081 19.4139 54.9791 20.2958 55.7325 21.4259C56.4858 22.5559 56.8879 23.8836 56.888 25.2417C56.8708 27.0726 56.1314 28.8226 54.8303 30.111C53.5294 31.3996 51.7722 32.1225 49.941 32.1225ZM49.941 20.3733C49.0164 20.3733 48.1125 20.6474 47.3438 21.1609C46.5751 21.6745 45.976 22.4044 45.6221 23.2585C45.2683 24.1125 45.1757 25.0522 45.3562 25.9588C45.5365 26.8653 45.9817 27.6982 46.6355 28.3517C47.2893 29.0054 48.1222 29.4505 49.0289 29.6309C49.9357 29.8112 50.8756 29.7186 51.7299 29.3649C52.584 29.0112 53.314 28.4121 53.8277 27.6435C54.3414 26.875 54.6155 25.9713 54.6155 25.0469C54.6242 24.4308 54.5093 23.8191 54.2776 23.2481C54.0457 22.6772 53.7017 22.1584 53.2658 21.7227C52.8301 21.2869 52.3113 20.943 51.7401 20.7112C51.1691 20.4794 50.5572 20.3646 49.941 20.3733Z" fill="#3E3126"/>
<path d="M67.5369 32.1227C65.7117 32.1227 63.9612 31.3978 62.6705 30.1074C61.3799 28.8169 60.6549 27.0669 60.6549 25.242C60.6549 23.4171 61.3799 21.667 62.6705 20.3767C63.9612 19.0862 65.7117 18.3613 67.5369 18.3613C69.3621 18.3613 71.1126 19.0862 72.4033 20.3767C73.6939 21.667 74.419 23.4171 74.419 25.242C74.419 27.0669 73.6939 28.8169 72.4033 30.1074C71.1126 31.3978 69.3621 32.1227 67.5369 32.1227ZM67.5369 20.5684C66.4003 20.703 65.3526 21.2499 64.5925 22.1052C63.8322 22.9606 63.4122 24.0652 63.4122 25.2096C63.4122 26.3539 63.8322 27.4584 64.5925 28.3138C65.3526 29.1693 66.4003 29.7162 67.5369 29.8508C68.6735 29.7162 69.7213 29.1693 70.4815 28.3138C71.2417 27.4584 71.6616 26.3539 71.6616 25.2096C71.6616 24.0652 71.2417 22.9606 70.4815 22.1052C69.7213 21.2499 68.6735 20.703 67.5369 20.5684Z" fill="#3E3126"/>
<path d="M212.516 113.777H183.04V119.1H212.516V113.777Z" fill="#C9D2DF"/>
<path d="M213.489 209.194H184.013V214.517H213.489V209.194Z" fill="#C9D2DF"/>
<path d="M213.489 305.067H184.013V310.389H213.489V305.067Z" fill="#C9D2DF"/>
<path d="M166.225 179.655H33.5178C32.478 179.655 31.6351 180.498 31.6351 181.538V188.419C31.6351 189.459 32.478 190.301 33.5178 190.301H166.225C167.265 190.301 168.109 189.459 168.109 188.419V181.538C168.109 180.498 167.265 179.655 166.225 179.655Z" fill="#C9D2DF"/>
<path d="M166.225 203.868H33.5178C32.478 203.868 31.6351 204.71 31.6351 205.75V212.631C31.6351 213.67 32.478 214.513 33.5178 214.513H166.225C167.265 214.513 168.109 213.67 168.109 212.631V205.75C168.109 204.71 167.265 203.868 166.225 203.868Z" fill="#C9D2DF"/>
<path d="M166.225 228.085H33.5178C32.478 228.085 31.6351 228.928 31.6351 229.967V236.848C31.6351 237.887 32.478 238.731 33.5178 238.731H166.225C167.265 238.731 168.109 237.887 168.109 236.848V229.967C168.109 228.928 167.265 228.085 166.225 228.085Z" fill="#C9D2DF"/>
<path d="M166.225 75.4651H33.5178C32.478 75.4651 31.6351 76.3079 31.6351 77.3476V84.2282C31.6351 85.2678 32.478 86.1107 33.5178 86.1107H166.225C167.265 86.1107 168.109 85.2678 168.109 84.2282V77.3476C168.109 76.3079 167.265 75.4651 166.225 75.4651Z" fill="#C9D2DF"/>
<path d="M166.225 99.6824H33.5178C32.478 99.6824 31.6351 100.525 31.6351 101.565V108.446C31.6351 109.485 32.478 110.328 33.5178 110.328H166.225C167.265 110.328 168.109 109.485 168.109 108.446V101.565C168.109 100.525 167.265 99.6824 166.225 99.6824Z" fill="#C9D2DF"/>
<path d="M166.225 123.895H33.5178C32.478 123.895 31.6351 124.737 31.6351 125.777V132.658C31.6351 133.698 32.478 134.54 33.5178 134.54H166.225C167.265 134.54 168.109 133.698 168.109 132.658V125.777C168.109 124.737 167.265 123.895 166.225 123.895Z" fill="#C9D2DF"/>
<path d="M166.225 275.144H33.5178C32.478 275.144 31.6351 275.988 31.6351 277.028V283.908C31.6351 284.948 32.478 285.791 33.5178 285.791H166.225C167.265 285.791 168.109 284.948 168.109 283.908V277.028C168.109 275.988 167.265 275.144 166.225 275.144Z" fill="#C9D2DF"/>
<path d="M166.225 299.363H33.5178C32.478 299.363 31.6351 300.205 31.6351 301.245V308.126C31.6351 309.165 32.478 310.008 33.5178 310.008H166.225C167.265 310.008 168.109 309.165 168.109 308.126V301.245C168.109 300.205 167.265 299.363 166.225 299.363Z" fill="#C9D2DF"/>
<path d="M166.225 323.58H33.5178C32.478 323.58 31.6351 324.422 31.6351 325.462V332.342C31.6351 333.382 32.478 334.226 33.5178 334.226H166.225C167.265 334.226 168.109 333.382 168.109 332.342V325.462C168.109 324.422 167.265 323.58 166.225 323.58Z" fill="#C9D2DF"/>
<path d="M190.895 82.9951L193.037 87.2794L197.777 87.9934L194.336 91.3689L195.18 96.1075L190.895 93.8356L186.61 96.1075L187.454 91.3689L184.013 87.9934L188.752 87.2794L190.895 82.9951Z" fill="#FF9C01"/>
<path d="M208.686 82.9951L210.828 87.2794L215.569 87.9934L212.128 91.3689L212.971 96.1075L208.686 93.8356L204.402 96.1075L205.245 91.3689L201.804 87.9934L206.543 87.2794L208.686 82.9951Z" fill="#FF9C01"/>
<path d="M226.475 82.9951L228.618 87.2794L233.357 87.9934L229.916 91.3689L230.695 96.1075L226.475 93.8356L222.19 96.1075L223.034 91.3689L219.528 87.9934L224.333 87.2794L226.475 82.9951Z" fill="#FF9C01"/>
<path d="M244.263 82.9951L246.407 87.2794L251.146 87.9934L247.704 91.3689L248.484 96.1075L244.263 93.8356L239.979 96.1075L240.822 91.3689L237.317 87.9934L242.12 87.2794L244.263 82.9951Z" fill="#FF9C01"/>
<path d="M262.055 82.9951L264.132 87.2794L268.937 87.9934L265.496 91.3689L266.275 96.1075L262.055 93.8356L257.77 96.1075L258.549 91.3689L255.108 87.9934L259.912 87.2794L262.055 82.9951Z" fill="#FF9C01"/>
<path d="M190.895 178.438L193.037 182.787L197.777 183.436L194.336 186.811L195.18 191.55L190.895 189.343L186.61 191.55L187.454 186.811L184.013 183.436L188.752 182.787L190.895 178.438Z" fill="#FF9C01"/>
<path d="M208.686 178.438L210.828 182.787L215.569 183.436L212.128 186.811L212.971 191.55L208.686 189.343L204.402 191.55L205.245 186.811L201.804 183.436L206.543 182.787L208.686 178.438Z" fill="#FF9C01"/>
<path d="M226.475 178.438L228.618 182.787L233.357 183.436L229.916 186.811L230.695 191.55L226.475 189.343L222.19 191.55L223.034 186.811L219.528 183.436L224.333 182.787L226.475 178.438Z" fill="#FF9C01"/>
<path d="M244.263 178.438L246.407 182.787L251.146 183.436L247.704 186.811L248.484 191.55L244.263 189.343L239.979 191.55L240.822 186.811L237.317 183.436L242.12 182.787L244.263 178.438Z" fill="#FF9C01"/>
<path d="M262.055 178.438L264.132 182.787L268.937 183.436L265.496 186.811L266.275 191.55L262.055 189.343L257.77 191.55L258.549 186.811L255.108 183.436L259.912 182.787L262.055 178.438Z" fill="#FF9C01"/>
<path d="M190.895 273.907L193.037 278.191L197.777 278.905L194.336 282.28L195.18 287.019L190.895 284.747L186.61 287.019L187.454 282.28L184.013 278.905L188.752 278.191L190.895 273.907Z" fill="#FF9C01"/>
<path d="M208.686 273.907L210.828 278.191L215.569 278.905L212.128 282.28L212.971 287.019L208.686 284.747L204.402 287.019L205.245 282.28L201.804 278.905L206.543 278.191L208.686 273.907Z" fill="#FF9C01"/>
<path d="M226.475 273.907L228.618 278.191L233.357 278.905L229.916 282.28L230.695 287.019L226.475 284.747L222.19 287.019L223.034 282.28L219.528 278.905L224.333 278.191L226.475 273.907Z" fill="#FF9C01"/>
<path d="M244.263 273.907L246.407 278.191L251.146 278.905L247.704 282.28L248.484 287.019L244.263 284.747L239.979 287.019L240.822 282.28L237.317 278.905L242.12 278.191L244.263 273.907Z" fill="#FF9C01"/>
<path d="M262.055 273.907L264.132 278.191L268.937 278.905L265.496 282.28L266.275 287.019L262.055 284.747L257.77 287.019L258.549 282.28L255.108 278.905L259.912 278.191L262.055 273.907Z" fill="#FF9C01"/>
<path opacity="0.45" d="M150.382 8.04443H119.672C116.804 8.04443 114.478 10.3694 114.478 13.2374V13.3023C114.478 16.1704 116.804 18.4954 119.672 18.4954H150.382C153.25 18.4954 155.576 16.1704 155.576 13.3023V13.2374C155.576 10.3694 153.25 8.04443 150.382 8.04443Z" fill="white"/>
<path opacity="0.45" d="M149.019 30.103C152.64 30.103 155.576 28.1559 155.576 25.754C155.576 23.352 152.64 21.4048 149.019 21.4048C145.397 21.4048 142.461 23.352 142.461 25.754C142.461 28.1559 145.397 30.103 149.019 30.103Z" fill="white"/>
<path d="M386.256 222.897C388.157 222.897 389.697 221.356 389.697 219.456C389.697 217.555 388.157 216.016 386.256 216.016C384.356 216.016 382.814 217.555 382.814 219.456C382.814 221.356 384.356 222.897 386.256 222.897Z" fill="#3E3126"/>
<path d="M322.435 39.5088H2.15869V44.5069H322.435V39.5088Z" fill="#BBD2FF"/>
<path d="M322.498 47.7575H3.71464C3.11197 47.7575 2.53397 47.5181 2.10782 47.0921C1.68167 46.666 1.44226 46.088 1.44226 45.4855C1.44226 44.8829 1.68167 44.3051 2.10782 43.879C2.53397 43.453 3.11197 43.2136 3.71464 43.2136H322.498C323.1 43.2136 323.678 43.453 324.105 43.879C324.531 44.3051 324.77 44.8829 324.77 45.4855C324.77 46.088 324.531 46.666 324.105 47.0921C323.678 47.5181 323.1 47.7575 322.498 47.7575Z" fill="#3E3126"/>
<path d="M3.71568 299.477C3.22498 299.505 2.7337 299.43 2.27493 299.252C1.81614 299.077 1.4005 298.804 1.056 298.453C0.711497 298.103 0.446123 297.682 0.277743 297.22C0.109364 296.759 0.0418896 296.266 0.0798628 295.776V191.917C0.0798628 191.005 0.442401 190.129 1.08772 189.484C1.73304 188.839 2.60829 188.477 3.5209 188.477C4.43353 188.477 5.30877 188.839 5.95409 189.484C6.59942 190.129 6.96194 191.005 6.96194 191.917V295.776C6.99723 296.234 6.94073 296.693 6.79579 297.129C6.65084 297.564 6.42038 297.966 6.11793 298.309C5.81549 298.655 5.44718 298.935 5.03464 299.136C4.6221 299.336 4.17366 299.451 3.71568 299.477Z" fill="#3E3126"/>
<path d="M120.58 415.299H12.0254C10.4566 415.299 8.90311 414.99 7.45373 414.389C6.00434 413.79 4.68739 412.91 3.57808 411.8C2.46877 410.691 1.58881 409.374 0.988456 407.926C0.3881 406.477 0.0791016 404.924 0.0791016 403.355V320.331C0.0789522 319.362 0.459926 318.431 1.13997 317.739C1.82002 317.047 2.74472 316.649 3.71492 316.632C4.68512 316.649 5.60983 317.047 6.28988 317.739C6.96992 318.431 7.35088 319.362 7.35074 320.331V403.355C7.35074 404.595 7.84325 405.783 8.71991 406.659C9.59657 407.537 10.7856 408.028 12.0254 408.028H120.58C121.545 408.028 122.47 408.411 123.151 409.094C123.833 409.775 124.216 410.7 124.216 411.663C124.216 412.628 123.833 413.552 123.151 414.235C122.47 414.916 121.545 415.299 120.58 415.299Z" fill="#3E3126"/>
<path d="M314.191 414.646H219.528C218.737 414.646 217.978 414.331 217.417 413.771C216.857 413.211 216.543 412.452 216.543 411.661C216.543 410.868 216.857 410.109 217.417 409.549C217.978 408.989 218.737 408.674 219.528 408.674H314.191C314.982 408.674 315.741 408.989 316.301 409.549C316.862 410.109 317.176 410.868 317.176 411.661C317.176 412.452 316.862 413.211 316.301 413.771C315.741 414.331 314.982 414.646 314.191 414.646Z" fill="#3E3126"/>
<path d="M322.5 375.631C321.587 375.631 320.713 375.269 320.066 374.624C319.421 373.978 319.059 373.103 319.059 372.191V21.6641C319.025 18.0015 317.559 14.4974 314.975 11.9014C312.392 9.30535 308.893 7.82352 305.23 7.77279H240.695C239.781 7.77279 238.906 7.41034 238.261 6.76514C237.615 6.11995 237.254 5.24489 237.254 4.33244C237.254 3.42001 237.615 2.54493 238.261 1.89975C238.906 1.25455 239.781 0.892091 240.695 0.892091L305.23 0.89209C310.758 0.892091 316.058 3.0874 319.967 6.99506C323.876 10.9027 326.071 16.2027 326.071 21.7289V372.256C326.071 372.716 325.978 373.172 325.797 373.594C325.614 374.017 325.348 374.398 325.014 374.714C324.68 375.03 324.284 375.274 323.851 375.433C323.42 375.59 322.959 375.657 322.5 375.631Z" fill="#3E3126"/>
<path d="M3.71492 163.174C3.24693 163.2 2.77844 163.131 2.33821 162.97C1.89797 162.809 1.49528 162.56 1.15482 162.238C0.814372 161.915 0.543342 161.527 0.358363 161.096C0.173384 160.666 0.0783545 160.203 0.079106 159.734V21.7299C0.0875466 18.9739 0.640996 16.247 1.7076 13.7058C2.77421 11.1646 4.33293 8.85943 6.29404 6.92284C8.25515 4.98626 10.58 3.45652 13.1347 2.42168C15.6894 1.38684 18.4236 0.867309 21.1798 0.892998H210.178C211.09 0.892998 211.965 1.25546 212.611 1.90065C213.256 2.54585 213.619 3.42091 213.619 4.33335C213.619 5.24578 213.256 6.12086 212.611 6.76605C211.965 7.41124 211.09 7.7737 210.178 7.7737H21.1798C17.4718 7.77366 13.9145 9.24196 11.2863 11.8574C8.65822 14.4728 7.17313 18.0224 7.15596 21.7299V159.734C7.15596 160.646 6.79343 161.521 6.14811 162.167C5.50278 162.812 4.62755 163.174 3.71492 163.174Z" fill="#3E3126"/>
<path opacity="0.2" d="M95.2611 393.866C100.353 393.866 104.481 389.739 104.481 384.648C104.481 379.558 100.353 375.431 95.2611 375.431C90.1694 375.431 86.0417 379.558 86.0417 384.648C86.0417 389.739 90.1694 393.866 95.2611 393.866Z" fill="#C9D2DF"/>
<path opacity="0.2" d="M108.18 371.926C110.224 371.926 111.881 370.27 111.881 368.227C111.881 366.183 110.224 364.527 108.18 364.527C106.136 364.527 104.479 366.183 104.479 368.227C104.479 370.27 106.136 371.926 108.18 371.926Z" fill="#C9D2DF"/>
<path opacity="0.2" d="M69.615 388.357C71.6588 388.357 73.3156 386.699 73.3156 384.656C73.3156 382.613 71.6588 380.957 69.615 380.957C67.571 380.957 65.9142 382.613 65.9142 384.656C65.9142 386.699 67.571 388.357 69.615 388.357Z" fill="#C9D2DF"/>
<path d="M178.429 443.264C186.663 443.265 194.652 440.472 201.092 435.343C207.532 430.214 212.04 423.05 213.878 415.026H260.624V435.084H277.634V415.026H288.737V435.084H305.747V415.026H324.706C325.782 415.043 326.85 414.839 327.843 414.425C328.838 414.012 329.737 413.399 330.484 412.624C331.248 411.882 331.854 410.994 332.267 410.012C332.679 409.032 332.89 407.977 332.886 406.912C332.886 404.742 332.024 402.663 330.49 401.129C328.956 399.595 326.875 398.733 324.706 398.733H213.878C212.339 392.07 208.953 385.978 204.106 381.153C199.26 376.329 193.15 372.969 186.48 371.459C179.81 369.949 172.849 370.351 166.397 372.617C159.945 374.885 154.264 378.925 150.004 384.275C145.745 389.624 143.082 396.067 142.32 402.862C141.558 409.658 142.728 416.529 145.697 422.69C148.665 428.849 153.311 434.048 159.101 437.687C164.89 441.326 171.59 443.258 178.429 443.264ZM178.429 390.489C181.678 390.489 184.853 391.452 187.555 393.257C190.256 395.062 192.361 397.627 193.604 400.628C194.847 403.629 195.174 406.931 194.539 410.116C193.905 413.302 192.341 416.228 190.043 418.525C187.746 420.821 184.819 422.386 181.634 423.019C178.446 423.653 175.144 423.328 172.142 422.085C169.142 420.841 166.575 418.736 164.771 416.036C162.966 413.336 162.003 410.16 162.003 406.912C161.986 404.745 162.398 402.596 163.215 400.587C164.033 398.58 165.24 396.755 166.768 395.215C168.294 393.677 170.111 392.456 172.113 391.622C174.113 390.789 176.26 390.359 178.429 390.359V390.489Z" fill="#7179CE"/>
<path d="M194.792 409.509H332.367V405.419H194.792V409.509Z" fill="#84A6F2"/>
<path d="M141.812 409.509H162.069V405.419H141.812V409.509Z" fill="#84A6F2"/>
<path d="M194.792 407.51H332.367V403.419H194.792V407.51Z" fill="#84A6F2"/>
<path d="M141.812 407.51H162.069V403.419H141.812V407.51Z" fill="#84A6F2"/>
<path d="M194.855 420.817H212.06L210.048 424.906H194.855V420.817Z" fill="#84A6F2"/>
<path d="M144.798 420.817H162.067V424.906H145.967L144.798 420.817Z" fill="#84A6F2"/>
<path d="M143.631 396.853C145.471 389.24 149.721 382.426 155.747 377.423C161.773 372.421 169.253 369.497 177.076 369.089C184.897 368.681 192.642 370.809 199.157 375.156C205.671 379.503 210.608 385.838 213.231 393.217C203.884 385.802 192.244 381.877 180.314 382.117C173.514 381.908 166.743 383.11 160.43 385.646C154.117 388.181 148.397 391.998 143.631 396.853Z" fill="#84A6F2"/>
<path d="M303.346 429.307C302.934 429.307 302.537 429.142 302.244 428.851C301.953 428.559 301.789 428.163 301.789 427.749V412.819C301.789 412.614 301.829 412.412 301.907 412.224C301.985 412.034 302.101 411.862 302.244 411.717C302.389 411.573 302.561 411.458 302.751 411.38C302.939 411.302 303.142 411.262 303.346 411.262H320.097C320.511 411.262 320.908 411.426 321.199 411.717C321.492 412.01 321.656 412.406 321.656 412.819C321.656 413.232 321.492 413.629 321.199 413.92C320.908 414.213 320.511 414.377 320.097 414.377H305.23V428.008C305.151 428.43 304.909 428.802 304.555 429.045C304.203 429.288 303.768 429.383 303.346 429.307Z" fill="#84A6F2"/>
<path d="M298.737 434.499H291.14C290.728 434.499 290.332 434.336 290.039 434.044C289.747 433.751 289.583 433.355 289.583 432.942V414.377H279.26C278.846 414.377 278.45 414.213 278.158 413.92C277.865 413.629 277.701 413.232 277.701 412.819C277.701 412.406 277.865 412.01 278.158 411.717C278.45 411.426 278.846 411.262 279.26 411.262H291.011C291.216 411.262 291.419 411.302 291.608 411.38C291.796 411.458 291.968 411.573 292.113 411.717C292.257 411.862 292.373 412.034 292.45 412.224C292.528 412.412 292.569 412.614 292.569 412.819V431.384H299.061C299.272 431.375 299.482 431.41 299.678 431.484C299.874 431.557 300.054 431.672 300.206 431.817C300.358 431.962 300.479 432.136 300.561 432.33C300.643 432.523 300.686 432.732 300.684 432.942C300.68 433.18 300.624 433.414 300.518 433.628C300.413 433.841 300.262 434.028 300.076 434.177C299.89 434.326 299.674 434.432 299.443 434.487C299.212 434.544 298.97 434.548 298.737 434.499Z" fill="#84A6F2"/>
<path d="M271.013 434.499H263.092C262.678 434.499 262.282 434.336 261.99 434.044C261.697 433.751 261.533 433.355 261.533 432.942V414.377H251.34C250.927 414.377 250.53 414.213 250.239 413.92C249.946 413.629 249.782 413.232 249.782 412.819C249.782 412.406 249.946 412.01 250.239 411.717C250.53 411.426 250.927 411.262 251.34 411.262H263.092C263.504 411.262 263.901 411.426 264.194 411.717C264.485 412.01 264.649 412.406 264.649 412.819V431.384H271.142C271.555 431.384 271.952 431.548 272.243 431.841C272.536 432.132 272.7 432.529 272.7 432.942C272.702 433.157 272.657 433.372 272.57 433.57C272.484 433.767 272.358 433.946 272.199 434.092C272.041 434.239 271.852 434.35 271.648 434.42C271.444 434.491 271.228 434.518 271.013 434.499Z" fill="#84A6F2"/>
<path d="M178.429 445.749C173.197 445.752 168.017 444.701 163.2 442.659C158.382 440.617 154.026 437.625 150.39 433.863C146.754 430.101 143.914 425.645 142.038 420.761C140.163 415.878 139.29 410.665 139.474 405.438C139.99 396.306 143.704 387.647 149.965 380.979C156.227 374.311 164.635 370.058 173.718 368.966C182.8 367.875 191.977 370.013 199.641 375.008C207.304 380.004 212.965 387.536 215.63 396.285H324.706C326.169 396.17 327.641 396.36 329.029 396.841C330.415 397.323 331.688 398.086 332.767 399.083C333.844 400.08 334.704 401.289 335.293 402.633C335.881 403.978 336.185 405.43 336.185 406.898C336.185 408.367 335.881 409.819 335.293 411.164C334.704 412.508 333.844 413.717 332.767 414.714C331.688 415.711 330.415 416.474 329.029 416.955C327.641 417.436 326.169 417.625 324.706 417.511H308.214V432.506C308.214 433.837 307.69 435.116 306.755 436.063C305.818 437.012 304.547 437.552 303.216 437.569H291.334C289.99 437.569 288.703 437.036 287.753 436.086C286.803 435.136 286.27 433.849 286.27 432.506V417.511H280.102V432.182C280.102 433.61 279.534 434.98 278.524 435.992C277.513 437.002 276.143 437.569 274.713 437.569H263.546C262.116 437.569 260.746 437.002 259.736 435.992C258.725 434.98 258.157 433.61 258.157 432.182V417.511H237.446C236.868 417.417 236.344 417.12 235.965 416.674C235.586 416.228 235.378 415.663 235.378 415.077C235.378 414.493 235.586 413.926 235.965 413.48C236.344 413.034 236.868 412.738 237.446 412.643H260.625C261.267 412.66 261.879 412.928 262.327 413.388C262.776 413.849 263.027 414.467 263.026 415.109V432.182C263.041 432.315 263.1 432.439 263.194 432.533C263.289 432.628 263.413 432.687 263.546 432.701H274.713C274.846 432.687 274.97 432.628 275.065 432.533C275.159 432.439 275.218 432.315 275.233 432.182V415.109C275.232 414.467 275.483 413.849 275.932 413.388C276.381 412.928 276.992 412.66 277.634 412.643H288.737C289.058 412.643 289.376 412.707 289.672 412.832C289.967 412.957 290.235 413.14 290.459 413.37C290.684 413.599 290.858 413.872 290.975 414.17C291.092 414.47 291.149 414.788 291.139 415.109V432.506H303.216V414.914C303.216 414.272 303.466 413.654 303.914 413.194C304.363 412.733 304.975 412.465 305.618 412.448H324.706C325.456 412.455 326.2 412.31 326.892 412.019C327.584 411.729 328.21 411.301 328.732 410.761C329.265 410.235 329.69 409.609 329.98 408.918C330.27 408.227 330.419 407.486 330.419 406.736C330.427 405.981 330.286 405.23 330.003 404.53C329.719 403.829 329.3 403.192 328.769 402.655C328.237 402.117 327.604 401.69 326.907 401.4C326.21 401.109 325.461 400.958 324.706 400.958H213.878C213.333 400.957 212.803 400.77 212.379 400.427C211.954 400.085 211.659 399.609 211.54 399.076C209.718 391.536 205.368 384.847 199.214 380.122C193.059 375.398 185.471 372.925 177.714 373.111C169.126 373.391 160.955 376.879 154.812 382.888C148.67 388.896 145.005 396.988 144.538 405.567C144.301 411.418 145.584 417.23 148.262 422.437C150.941 427.644 154.923 432.068 159.821 435.279C164.718 438.488 170.364 440.375 176.209 440.754C182.053 441.132 187.895 439.991 193.167 437.44C193.456 437.298 193.771 437.216 194.092 437.198C194.413 437.181 194.734 437.228 195.038 437.337C195.34 437.445 195.618 437.615 195.855 437.832C196.091 438.051 196.281 438.315 196.414 438.607C196.686 439.186 196.723 439.849 196.517 440.453C196.312 441.059 195.879 441.562 195.309 441.853C190.046 444.401 184.277 445.733 178.429 445.749ZM208.489 429.845C208.007 429.847 207.534 429.712 207.127 429.455C206.859 429.279 206.629 429.051 206.451 428.785C206.273 428.517 206.151 428.219 206.091 427.905C206.03 427.589 206.033 427.267 206.099 426.952C206.166 426.639 206.293 426.342 206.476 426.079C208.868 422.576 210.585 418.658 211.54 414.525C211.659 413.993 211.954 413.516 212.379 413.175C212.803 412.832 213.333 412.645 213.878 412.643H228.161C228.515 412.585 228.876 412.605 229.221 412.701C229.565 412.796 229.885 412.965 230.158 413.198C230.431 413.429 230.65 413.717 230.8 414.041C230.949 414.366 231.027 414.72 231.027 415.077C231.027 415.434 230.949 415.788 230.8 416.113C230.65 416.438 230.431 416.725 230.158 416.958C229.885 417.189 229.565 417.358 229.221 417.453C228.876 417.55 228.515 417.569 228.161 417.511H215.825C214.67 421.539 212.873 425.352 210.502 428.806C210.281 429.135 209.982 429.404 209.63 429.585C209.278 429.767 208.885 429.857 208.489 429.845ZM178.429 425.755C174.704 425.755 171.065 424.651 167.969 422.582C164.872 420.515 162.458 417.574 161.034 414.134C159.609 410.695 159.236 406.909 159.962 403.258C160.689 399.607 162.483 396.252 165.115 393.619C167.748 390.988 171.103 389.194 174.756 388.467C178.408 387.742 182.194 388.114 185.634 389.539C189.075 390.963 192.015 393.376 194.084 396.473C196.153 399.568 197.257 403.207 197.257 406.931C197.257 411.923 195.273 416.712 191.743 420.242C188.212 423.771 183.422 425.755 178.429 425.755ZM178.429 392.974C175.668 392.974 172.97 393.793 170.674 395.327C168.379 396.859 166.589 399.04 165.533 401.589C164.477 404.141 164.2 406.946 164.739 409.654C165.277 412.361 166.606 414.847 168.559 416.799C170.511 418.751 172.998 420.08 175.705 420.618C178.413 421.157 181.22 420.88 183.771 419.824C186.322 418.769 188.501 416.979 190.035 414.685C191.569 412.389 192.388 409.691 192.388 406.931C192.388 403.23 190.917 399.679 188.299 397.062C185.682 394.445 182.131 392.974 178.429 392.974Z" fill="#3E3126"/>
<path d="M202.322 437.504C203.828 437.504 205.048 436.283 205.048 434.779C205.048 433.273 203.828 432.052 202.322 432.052C200.815 432.052 199.594 433.273 199.594 434.779C199.594 436.283 200.815 437.504 202.322 437.504Z" fill="#3E3126"/>
<path d="M3.71686 178.89C5.47386 178.89 6.89821 177.466 6.89821 175.709C6.89821 173.954 5.47386 172.53 3.71686 172.53C1.95986 172.53 0.535522 173.954 0.535522 175.709C0.535522 177.466 1.95986 178.89 3.71686 178.89Z" fill="#3E3126"/>
<path d="M225.436 7.50545C227.194 7.50545 228.618 6.08141 228.618 4.32475C228.618 2.5681 227.194 1.14404 225.436 1.14404C223.679 1.14404 222.255 2.5681 222.255 4.32475C222.255 6.08141 223.679 7.50545 225.436 7.50545Z" fill="#3E3126"/>
<path d="M283.609 113.577C283.353 113.641 283.085 113.641 282.83 113.577C282.599 113.485 282.389 113.347 282.211 113.173C282.033 112.998 281.892 112.79 281.795 112.561C281.699 112.331 281.649 112.085 281.649 111.836C281.648 111.587 281.696 111.341 281.791 111.111L292.245 86.5088C292.433 86.044 292.8 85.6734 293.262 85.4786C293.726 85.2838 294.247 85.2809 294.712 85.4701C295.177 85.6596 295.548 86.0259 295.742 86.4884C295.937 86.9511 295.94 87.472 295.75 87.9369L285.363 112.409C285.236 112.767 284.997 113.075 284.68 113.286C284.364 113.496 283.988 113.599 283.609 113.577Z" fill="#3E3126"/>
<path d="M297.309 101.78C297.074 101.837 296.829 101.837 296.596 101.78C296.365 101.687 296.154 101.549 295.976 101.375C295.799 101.2 295.658 100.993 295.561 100.763C295.464 100.534 295.415 100.288 295.413 100.039C295.412 99.7897 295.462 99.5432 295.556 99.313L301.075 86.3307C301.168 86.1004 301.306 85.891 301.481 85.7143C301.656 85.5375 301.864 85.3969 302.094 85.3004C302.322 85.204 302.568 85.1536 302.817 85.1521C303.065 85.1508 303.311 85.1982 303.542 85.292C303.772 85.3857 303.982 85.524 304.159 85.6987C304.335 85.8734 304.476 86.0812 304.573 86.3103C304.668 86.5393 304.719 86.7851 304.721 87.0337C304.722 87.2822 304.675 87.5286 304.581 87.7587L298.997 100.741C298.846 101.059 298.607 101.326 298.307 101.511C298.008 101.695 297.661 101.788 297.309 101.78Z" fill="#3E3126"/>
</g>
</svg>
