<svg width="38" height="38" viewBox="0 0 38 38" fill="none" xmlns="http://www.w3.org/2000/svg">
<path d="M1.58301 19C1.58301 23.6192 3.41797 28.0492 6.68423 31.3155C9.95049 34.5817 14.3805 36.4167 18.9997 36.4167C23.6189 36.4167 28.0489 34.5817 31.3151 31.3155C34.5814 28.0492 36.4163 23.6192 36.4163 19C36.4163 14.3809 34.5814 9.95086 31.3151 6.6846C28.0489 3.41834 23.6189 1.58337 18.9997 1.58337C14.3805 1.58337 9.95049 3.41834 6.68423 6.6846C3.41797 9.95086 1.58301 14.3809 1.58301 19Z" fill="#ECF2FF"/>
<path d="M18.9997 31.6667C23.2082 31.6677 27.2748 30.1449 30.4474 27.3797C33.62 24.6146 35.6841 20.7942 36.258 16.625C36.5788 18.9881 36.4109 21.3918 35.7647 23.6874C35.1185 25.9829 34.0078 28.1213 32.5013 29.97C30.9949 31.8186 29.1249 33.3383 27.0071 34.4347C24.8893 35.5311 22.569 36.1809 20.1898 36.3439C17.8106 36.5068 15.4233 36.1794 13.1759 35.382C10.9284 34.5846 8.8686 33.3341 7.12417 31.7081C5.37974 30.0821 3.98782 28.1151 3.03466 25.9292C2.0815 23.7432 1.58742 21.3847 1.58302 19C1.58198 18.2057 1.63488 17.4122 1.74136 16.625C2.31524 20.7942 4.37935 24.6146 7.55198 27.3797C10.7246 30.1449 14.7912 31.6677 18.9997 31.6667Z" fill="#A4BFFB"/>
<path d="M1.58301 19C1.58301 23.6192 3.41797 28.0492 6.68423 31.3155C9.95049 34.5817 14.3805 36.4167 18.9997 36.4167C23.6189 36.4167 28.0489 34.5817 31.3151 31.3155C34.5814 28.0492 36.4163 23.6192 36.4163 19C36.4163 14.3809 34.5814 9.95086 31.3151 6.6846C28.0489 3.41834 23.6189 1.58337 18.9997 1.58337C14.3805 1.58337 9.95049 3.41834 6.68423 6.6846C3.41797 9.95086 1.58301 14.3809 1.58301 19Z" stroke="#00303E" stroke-linecap="round" stroke-linejoin="round"/>
<path d="M19 9.5V28.5" stroke="#00303E" stroke-linecap="round" stroke-linejoin="round"/>
<path d="M28.5 19H9.5" stroke="#00303E" stroke-linecap="round" stroke-linejoin="round"/>
</svg>
