<svg width="24" height="25" viewBox="0 0 24 25" fill="none" xmlns="http://www.w3.org/2000/svg">
<g clip-path="url(#clip0_55_947)">
<path d="M0.5 12.5C0.5 14.0102 0.797456 15.5056 1.37539 16.9009C1.95331 18.2961 2.8004 19.5639 3.86827 20.6317C4.93615 21.6996 6.2039 22.5467 7.59914 23.1246C8.99438 23.7025 10.4898 24 12 24C13.5102 24 15.0056 23.7025 16.4009 23.1246C17.7961 22.5467 19.0639 21.6996 20.1317 20.6317C21.1996 19.5639 22.0467 18.2961 22.6246 16.9009C23.2025 15.5056 23.5 14.0102 23.5 12.5C23.5 10.9898 23.2025 9.49438 22.6246 8.09914C22.0467 6.7039 21.1996 5.43615 20.1317 4.36827C19.0639 3.3004 17.7961 2.45331 16.4009 1.87539C15.0056 1.29746 13.5102 1 12 1C10.4898 1 8.99438 1.29746 7.59914 1.87539C6.2039 2.45331 4.93615 3.3004 3.86827 4.36827C2.8004 5.43615 1.95331 6.7039 1.37539 8.09914C0.797456 9.49438 0.5 10.9898 0.5 12.5Z" fill="#A4BFFB"/>
<path d="M11 11.5V6.5H13V11.5H18V13.5H13V18.5H11V13.5H6V11.5H11Z" fill="#7179CE"/>
<path d="M12 19C9.38542 18.9986 6.84934 18.1064 4.8099 16.4703C2.77045 14.8342 1.34939 12.5521 0.781 10C0.402032 11.6827 0.406436 13.4291 0.793887 15.1099C1.18134 16.7907 1.94191 18.3628 3.01928 19.7097C4.09665 21.0567 5.46322 22.1441 7.0178 22.8914C8.57238 23.6387 10.2751 24.0267 12 24.0267C13.7249 24.0267 15.4276 23.6387 16.9822 22.8914C18.5368 22.1441 19.9033 21.0567 20.9807 19.7097C22.0581 18.3628 22.8187 16.7907 23.2061 15.1099C23.5936 13.4291 23.598 11.6827 23.219 10C22.6506 12.5521 21.2296 14.8342 19.1901 16.4703C17.1507 18.1064 14.6146 18.9986 12 19Z" fill="#CEDFFF"/>
<path d="M0.5 12.5C0.5 14.0102 0.797456 15.5056 1.37539 16.9009C1.95331 18.2961 2.8004 19.5639 3.86827 20.6317C4.93615 21.6996 6.2039 22.5467 7.59914 23.1246C8.99438 23.7025 10.4898 24 12 24C13.5102 24 15.0056 23.7025 16.4009 23.1246C17.7961 22.5467 19.0639 21.6996 20.1317 20.6317C21.1996 19.5639 22.0467 18.2961 22.6246 16.9009C23.2025 15.5056 23.5 14.0102 23.5 12.5C23.5 10.9898 23.2025 9.49438 22.6246 8.09914C22.0467 6.7039 21.1996 5.43615 20.1317 4.36827C19.0639 3.3004 17.7961 2.45331 16.4009 1.87539C15.0056 1.29746 13.5102 1 12 1C10.4898 1 8.99438 1.29746 7.59914 1.87539C6.2039 2.45331 4.93615 3.3004 3.86827 4.36827C2.8004 5.43615 1.95331 6.7039 1.37539 8.09914C0.797456 9.49438 0.5 10.9898 0.5 12.5Z" stroke="#00303E" stroke-linecap="round" stroke-linejoin="round"/>
</g>
<defs>
<clipPath id="clip0_55_947">
<rect width="24" height="24" fill="white" transform="translate(0 0.5)"/>
</clipPath>
</defs>
</svg>
