<svg width="30" height="19" viewBox="0 0 30 19" fill="none" xmlns="http://www.w3.org/2000/svg">
<path d="M12.451 7.62093C12.9602 6.82832 13.251 5.88271 13.2342 4.86889C13.1891 2.15593 10.9313 0 8.21794 0H0.642511C0.287692 0 0 0.287693 0 0.642511V17.3018C0 17.6566 0.287692 17.9443 0.642511 17.9443H9.10457C12.2453 17.9443 14.847 15.427 14.8598 12.2863C14.8677 10.3614 13.9132 8.6549 12.451 7.62093ZM3.32338 3.32338H8.28263C9.18075 3.32338 9.9115 4.05407 9.9115 4.95225C9.9115 5.85037 9.18081 6.58112 8.28263 6.58112H3.32338V3.32338ZM9.17837 14.6209H3.32338V9.9045H8.28263H9.17831C10.4786 9.9045 11.5365 10.9624 11.5365 12.2627C11.5365 13.563 10.4787 14.6209 9.17837 14.6209Z" fill="#0067FF"/>
<path d="M29.4203 11.1049C29.4203 7.22577 26.3629 4.06995 22.6048 4.06995C18.8467 4.06995 15.7893 7.22584 15.7893 11.1049C15.7893 14.984 18.8468 18.1399 22.6048 18.1399C24.8851 18.1399 27.004 16.9709 28.2729 15.0128C28.4311 14.7687 28.5748 14.5136 28.7023 14.2507C28.7948 14.0598 28.6544 13.8377 28.4423 13.8372L25.092 13.8288C25.0179 13.8286 24.9476 13.8589 24.8945 13.9106C24.2618 14.5257 23.4862 14.8165 22.6048 14.8165C20.9398 14.8165 19.5441 13.5712 19.1966 11.9111H28.7533C29.1217 11.9111 29.4203 11.6125 29.4203 11.2441V11.1049ZM22.6048 7.39333C23.8242 7.39333 24.899 8.06157 25.5238 9.07116H19.6858C20.3106 8.06157 21.3854 7.39333 22.6048 7.39333Z" fill="#0067FF"/>
<path d="M25.4366 3.24419H19.3916C19.1095 3.24419 18.8809 3.01554 18.8809 2.73349V1.217C18.8809 0.934951 19.1095 0.706299 19.3916 0.706299H25.4366C25.7186 0.706299 25.9473 0.934951 25.9473 1.217V2.73349C25.9473 3.0156 25.7186 3.24419 25.4366 3.24419Z" fill="#0067FF"/>
</svg>
