<svg width="18" height="18" viewBox="0 0 18 18" fill="none" xmlns="http://www.w3.org/2000/svg">
<g clip-path="url(#clip0_293_7232)">
<path d="M11.25 15.375C11.25 15.9717 11.0129 16.544 10.591 16.966C10.169 17.3879 9.59674 17.625 9 17.625C8.40326 17.625 7.83097 17.3879 7.40901 16.966C6.98705 16.544 6.75 15.9717 6.75 15.375H11.25Z" stroke="#1B3DBC" stroke-linecap="round" stroke-linejoin="round"/>
<path d="M15.375 13.1252V8.25021C15.3736 6.95019 14.9747 5.68169 14.2319 4.61477C13.4892 3.54785 12.438 2.73352 11.2192 2.28096C11.1334 1.75385 10.8629 1.27445 10.456 0.928497C10.0492 0.58254 9.53255 0.392578 8.9985 0.392578C8.46445 0.392578 7.94781 0.58254 7.54096 0.928497C7.13411 1.27445 6.86358 1.75385 6.77775 2.28096C5.55919 2.73337 4.5082 3.54775 3.76588 4.61477C3.02357 5.68179 2.62546 6.95037 2.625 8.25021V13.1252C2.625 13.7219 2.38795 14.2942 1.96599 14.7162C1.54403 15.1382 0.971737 15.3752 0.375 15.3752H17.625C17.0283 15.3752 16.456 15.1382 16.034 14.7162C15.6121 14.2942 15.375 13.7219 15.375 13.1252Z" stroke="#1B3DBC" stroke-linecap="round" stroke-linejoin="round"/>
</g>
<defs>
<clipPath id="clip0_293_7232">
<rect width="18" height="18" fill="white"/>
</clipPath>
</defs>
</svg>
