<svg width="18" height="18" viewBox="0 0 18 18" fill="none" xmlns="http://www.w3.org/2000/svg">
<g clip-path="url(#clip0_572_4885)">
<path d="M2.25 17.5449C2.25 15.6553 3.00067 13.843 4.33686 12.5068C5.67306 11.1706 7.48533 10.4199 9.375 10.4199C11.2647 10.4199 13.0769 11.1706 14.4131 12.5068C15.7493 13.843 16.5 15.6553 16.5 17.5449H2.25Z" fill="#CEDFFF"/>
<path d="M9.375 13.2506C10.7648 13.2508 12.1242 13.6574 13.2858 14.4204C14.4474 15.1834 15.3605 16.2695 15.9127 17.5449H16.5C16.5 15.6553 15.7493 13.843 14.4131 12.5068C13.0769 11.1706 11.2647 10.4199 9.375 10.4199C7.48533 10.4199 5.67306 11.1706 4.33686 12.5068C3.00067 13.843 2.25 15.6553 2.25 17.5449H2.8373C3.38945 16.2695 4.30255 15.1834 5.46417 14.4204C6.62579 13.6574 7.9852 13.2508 9.375 13.2506Z" fill="#CEDFFF"/>
<path d="M2.25 17.5449C2.25 15.6553 3.00067 13.843 4.33686 12.5068C5.67306 11.1706 7.48533 10.4199 9.375 10.4199C11.2647 10.4199 13.0769 11.1706 14.4131 12.5068C15.7493 13.843 16.5 15.6553 16.5 17.5449H2.25Z" stroke="#1B3DBC" stroke-linecap="round" stroke-linejoin="round"/>
<path d="M9.375 12.4551V14.9997" stroke="#1B3DBC" stroke-linecap="round" stroke-linejoin="round"/>
<circle cx="9.37514" cy="4.82143" r="3.57143" fill="#CEDFFF" stroke="#1B3DBC"/>
</g>
<defs>
<clipPath id="clip0_572_4885">
<rect width="18" height="18" fill="white"/>
</clipPath>
</defs>
</svg>
