<svg width="17" height="18" viewBox="0 0 17 18" fill="none" xmlns="http://www.w3.org/2000/svg">
<path d="M2.47913 9.00081C2.47913 10.5976 3.11346 12.1291 4.24259 13.2582C5.37171 14.3873 6.90313 15.0216 8.49996 15.0216C10.0968 15.0216 11.6282 14.3873 12.7573 13.2582C13.8865 12.1291 14.5208 10.5976 14.5208 9.00081C14.5208 7.40399 13.8865 5.87257 12.7573 4.74344C11.6282 3.61432 10.0968 2.97998 8.49996 2.97998C6.90313 2.97998 5.37171 3.61432 4.24259 4.74344C3.11346 5.87257 2.47913 7.40399 2.47913 9.00081Z" fill="#9FEAFF"/>
<path d="M4.24295 13.2578C3.67719 12.7003 3.22736 12.0362 2.91937 11.304C2.61138 10.5719 2.45131 9.78595 2.4484 8.99162C2.4455 8.19729 2.5998 7.41023 2.90241 6.6758C3.20503 5.94136 3.64999 5.27407 4.21165 4.71237C4.77331 4.15066 5.44056 3.70565 6.17497 3.40297C6.90938 3.10029 7.69642 2.94593 8.49075 2.94877C9.28508 2.95161 10.071 3.11161 10.8032 3.41954C11.5354 3.72747 12.1995 4.17725 12.7571 4.74296L4.24295 13.2578Z" fill="#DFF9FF"/>
<path d="M2.47913 9.00081C2.47913 10.5976 3.11346 12.1291 4.24259 13.2582C5.37171 14.3873 6.90313 15.0216 8.49996 15.0216C10.0968 15.0216 11.6282 14.3873 12.7573 13.2582C13.8865 12.1291 14.5208 10.5976 14.5208 9.00081C14.5208 7.40399 13.8865 5.87257 12.7573 4.74344C11.6282 3.61432 10.0968 2.97998 8.49996 2.97998C6.90313 2.97998 5.37171 3.61432 4.24259 4.74344C3.11346 5.87257 2.47913 7.40399 2.47913 9.00081Z" fill="#CEDFFF" stroke="#00303E" stroke-linecap="round" stroke-linejoin="round"/>
<path d="M10.9806 9.00081H8.50146V5.10498" fill="#A4BFFB"/>
<path d="M10.9806 9.00081H8.50146V5.10498" stroke="#00303E" stroke-linecap="round" stroke-linejoin="round"/>
</svg>
