<svg width="15" height="15" viewBox="0 0 15 15" fill="none" xmlns="http://www.w3.org/2000/svg">
<g clip-path="url(#clip0_275_3316)">
<path d="M10 2.1875C10.1658 2.1875 10.3247 2.25335 10.4419 2.37056C10.5592 2.48777 10.625 2.64674 10.625 2.8125V12.8125C10.625 12.9783 10.5592 13.1372 10.4419 13.2544C10.3247 13.3717 10.1658 13.4375 10 13.4375H1.25C1.08424 13.4375 0.925268 13.3717 0.808058 13.2544C0.690848 13.1372 0.625 12.9783 0.625 12.8125V2.8125C0.625 2.64674 0.690848 2.48777 0.808058 2.37056C0.925268 2.25335 1.08424 2.1875 1.25 2.1875H10Z" fill="#CEDFFF"/>
<path d="M9.0625 3.75C9.0625 3.91576 8.99665 4.07473 8.87944 4.19194C8.76223 4.30915 8.60326 4.375 8.4375 4.375H2.8125C2.64674 4.375 2.48777 4.30915 2.37056 4.19194C2.25335 4.07473 2.1875 3.91576 2.1875 3.75V2.1875H9.0625V3.75Z" fill="#A4BFFB"/>
<path d="M10 13.4375C10.1658 13.4375 10.3247 13.3717 10.4419 13.2544C10.5592 13.1372 10.625 12.9783 10.625 12.8125V5.3125H7.1875C7.02174 5.3125 6.86277 5.37835 6.74556 5.49556C6.62835 5.61277 6.5625 5.77174 6.5625 5.9375V13.4375H10Z" fill="#A4BFFB"/>
<path d="M6.25 13.4375H1.25C1.08424 13.4375 0.925268 13.3717 0.808058 13.2544C0.690848 13.1372 0.625 12.9783 0.625 12.8125V2.8125C0.625 2.64674 0.690848 2.48777 0.808058 2.37056C0.925268 2.25335 1.08424 2.1875 1.25 2.1875H2.5" stroke="#00303E" stroke-linecap="round" stroke-linejoin="round"/>
<path d="M8.75 2.1875H10C10.1658 2.1875 10.3247 2.25335 10.4419 2.37056C10.5592 2.48777 10.625 2.64674 10.625 2.8125V5" stroke="#00303E" stroke-linecap="round" stroke-linejoin="round"/>
<path d="M6.50938 1.5625H8.125C8.29076 1.5625 8.44973 1.62835 8.56694 1.74556C8.68415 1.86277 8.75 2.02174 8.75 2.1875V2.8125C8.75 2.97826 8.68415 3.13723 8.56694 3.25444C8.44973 3.37165 8.29076 3.4375 8.125 3.4375H3.125C2.95924 3.4375 2.80027 3.37165 2.68306 3.25444C2.56585 3.13723 2.5 2.97826 2.5 2.8125V2.1875C2.5 2.02174 2.56585 1.86277 2.68306 1.74556C2.80027 1.62835 2.95924 1.5625 3.125 1.5625H4.74062" fill="#CEDFFF"/>
<path d="M6.50937 1.5625H8.125C8.29076 1.5625 8.44973 1.62835 8.56694 1.74556C8.68415 1.86277 8.75 2.02174 8.75 2.1875V2.8125C8.75 2.97826 8.68415 3.13723 8.56694 3.25444C8.44973 3.37165 8.29076 3.4375 8.125 3.4375H3.125C2.95924 3.4375 2.80027 3.37165 2.68306 3.25444C2.56585 3.13723 2.5 2.97826 2.5 2.8125V2.1875C2.5 2.02174 2.56585 1.86277 2.68306 1.74556C2.80027 1.62835 2.95924 1.5625 3.125 1.5625H4.74063" stroke="#00303E" stroke-linecap="round" stroke-linejoin="round"/>
<path d="M5.625 2.1875C5.81042 2.1875 5.99168 2.13252 6.14585 2.0295C6.30002 1.92649 6.42018 1.78007 6.49114 1.60877C6.56209 1.43746 6.58066 1.24896 6.54449 1.0671C6.50831 0.885246 6.41902 0.7182 6.28791 0.587088C6.1568 0.455976 5.98975 0.366688 5.8079 0.330514C5.62604 0.294341 5.43754 0.312906 5.26623 0.383863C5.09493 0.454821 4.94851 0.574982 4.8455 0.729153C4.74248 0.883324 4.6875 1.06458 4.6875 1.25C4.6875 1.49864 4.78627 1.7371 4.96209 1.91291C5.1379 2.08873 5.37636 2.1875 5.625 2.1875Z" fill="#A4BFFB" stroke="#00303E" stroke-linecap="round" stroke-linejoin="round"/>
<path d="M14.375 14.0625C14.375 14.2283 14.3092 14.3872 14.1919 14.5044C14.0747 14.6217 13.9158 14.6875 13.75 14.6875H8.125C7.95924 14.6875 7.80027 14.6217 7.68306 14.5044C7.56585 14.3872 7.5 14.2283 7.5 14.0625V6.875C7.5 6.70924 7.56585 6.55027 7.68306 6.43306C7.80027 6.31585 7.95924 6.25 8.125 6.25H12.5538C12.7195 6.25004 12.8784 6.31591 12.9956 6.43313L14.1919 7.62937C14.3091 7.74656 14.375 7.9055 14.375 8.07125V14.0625Z" fill="white" stroke="#00303E" stroke-linecap="round" stroke-linejoin="round"/>
<path d="M9.375 9.0625H12.5" stroke="#00303E" stroke-linecap="round" stroke-linejoin="round"/>
<path d="M9.375 10.9375H12.5" stroke="#00303E" stroke-linecap="round" stroke-linejoin="round"/>
</g>
<defs>
<clipPath id="clip0_275_3316">
<rect width="15" height="15" fill="white"/>
</clipPath>
</defs>
</svg>
