<svg width="18" height="18" viewBox="0 0 18 18" fill="none" xmlns="http://www.w3.org/2000/svg">
<g clip-path="url(#clip0_281_3756)">
<path d="M9 17.625C10.7059 17.625 12.3734 17.1192 13.7918 16.1714C15.2102 15.2237 16.3157 13.8767 16.9685 12.3006C17.6213 10.7246 17.7921 8.99044 17.4593 7.31735C17.1265 5.64426 16.305 4.10744 15.0988 2.90121C13.8926 1.69498 12.3557 0.873528 10.6827 0.540731C9.00957 0.207933 7.27537 0.378737 5.69936 1.03154C4.12334 1.68435 2.7763 2.78984 1.82857 4.20821C0.880847 5.62658 0.375 7.29414 0.375 9C0.375 11.2875 1.2837 13.4813 2.9012 15.0988C4.51871 16.7163 6.71251 17.625 9 17.625Z" fill="#CEDFFF"/>
<path d="M9.00002 0.375006C7.28134 0.37515 5.60189 0.888759 4.17712 1.84995C2.75235 2.81114 1.64722 4.17607 1.00352 5.76965C0.359817 7.36324 0.206888 9.11279 0.56435 10.7939C0.921812 12.475 1.77336 14.011 3.00977 15.2048L15.2048 3.00976C14.4013 2.17529 13.4376 1.51177 12.3713 1.05901C11.3051 0.606255 10.1584 0.373598 9.00002 0.375006Z" fill="#DFF9FF"/>
<path d="M9 17.625C10.7059 17.625 12.3734 17.1192 13.7918 16.1714C15.2102 15.2237 16.3157 13.8767 16.9685 12.3006C17.6213 10.7246 17.7921 8.99044 17.4593 7.31735C17.1265 5.64426 16.305 4.10744 15.0988 2.90121C13.8926 1.69498 12.3557 0.873528 10.6827 0.540731C9.00957 0.207933 7.27537 0.378737 5.69936 1.03154C4.12334 1.68435 2.7763 2.78984 1.82857 4.20821C0.880847 5.62658 0.375 7.29414 0.375 9C0.375 11.2875 1.2837 13.4813 2.9012 15.0988C4.51871 16.7163 6.71251 17.625 9 17.625Z" stroke="#1B3DBC" stroke-linecap="round" stroke-linejoin="round"/>
<path d="M10.5 6.375H8.8905C8.57734 6.37511 8.27339 6.48093 8.02787 6.67532C7.78235 6.8697 7.60964 7.14127 7.53769 7.44605C7.46575 7.75083 7.4988 8.07098 7.63147 8.35463C7.76415 8.63829 7.9887 8.86886 8.26875 9.009L9.73125 9.741C10.0113 9.88114 10.2358 10.1117 10.3685 10.3954C10.5012 10.679 10.5342 10.9992 10.4623 11.3039C10.3904 11.6087 10.2176 11.8803 9.97213 12.0747C9.72661 12.2691 9.42266 12.3749 9.1095 12.375H7.5" stroke="#1B3DBC" stroke-linecap="round" stroke-linejoin="round"/>
<path d="M8.625 12.375V13.5" stroke="#1B3DBC" stroke-linecap="round" stroke-linejoin="round"/>
<path d="M9.375 5.25V6.375" stroke="#1B3DBC" stroke-linecap="round" stroke-linejoin="round"/>
</g>
<defs>
<clipPath id="clip0_281_3756">
<rect width="18" height="18" fill="white"/>
</clipPath>
</defs>
</svg>
