<svg width="16" height="17" viewBox="0 0 16 17" fill="none" xmlns="http://www.w3.org/2000/svg">
<path d="M4.6665 5.37793H3.99984C3.64622 5.37793 3.30708 5.51841 3.05703 5.76845C2.80698 6.0185 2.6665 6.35764 2.6665 6.71126V12.7113C2.6665 13.0649 2.80698 13.404 3.05703 13.6541C3.30708 13.9041 3.64622 14.0446 3.99984 14.0446H9.99984C10.3535 14.0446 10.6926 13.9041 10.9426 13.6541C11.1927 13.404 11.3332 13.0649 11.3332 12.7113V12.0446" stroke="white" stroke-linecap="round" stroke-linejoin="round"/>
<path d="M10.6667 4.04434L12.6667 6.04434M13.59 5.10101C13.8526 4.83844 14.0001 4.48233 14.0001 4.11101C14.0001 3.73969 13.8526 3.38357 13.59 3.12101C13.3274 2.85844 12.9713 2.71094 12.6 2.71094C12.2287 2.71094 11.8726 2.85844 11.61 3.12101L6 8.71101V10.711H8L13.59 5.10101Z" stroke="white" stroke-linecap="round" stroke-linejoin="round"/>
</svg>
