<svg width="16" height="19" viewBox="0 0 16 19" fill="none" xmlns="http://www.w3.org/2000/svg">
<path d="M12.2501 5.24966C12.2501 6.37683 11.8023 7.45784 11.0053 8.25486C10.2082 9.05189 9.12723 9.49966 8.00006 9.49966C6.87289 9.49966 5.79189 9.05189 4.99486 8.25486C4.19783 7.45784 3.75006 6.37683 3.75006 5.24966C3.74583 4.4893 3.94987 3.74229 4.34006 3.08966C5.33652 4.12059 6.6231 4.8239 8.02884 5.10612C9.43458 5.38834 10.8929 5.23611 12.2101 4.66966C12.2387 4.86164 12.252 5.05558 12.2501 5.24966Z" stroke="#00303E" stroke-linecap="round" stroke-linejoin="round"/>
<path d="M12.2098 4.66974C10.8927 5.23619 9.43436 5.38842 8.02862 5.1062C6.62288 4.82398 5.3363 4.12067 4.33984 3.08974C4.78836 2.32998 5.46221 1.72864 6.26791 1.36914C7.07361 1.00964 7.97122 0.909791 8.83623 1.08345C9.70124 1.25711 10.4908 1.69567 11.0953 2.33829C11.6998 2.98091 12.0893 3.79574 12.2098 4.66974Z" stroke="#00303E" stroke-linecap="round" stroke-linejoin="round"/>
<path d="M1 17.9997C1 16.1432 1.7375 14.3627 3.05025 13.0499C4.36301 11.7372 6.14348 10.9997 8 10.9997C9.85652 10.9997 11.637 11.7372 12.9497 13.0499C14.2625 14.3627 15 16.1432 15 17.9997H1Z" stroke="#00303E" stroke-linecap="round" stroke-linejoin="round"/>
<path d="M8 12.9997V15.4997" stroke="#00303E" stroke-linecap="round" stroke-linejoin="round"/>
</svg>
