<svg width="18" height="19" viewBox="0 0 18 19" fill="none" xmlns="http://www.w3.org/2000/svg">
<path d="M3 11.8896C3 11.0644 3.31607 10.2731 3.87868 9.68958C4.44129 9.10611 5.20435 8.77832 6 8.77832H12C12.7956 8.77832 13.5587 9.10611 14.1213 9.68958C14.6839 10.2731 15 11.0644 15 11.8896C15 12.3021 14.842 12.6978 14.5607 12.9896C14.2794 13.2813 13.8978 13.4452 13.5 13.4452H4.5C4.10218 13.4452 3.72064 13.2813 3.43934 12.9896C3.15804 12.6978 3 12.3021 3 11.8896Z" fill="#CEDFFF"/>
<path d="M3 11.8896C3 11.0644 3.31607 10.2731 3.87868 9.68958C4.44129 9.10611 5.20435 8.77832 6 8.77832H12C12.7956 8.77832 13.5587 9.10611 14.1213 9.68958C14.6839 10.2731 15 11.0644 15 11.8896C15 12.3021 14.842 12.6978 14.5607 12.9896C14.2794 13.2813 13.8978 13.4452 13.5 13.4452H4.5C4.10218 13.4452 3.72064 13.2813 3.43934 12.9896C3.15804 12.6978 3 12.3021 3 11.8896Z" stroke="#1B3DBC" stroke-linejoin="round"/>
<path d="M9 5.66687C10.2426 5.66687 11.25 4.62215 11.25 3.33343C11.25 2.04471 10.2426 1 9 1C7.75736 1 6.75 2.04471 6.75 3.33343C6.75 4.62215 7.75736 5.66687 9 5.66687Z" fill="#CEDFFF" stroke="#1B3DBC"/>
<path d="M10.9373 15.7642L10.8274 15.8625L10.8603 16.0062L11.4582 18.6227L11.4581 18.6227L11.4585 18.6243C11.4634 18.6451 11.4622 18.6671 11.4552 18.6869C11.4482 18.7068 11.4363 18.7226 11.4222 18.7333L11.5734 18.9323L11.4222 18.7333C11.4082 18.7439 11.3926 18.7492 11.3773 18.7499C11.3623 18.7506 11.3467 18.7467 11.3324 18.7379C11.3323 18.7378 11.3321 18.7377 11.332 18.7376L9.13454 17.3358L9.00011 17.25L8.86566 17.3357L6.66818 18.7372C6.66802 18.7373 6.66787 18.7374 6.66771 18.7375C6.65345 18.7463 6.6379 18.7502 6.62283 18.7495C6.60759 18.7488 6.59197 18.7435 6.578 18.7328C6.56392 18.7222 6.55194 18.7063 6.54497 18.6865C6.53798 18.6667 6.53676 18.6447 6.54167 18.6238L6.54202 18.6223L7.13992 16.0058L7.17276 15.862L7.06286 15.7638L5.10713 14.0145C5.09371 14.0021 5.08299 13.9849 5.07755 13.9644C5.07202 13.9435 5.07252 13.9213 5.07891 13.9009C5.08528 13.8805 5.09687 13.8638 5.11088 13.8522C5.12447 13.8409 5.13985 13.8346 5.15504 13.8329L7.72084 13.6164L7.87488 13.6034L7.93208 13.4598L8.92134 10.9762L8.92171 10.9753C8.92926 10.9561 8.94157 10.9411 8.95567 10.9313C8.96965 10.9216 8.9851 10.917 9.00009 10.917C9.01507 10.917 9.03052 10.9216 9.0445 10.9313C9.0586 10.9411 9.07091 10.9561 9.07846 10.9753L9.07884 10.9762L10.0681 13.4598L10.1253 13.6034L10.2793 13.6164L12.8453 13.8329C12.8606 13.8346 12.876 13.8408 12.8897 13.8522C12.9037 13.8638 12.9153 13.8805 12.9217 13.9009C12.9281 13.9214 12.9286 13.9437 12.923 13.9645C12.9175 13.9851 12.9067 14.0024 12.8932 14.0148C12.8931 14.0149 12.8929 14.0151 12.8928 14.0152L10.9373 15.7642Z" fill="#CEDFFF" stroke="#1B3DBC" stroke-width="0.5"/>
<path d="M17.7072 13.689L16.4026 14.8558L16.8012 16.6002C16.8118 16.645 16.8093 16.6921 16.794 16.7354C16.7788 16.7788 16.7515 16.8165 16.7156 16.8437C16.6797 16.871 16.6368 16.8866 16.5924 16.8886C16.5479 16.8906 16.5039 16.8789 16.4659 16.8549L15.0001 15.9198L13.5342 16.8547C13.4962 16.8786 13.4522 16.8903 13.4077 16.8883C13.3633 16.8863 13.3204 16.8707 13.2845 16.8435C13.2486 16.8162 13.2213 16.7785 13.2061 16.7352C13.1908 16.6918 13.1883 16.6447 13.1989 16.5999L13.5975 14.8556L12.2929 13.6888C12.2597 13.6585 12.2357 13.6188 12.2239 13.5745C12.2122 13.5302 12.2132 13.4834 12.2269 13.4397C12.2405 13.396 12.2662 13.3575 12.3007 13.3288C12.3353 13.3001 12.3772 13.2825 12.4212 13.2782L14.1332 13.1337L14.7927 11.478C14.8095 11.4353 14.8382 11.3987 14.8752 11.373C14.9121 11.3472 14.9556 11.3335 15.0001 11.3335C15.0445 11.3335 15.088 11.3472 15.125 11.373C15.1619 11.3987 15.1906 11.4353 15.2074 11.478L15.8669 13.1337L17.5789 13.2782C17.623 13.2824 17.665 13.3 17.6996 13.3287C17.7342 13.3574 17.7599 13.396 17.7735 13.4398C17.7872 13.4835 17.7882 13.5304 17.7764 13.5747C17.7646 13.619 17.7405 13.6588 17.7072 13.689Z" fill="#ECF2FF"/>
<mask id="path-6-inside-1_359_4529" fill="white">
<path d="M17.9782 13.3688C17.9514 13.2833 17.9009 13.2081 17.8329 13.1524C17.7649 13.0967 17.6826 13.0632 17.5962 13.0559L16.0158 12.9237L15.4056 11.3933C15.3726 11.3099 15.3164 11.2385 15.2442 11.1883C15.172 11.1381 15.0871 11.1113 15.0001 11.1113C14.9132 11.1113 14.8283 11.1381 14.7561 11.1883C14.6839 11.2385 14.6277 11.3099 14.5947 11.3933L13.985 12.9234L12.4038 13.0559C12.3173 13.0635 12.2349 13.0974 12.1669 13.1533C12.0989 13.2093 12.0483 13.2848 12.0215 13.3704C11.9948 13.456 11.9929 13.5479 12.0162 13.6346C12.0396 13.7213 12.0871 13.7989 12.1528 13.8577L13.3582 14.9364L12.9909 16.5494C12.9704 16.637 12.9754 16.729 13.0054 16.8137C13.0354 16.8983 13.0889 16.9718 13.1592 17.0249C13.2295 17.0779 13.3135 17.1081 13.4004 17.1116C13.4872 17.1151 13.5732 17.0917 13.6472 17.0444L15 16.181L16.3536 17.0444C16.4277 17.0911 16.5134 17.1141 16.6 17.1103C16.6867 17.1066 16.7703 17.0763 16.8404 17.0234C16.9104 16.9705 16.9639 16.8972 16.9939 16.8129C17.0239 16.7285 17.0292 16.6368 17.0091 16.5494L16.6405 14.9362L17.8459 13.8574C17.9121 13.7987 17.96 13.7209 17.9836 13.6339C18.0072 13.5469 18.0053 13.4546 17.9782 13.3688ZM17.5673 13.5207L16.2628 14.6875C16.233 14.7141 16.2109 14.7487 16.1988 14.7874C16.1867 14.8262 16.1851 14.8676 16.1942 14.9073L16.5928 16.6519C16.5938 16.6543 16.5939 16.657 16.5931 16.6595C16.5922 16.662 16.5905 16.664 16.5882 16.6652C16.5834 16.6691 16.5821 16.6683 16.5781 16.6652L15.1122 15.7304C15.0785 15.7089 15.0396 15.6975 15 15.6975C14.9604 15.6975 14.9215 15.7089 14.8878 15.7304L13.422 16.6658C13.4179 16.6683 13.4169 16.6691 13.4118 16.6658C13.4095 16.6646 13.4078 16.6625 13.4069 16.6601C13.4061 16.6576 13.4062 16.6549 13.4072 16.6525L13.8058 14.9078C13.8149 14.8682 13.8133 14.8267 13.8012 14.788C13.7891 14.7492 13.767 14.7147 13.7372 14.6881L12.4327 13.5213C12.4295 13.5185 12.4265 13.516 12.4292 13.5074C12.4319 13.4988 12.434 13.4999 12.4381 13.4993L14.1503 13.356C14.1896 13.3525 14.2272 13.3378 14.2589 13.3136C14.2907 13.2894 14.3154 13.2566 14.3303 13.2187L14.9898 11.5627C14.992 11.558 14.9928 11.5558 14.9992 11.5558C15.0056 11.5558 15.0064 11.558 15.0086 11.5627L15.6697 13.2187C15.6848 13.2566 15.7096 13.2894 15.7415 13.3135C15.7734 13.3376 15.8112 13.3521 15.8505 13.3554L17.5628 13.4988C17.5668 13.4988 17.5692 13.4988 17.5716 13.5068C17.574 13.5149 17.5716 13.5179 17.5673 13.5207Z"/>
</mask>
<path d="M17.9782 13.3688C17.9514 13.2833 17.9009 13.2081 17.8329 13.1524C17.7649 13.0967 17.6826 13.0632 17.5962 13.0559L16.0158 12.9237L15.4056 11.3933C15.3726 11.3099 15.3164 11.2385 15.2442 11.1883C15.172 11.1381 15.0871 11.1113 15.0001 11.1113C14.9132 11.1113 14.8283 11.1381 14.7561 11.1883C14.6839 11.2385 14.6277 11.3099 14.5947 11.3933L13.985 12.9234L12.4038 13.0559C12.3173 13.0635 12.2349 13.0974 12.1669 13.1533C12.0989 13.2093 12.0483 13.2848 12.0215 13.3704C11.9948 13.456 11.9929 13.5479 12.0162 13.6346C12.0396 13.7213 12.0871 13.7989 12.1528 13.8577L13.3582 14.9364L12.9909 16.5494C12.9704 16.637 12.9754 16.729 13.0054 16.8137C13.0354 16.8983 13.0889 16.9718 13.1592 17.0249C13.2295 17.0779 13.3135 17.1081 13.4004 17.1116C13.4872 17.1151 13.5732 17.0917 13.6472 17.0444L15 16.181L16.3536 17.0444C16.4277 17.0911 16.5134 17.1141 16.6 17.1103C16.6867 17.1066 16.7703 17.0763 16.8404 17.0234C16.9104 16.9705 16.9639 16.8972 16.9939 16.8129C17.0239 16.7285 17.0292 16.6368 17.0091 16.5494L16.6405 14.9362L17.8459 13.8574C17.9121 13.7987 17.96 13.7209 17.9836 13.6339C18.0072 13.5469 18.0053 13.4546 17.9782 13.3688ZM17.5673 13.5207L16.2628 14.6875C16.233 14.7141 16.2109 14.7487 16.1988 14.7874C16.1867 14.8262 16.1851 14.8676 16.1942 14.9073L16.5928 16.6519C16.5938 16.6543 16.5939 16.657 16.5931 16.6595C16.5922 16.662 16.5905 16.664 16.5882 16.6652C16.5834 16.6691 16.5821 16.6683 16.5781 16.6652L15.1122 15.7304C15.0785 15.7089 15.0396 15.6975 15 15.6975C14.9604 15.6975 14.9215 15.7089 14.8878 15.7304L13.422 16.6658C13.4179 16.6683 13.4169 16.6691 13.4118 16.6658C13.4095 16.6646 13.4078 16.6625 13.4069 16.6601C13.4061 16.6576 13.4062 16.6549 13.4072 16.6525L13.8058 14.9078C13.8149 14.8682 13.8133 14.8267 13.8012 14.788C13.7891 14.7492 13.767 14.7147 13.7372 14.6881L12.4327 13.5213C12.4295 13.5185 12.4265 13.516 12.4292 13.5074C12.4319 13.4988 12.434 13.4999 12.4381 13.4993L14.1503 13.356C14.1896 13.3525 14.2272 13.3378 14.2589 13.3136C14.2907 13.2894 14.3154 13.2566 14.3303 13.2187L14.9898 11.5627C14.992 11.558 14.9928 11.5558 14.9992 11.5558C15.0056 11.5558 15.0064 11.558 15.0086 11.5627L15.6697 13.2187C15.6848 13.2566 15.7096 13.2894 15.7415 13.3135C15.7734 13.3376 15.8112 13.3521 15.8505 13.3554L17.5628 13.4988C17.5668 13.4988 17.5692 13.4988 17.5716 13.5068C17.574 13.5149 17.5716 13.5179 17.5673 13.5207Z" fill="black"/>
<path d="M17.9782 13.3688L17.0241 13.668L17.0244 13.6692L17.9782 13.3688ZM17.5962 13.0559L17.5129 14.0525L17.5129 14.0525L17.5962 13.0559ZM16.0158 12.9237L15.0869 13.2941L15.316 13.8687L15.9324 13.9202L16.0158 12.9237ZM15.4056 11.3933L14.4757 11.7612L14.4767 11.7636L15.4056 11.3933ZM14.5947 11.3933L15.5237 11.7634L15.5246 11.7612L14.5947 11.3933ZM13.985 12.9234L14.0685 13.9199L14.685 13.8683L14.914 13.2936L13.985 12.9234ZM12.4038 13.0559L12.3203 12.0594L12.3164 12.0598L12.4038 13.0559ZM12.1528 13.8577L11.4857 14.6027L11.4859 14.6029L12.1528 13.8577ZM13.3582 14.9364L14.3332 15.1584L14.464 14.5841L14.0251 14.1912L13.3582 14.9364ZM12.9909 16.5494L13.9646 16.7776L13.966 16.7714L12.9909 16.5494ZM13.6472 17.0444L14.1851 17.8874L14.1853 17.8874L13.6472 17.0444ZM15 16.181L15.5378 15.3379L14.9998 14.9948L14.462 15.3381L15 16.181ZM16.3536 17.0444L15.8158 17.8875L15.8204 17.8904L16.3536 17.0444ZM17.0091 16.5494L16.0342 16.7721L16.0345 16.7735L17.0091 16.5494ZM16.6405 14.9362L15.9736 14.191L15.5343 14.5841L15.6656 15.1589L16.6405 14.9362ZM17.8459 13.8574L17.1824 13.1092L17.179 13.1122L17.8459 13.8574ZM17.5673 13.5207L17.0234 12.6816L16.9584 12.7237L16.9007 12.7754L17.5673 13.5207ZM16.2628 14.6875L16.9292 15.4331L16.9294 15.4329L16.2628 14.6875ZM16.1942 14.9073L17.1691 14.6845L17.1689 14.6838L16.1942 14.9073ZM16.5928 16.6519L15.6179 16.8746L15.6381 16.9629L15.6738 17.0461L16.5928 16.6519ZM16.5882 16.6652L16.1208 15.7812L16.0355 15.8263L15.9604 15.8869L16.5882 16.6652ZM16.5781 16.6652L17.1834 15.8693L17.1506 15.8443L17.1158 15.8221L16.5781 16.6652ZM15.1122 15.7304L15.65 14.8873L15.6499 14.8872L15.1122 15.7304ZM14.8878 15.7304L14.3501 14.8872L14.3498 14.8874L14.8878 15.7304ZM13.422 16.6658L13.9503 17.5149L13.9599 17.5088L13.422 16.6658ZM13.4118 16.6658L13.9597 15.8293L13.9206 15.8036L13.8792 15.7818L13.4118 16.6658ZM13.4072 16.6525L14.3263 17.0466L14.3619 16.9634L14.3821 16.8752L13.4072 16.6525ZM13.8058 14.9078L12.8311 14.6844L12.8309 14.6851L13.8058 14.9078ZM13.7372 14.6881L13.0706 15.4334L13.0708 15.4336L13.7372 14.6881ZM12.4327 13.5213L13.0994 12.7759L13.093 12.7702L13.0866 12.7647L12.4327 13.5213ZM12.4381 13.4993L12.3546 12.5028L12.3278 12.5051L12.3011 12.5088L12.4381 13.4993ZM14.1503 13.356L14.2337 14.3525L14.2389 14.352L14.1503 13.356ZM14.3303 13.2187L13.4013 12.8488L13.4002 12.8516L14.3303 13.2187ZM14.9898 11.5627L14.0792 11.1495L14.0695 11.1709L14.0608 11.1927L14.9898 11.5627ZM15.0086 11.5627L15.9373 11.192L15.9287 11.1705L15.9192 11.1495L15.0086 11.5627ZM15.6697 13.2187L16.5987 12.8487L16.5984 12.848L15.6697 13.2187ZM15.8505 13.3554L15.767 14.3519L15.7671 14.3519L15.8505 13.3554ZM17.5628 13.4988L17.4793 14.4953L17.521 14.4988H17.5628V13.4988ZM18.9324 13.0695C18.8484 12.8018 18.6883 12.5603 18.4665 12.3787L17.1993 13.9261C17.1135 13.8558 17.0544 13.7649 17.0241 13.668L18.9324 13.0695ZM18.4665 12.3787C18.2442 12.1967 17.9707 12.0838 17.6796 12.0594L17.5129 14.0525C17.3945 14.0426 17.2856 13.9967 17.1993 13.9261L18.4665 12.3787ZM17.6796 12.0594L16.0992 11.9272L15.9324 13.9202L17.5129 14.0525L17.6796 12.0594ZM16.9447 12.5533L16.3345 11.0229L14.4767 11.7636L15.0869 13.2941L16.9447 12.5533ZM16.3354 11.0253C16.2315 10.7627 16.0523 10.5323 15.8151 10.3673L14.6733 12.0093C14.5805 11.9448 14.5136 11.857 14.4757 11.7612L16.3354 11.0253ZM15.8151 10.3673C15.5775 10.202 15.2937 10.1113 15.0001 10.1113V12.1113C14.8804 12.1113 14.7666 12.0742 14.6733 12.0093L15.8151 10.3673ZM15.0001 10.1113C14.7066 10.1113 14.4228 10.202 14.1851 10.3673L15.327 12.0093C15.2337 12.0742 15.1199 12.1113 15.0001 12.1113V10.1113ZM14.1851 10.3673C13.9479 10.5323 13.7688 10.7627 13.6649 11.0253L15.5246 11.7612C15.4867 11.857 15.4198 11.9448 15.327 12.0093L14.1851 10.3673ZM13.6657 11.0231L13.0561 12.5533L14.914 13.2936L15.5237 11.7634L13.6657 11.0231ZM13.9015 11.9269L12.3203 12.0594L12.4873 14.0525L14.0685 13.9199L13.9015 11.9269ZM12.3164 12.0598C12.0258 12.0853 11.7531 12.1989 11.5316 12.3811L12.8022 13.9256C12.7167 13.9959 12.6087 14.0418 12.4911 14.0521L12.3164 12.0598ZM11.5316 12.3811C11.3105 12.563 11.1509 12.8042 11.0672 13.0716L12.9759 13.6691C12.9458 13.7653 12.8873 13.8556 12.8022 13.9256L11.5316 12.3811ZM11.0672 13.0716C10.9836 13.3388 10.9779 13.6245 11.0506 13.8946L12.9819 13.3746C13.0079 13.4713 13.0059 13.5732 12.9759 13.6691L11.0672 13.0716ZM11.0506 13.8946C11.1234 14.1648 11.2728 14.4121 11.4857 14.6027L12.8199 13.1127C12.9013 13.1857 12.9558 13.2777 12.9819 13.3746L11.0506 13.8946ZM11.4859 14.6029L12.6913 15.6816L14.0251 14.1912L12.8196 13.1125L11.4859 14.6029ZM12.3832 14.7144L12.0159 16.3274L13.966 16.7714L14.3332 15.1584L12.3832 14.7144ZM12.0173 16.3212C11.9532 16.5947 11.9687 16.8817 12.0627 17.1473L13.9481 16.48C13.9822 16.5763 13.9876 16.6793 13.9646 16.7776L12.0173 16.3212ZM12.0627 17.1473C12.1567 17.413 12.3268 17.6496 12.557 17.8232L13.7614 16.2265C13.8509 16.2941 13.914 16.3836 13.9481 16.48L12.0627 17.1473ZM12.557 17.8232C12.7876 17.9972 13.0672 18.099 13.3603 18.1108L13.4404 16.1124C13.5598 16.1172 13.6714 16.1586 13.7614 16.2265L12.557 17.8232ZM13.3603 18.1108C13.6535 18.1225 13.9408 18.0434 14.1851 17.8874L13.1093 16.2014C13.2056 16.14 13.321 16.1076 13.4404 16.1124L13.3603 18.1108ZM14.1853 17.8874L15.538 17.0239L14.462 15.3381L13.1092 16.2015L14.1853 17.8874ZM14.4622 17.0241L15.8158 17.8875L16.8914 16.2014L15.5378 15.3379L14.4622 17.0241ZM15.8204 17.8904C16.0647 18.0444 16.3512 18.122 16.6432 18.1094L16.5568 16.1112C16.6756 16.1061 16.7906 16.1379 16.8868 16.1985L15.8204 17.8904ZM16.6432 18.1094C16.9352 18.0968 17.2134 17.9948 17.443 17.8214L16.2377 16.2254C16.3272 16.1578 16.4381 16.1164 16.5568 16.1112L16.6432 18.1094ZM17.443 17.8214C17.6722 17.6483 17.8418 17.4128 17.936 17.1482L16.0518 16.4776C16.0859 16.3816 16.1487 16.2926 16.2377 16.2254L17.443 17.8214ZM17.936 17.1482C18.0301 16.8838 18.0464 16.598 17.9836 16.3252L16.0345 16.7735C16.012 16.6757 16.0177 16.5732 16.0518 16.4776L17.936 17.1482ZM17.9839 16.3266L17.6153 14.7134L15.6656 15.1589L16.0342 16.7721L17.9839 16.3266ZM17.3073 15.6813L18.5128 14.6026L17.179 13.1122L15.9736 14.191L17.3073 15.6813ZM18.5094 14.6056C18.7243 14.415 18.8753 14.1669 18.9488 13.8953L17.0184 13.3725C17.0448 13.275 17.0999 13.1824 17.1824 13.1092L18.5094 14.6056ZM18.9488 13.8953C19.0223 13.6239 19.0166 13.3367 18.932 13.0683L17.0244 13.6692C16.994 13.5726 16.992 13.4699 17.0184 13.3725L18.9488 13.8953ZM16.9007 12.7754L15.5961 13.9421L16.9294 15.4329L18.234 14.2661L16.9007 12.7754ZM15.5963 13.942C15.4294 14.0912 15.3091 14.2814 15.2442 14.4895L17.1534 15.0853C17.1126 15.2159 17.0366 15.337 16.9292 15.4331L15.5963 13.942ZM15.2442 14.4895C15.1793 14.6975 15.1709 14.9188 15.2195 15.1307L17.1689 14.6838C17.1993 14.8164 17.1941 14.9549 17.1534 15.0853L15.2442 14.4895ZM15.2193 15.13L15.6179 16.8746L17.5677 16.4292L17.1691 14.6845L15.2193 15.13ZM15.6738 17.0461C15.577 16.8204 15.5678 16.5675 15.6467 16.3363L17.5394 16.9827C17.6201 16.7465 17.6107 16.4882 17.5118 16.2577L15.6738 17.0461ZM15.6467 16.3363C15.726 16.1043 15.8916 15.9024 16.1208 15.7812L17.0557 17.5493C17.2894 17.4257 17.4585 17.2196 17.5394 16.9827L15.6467 16.3363ZM15.9604 15.8869C15.9814 15.8699 16.0488 15.8161 16.1481 15.7679C16.2615 15.7128 16.4373 15.6547 16.655 15.6704C16.8631 15.6855 17.0134 15.7617 17.0848 15.8034C17.1208 15.8244 17.1477 15.8433 17.1608 15.8526C17.168 15.8578 17.1737 15.862 17.1771 15.8645C17.1804 15.867 17.183 15.8689 17.1834 15.8693L15.9727 17.4612C15.9733 17.4617 15.9843 17.4701 15.9981 17.4799C16.012 17.4899 16.0398 17.5092 16.0765 17.5307C16.1495 17.5733 16.3011 17.6501 16.5107 17.6652C16.9369 17.6961 17.2136 17.4456 17.2161 17.4436L15.9604 15.8869ZM17.1158 15.8221L15.65 14.8873L14.5745 16.5735L16.0403 17.5084L17.1158 15.8221ZM15.6499 14.8872C15.4573 14.7644 15.2322 14.6975 15 14.6975V16.6975C14.8471 16.6975 14.6997 16.6534 14.5746 16.5736L15.6499 14.8872ZM15 14.6975C14.7678 14.6975 14.5428 14.7644 14.3501 14.8872L15.4254 16.5736C15.3003 16.6534 15.1529 16.6975 15 16.6975V14.6975ZM14.3498 14.8874L12.884 15.8228L13.9599 17.5088L15.4257 16.5734L14.3498 14.8874ZM12.8936 15.8167C12.8722 15.8301 12.9186 15.8 12.9673 15.7754C13.0306 15.7432 13.1632 15.6841 13.3434 15.6707C13.7063 15.6438 13.9563 15.827 13.9597 15.8293L12.8639 17.5023C12.8723 17.5079 13.1255 17.6923 13.4911 17.6652C13.6728 17.6518 13.8066 17.5921 13.8715 17.5593C13.9216 17.5338 13.9697 17.5027 13.9503 17.5148L12.8936 15.8167ZM13.8792 15.7818C14.1084 15.9029 14.2741 16.1049 14.3533 16.3369L12.4606 16.9832C12.5415 17.2202 12.7107 17.4262 12.9443 17.5498L13.8792 15.7818ZM14.3533 16.3369C14.4323 16.5682 14.423 16.8211 14.3263 17.0466L12.4882 16.2583C12.3894 16.4886 12.3799 16.747 12.4606 16.9832L14.3533 16.3369ZM14.3821 16.8752L14.7807 15.1305L12.8309 14.6851L12.4323 16.4297L14.3821 16.8752ZM14.7805 15.1313C14.8291 14.9194 14.8207 14.698 14.7558 14.4901L12.8466 15.0859C12.8059 14.9554 12.8007 14.817 12.8311 14.6844L14.7805 15.1313ZM14.7558 14.4901C14.6909 14.282 14.5706 14.0917 14.4037 13.9425L13.0708 15.4336C12.9634 15.3376 12.8874 15.2165 12.8466 15.0859L14.7558 14.4901ZM14.4039 13.9427L13.0994 12.7759L11.766 14.2666L13.0706 15.4334L14.4039 13.9427ZM13.0866 12.7647C13.0548 12.7372 13.2561 12.8873 13.3597 13.1514C13.4743 13.4436 13.418 13.6952 13.3841 13.8044L11.4743 13.2104C11.4377 13.3282 11.3816 13.5854 11.4978 13.8817C11.603 14.1498 11.8074 14.3026 11.7788 14.2779L13.0866 12.7647ZM13.3841 13.8044C13.3744 13.8356 13.3494 13.9117 13.2984 14.0004C13.2427 14.0976 13.1409 14.2359 12.9676 14.3455C12.7951 14.4546 12.6343 14.4819 12.5685 14.4907C12.5412 14.4944 12.5154 14.4964 12.5246 14.4956C12.5258 14.4955 12.5478 14.4937 12.575 14.4899L12.3011 12.5088C12.3273 12.5051 12.3484 12.5034 12.3486 12.5034C12.3569 12.5026 12.3303 12.5047 12.3022 12.5085C12.2347 12.5176 12.0725 12.5452 11.8987 12.6551C11.724 12.7656 11.6209 12.9054 11.5639 13.0047C11.5117 13.0957 11.4854 13.1748 11.4743 13.2104L13.3841 13.8044ZM12.5215 14.4958L14.2337 14.3525L14.0669 12.3595L12.3546 12.5028L12.5215 14.4958ZM14.2389 14.352C14.4688 14.3316 14.6854 14.246 14.8652 14.1089L13.6526 12.5184C13.769 12.4297 13.9104 12.3734 14.0617 12.3599L14.2389 14.352ZM14.8652 14.1089C15.0447 13.972 15.1799 13.79 15.2605 13.5859L13.4002 12.8516C13.4508 12.7232 13.5367 12.6068 13.6526 12.5184L14.8652 14.1089ZM15.2594 13.5887L15.9189 11.9327L14.0608 11.1927L13.4013 12.8488L15.2594 13.5887ZM15.9005 11.9759C15.9101 11.9547 15.8909 11.9987 15.8687 12.0395C15.841 12.0901 15.7776 12.1965 15.6621 12.3005C15.3916 12.5442 15.0911 12.5558 14.9992 12.5558V10.5558C14.9009 10.5558 14.5967 10.5685 14.3237 10.8144C14.2069 10.9196 14.1426 11.0274 14.1139 11.0798C14.0907 11.1223 14.0706 11.1684 14.0792 11.1495L15.9005 11.9759ZM14.9992 12.5558C14.9073 12.5558 14.6068 12.5442 14.3363 12.3006C14.2208 12.1966 14.1575 12.0901 14.1298 12.0395C14.1075 11.9987 14.0883 11.9547 14.0979 11.9759L15.9192 11.1495C15.9278 11.1684 15.9077 11.1223 15.8845 11.0798C15.8558 11.0274 15.7915 10.9195 15.6747 10.8144C15.4016 10.5685 15.0975 10.5558 14.9992 10.5558V12.5558ZM14.0799 11.9335L14.741 13.5895L16.5984 12.848L15.9373 11.192L14.0799 11.9335ZM14.7407 13.5887C14.822 13.793 14.9581 13.9749 15.1385 14.1112L16.3446 12.5158C16.4611 12.6039 16.5475 12.7202 16.5987 12.8487L14.7407 13.5887ZM15.1385 14.1112C15.3193 14.2479 15.5366 14.3326 15.767 14.3519L15.934 12.3589C16.0857 12.3716 16.2276 12.4274 16.3446 12.5158L15.1385 14.1112ZM15.7671 14.3519L17.4793 14.4953L17.6462 12.5023L15.9339 12.3589L15.7671 14.3519ZM17.5628 14.4988C17.6347 14.4988 17.2901 14.5308 16.9856 14.3128C16.6983 14.1071 16.6222 13.8225 16.6136 13.7935L18.5296 13.2201C18.5185 13.1831 18.4401 12.8945 18.15 12.6867C17.9905 12.5726 17.8303 12.5277 17.7157 12.5102C17.6635 12.5023 17.6215 12.5002 17.5987 12.4994C17.5868 12.499 17.5772 12.4989 17.5717 12.4988C17.5689 12.4988 17.5665 12.4988 17.5651 12.4988C17.5644 12.4988 17.5638 12.4988 17.5634 12.4988C17.5631 12.4988 17.5628 12.4988 17.5628 12.4988V14.4988ZM16.6136 13.7935C16.5837 13.6935 16.526 13.4418 16.642 13.1482C16.758 12.8545 16.9742 12.7135 17.0234 12.6816L18.1112 14.3599C18.1648 14.3252 18.3842 14.1812 18.502 13.8833C18.6197 13.5855 18.562 13.3282 18.5296 13.2201L16.6136 13.7935Z" fill="#1B3DBC" mask="url(#path-6-inside-1_359_4529)"/>
<path d="M5.7072 13.689L4.40265 14.8558L4.80125 16.6002C4.81178 16.645 4.80927 16.6921 4.79403 16.7354C4.77878 16.7788 4.75149 16.8165 4.71559 16.8437C4.6797 16.871 4.63682 16.8866 4.59237 16.8886C4.54792 16.8906 4.5039 16.8789 4.46587 16.8549L3.00006 15.9198L1.53425 16.8547C1.49622 16.8786 1.45219 16.8903 1.40774 16.8883C1.3633 16.8863 1.32041 16.8707 1.28452 16.8435C1.24863 16.8162 1.22133 16.7785 1.20609 16.7352C1.19084 16.6918 1.18833 16.6447 1.19887 16.5999L1.59747 14.8556L0.292916 13.6888C0.259654 13.6585 0.235674 13.6188 0.223935 13.5745C0.212196 13.5302 0.213213 13.4834 0.226859 13.4397C0.240506 13.396 0.266185 13.3575 0.300726 13.3288C0.335267 13.3001 0.377158 13.2825 0.421228 13.2782L2.13321 13.1337L2.79272 11.478C2.80954 11.4353 2.83824 11.3987 2.87516 11.373C2.91209 11.3472 2.95557 11.3335 3.00006 11.3335C3.04455 11.3335 3.08803 11.3472 3.12495 11.373C3.16188 11.3987 3.19058 11.4353 3.20739 11.478L3.8669 13.1337L5.57889 13.2782C5.62302 13.2824 5.66498 13.3 5.69957 13.3287C5.73417 13.3574 5.75989 13.396 5.77355 13.4398C5.7872 13.4835 5.78819 13.5304 5.7764 13.5747C5.76461 13.619 5.74055 13.6588 5.7072 13.689Z" fill="#ECF2FF"/>
<path d="M5.97824 13.3688C5.95144 13.2833 5.90087 13.2081 5.8329 13.1524C5.76492 13.0967 5.68258 13.0632 5.59625 13.0559L4.01579 12.9237L3.40557 11.3933C3.37257 11.3099 3.3164 11.2385 3.24421 11.1883C3.17202 11.1381 3.08706 11.1113 3.00014 11.1113C2.91322 11.1113 2.82826 11.1381 2.75607 11.1883C2.68388 11.2385 2.62771 11.3099 2.59471 11.3933L1.98503 12.9234L0.403764 13.0559C0.317288 13.0635 0.234893 13.0974 0.166902 13.1533C0.0989115 13.2093 0.048349 13.2848 0.0215496 13.3704C-0.00524984 13.456 -0.00709438 13.5479 0.0162471 13.6346C0.0395885 13.7213 0.0870778 13.7989 0.152765 13.8577L1.3582 14.9364L0.990945 16.5494C0.970406 16.637 0.975435 16.729 1.00539 16.8137C1.03535 16.8983 1.08889 16.9718 1.15921 17.0249C1.22953 17.0779 1.31347 17.1081 1.40036 17.1116C1.48725 17.1151 1.57318 17.0917 1.64724 17.0444L3.00001 16.181L4.35358 17.0444C4.42766 17.0911 4.51342 17.1141 4.60004 17.1103C4.68666 17.1066 4.77028 17.0763 4.84036 17.0234C4.91044 16.9705 4.96385 16.8972 4.99388 16.8129C5.0239 16.7285 5.02918 16.6368 5.00907 16.5494L4.64047 14.9362L5.84591 13.8574C5.91213 13.7987 5.96005 13.7209 5.98361 13.6339C6.00716 13.5469 6.00529 13.4546 5.97824 13.3688ZM5.56732 13.5207L4.26277 14.6875C4.23302 14.7141 4.21089 14.7487 4.19879 14.7874C4.1867 14.8262 4.18511 14.8676 4.19419 14.9073L4.59279 16.6519C4.59382 16.6543 4.59392 16.657 4.59308 16.6595C4.59223 16.662 4.5905 16.664 4.58823 16.6652C4.58341 16.6691 4.58207 16.6683 4.57806 16.6652L3.11225 15.7304C3.07849 15.7089 3.03963 15.6975 3.00001 15.6975C2.96038 15.6975 2.92152 15.7089 2.88777 15.7304L1.42196 16.6658C1.41794 16.6683 1.41687 16.6691 1.41178 16.6658C1.40952 16.6646 1.40778 16.6625 1.40694 16.6601C1.40609 16.6576 1.40619 16.6549 1.40722 16.6525L1.80582 14.9078C1.8149 14.8682 1.81331 14.8267 1.80122 14.788C1.78912 14.7492 1.76699 14.7147 1.73724 14.6881L0.432694 13.5213C0.42948 13.5185 0.426533 13.516 0.429212 13.5074C0.431891 13.4988 0.434034 13.4999 0.438052 13.4993L2.15031 13.356C2.18958 13.3525 2.22716 13.3378 2.25892 13.3136C2.29068 13.2894 2.31539 13.2566 2.33032 13.2187L2.98983 11.5627C2.99197 11.558 2.99277 11.5558 2.9992 11.5558C3.00563 11.5558 3.00643 11.558 3.00858 11.5627L3.66969 13.2187C3.68477 13.2566 3.70963 13.2894 3.74153 13.3135C3.77344 13.3376 3.81115 13.3521 3.85051 13.3554L5.56276 13.4988C5.56678 13.4988 5.56919 13.4988 5.5716 13.5068C5.57401 13.5149 5.5716 13.5179 5.56732 13.5207Z" fill="#1B3DBC"/>
</svg>
