<svg width="25" height="24" viewBox="0 0 25 24" fill="none" xmlns="http://www.w3.org/2000/svg">
<path d="M17.1875 15.5732H14.375V24C17.3577 23.5252 20.0529 21.9364 21.9227 19.5505C23.7926 17.1646 24.6997 14.1571 24.4631 11.1279C24.2264 8.09882 22.8634 5.27083 20.646 3.20821C18.4286 1.14559 15.5198 0 12.5 0C9.4802 0 6.57141 1.14559 4.35399 3.20821C2.13658 5.27083 0.773576 8.09882 0.536926 11.1279C0.300276 14.1571 1.20738 17.1646 3.07725 19.5505C4.94713 21.9364 7.64229 23.5252 10.625 24V15.5732H7.56251V12.0516H10.625V9.22174C10.7917 5.4905 13.2083 4.06507 17.875 4.94548V7.90113H16.25C15.0417 7.94306 14.4167 8.57192 14.375 9.78772V12.0516H17.7187" fill="#1877F2"/>
</svg>
