<svg width="18" height="18" viewBox="0 0 18 18" fill="none" xmlns="http://www.w3.org/2000/svg">
<path d="M0 8.982C0 7.758 0.240481 6.594 0.721443 5.49C1.67134 3.258 3.26453 1.668 5.501 0.72C6.60721 0.24 7.77355 0 9 0C10.2265 0 11.3928 0.24 12.499 0.72C14.7114 1.656 16.3046 3.246 17.2786 5.49C17.7595 6.63 18 7.794 18 8.982C18 10.17 17.7595 11.334 17.2786 12.474C16.3046 14.73 14.7114 16.332 12.499 17.28C11.3928 17.76 10.2265 18 9 18C7.77355 18 6.60721 17.76 5.501 17.28C3.26453 16.32 1.67134 14.718 0.721443 12.474C0.240481 11.37 0 10.206 0 8.982ZM1.40681 8.982C1.40681 10.674 1.91182 12.186 2.92184 13.518C3.91984 14.826 5.22445 15.756 6.83567 16.308V14.868C6.83567 14.148 7.07615 13.626 7.55711 13.302C7.31663 13.29 7.03407 13.248 6.70942 13.176C6.09619 13.068 5.57315 12.876 5.14028 12.6C4.04609 11.94 3.499 10.746 3.499 9.018C3.499 8.118 3.7996 7.35 4.4008 6.714C4.12425 6.006 4.15431 5.238 4.49098 4.41H4.8517C4.97194 4.41 5.12224 4.44 5.30261 4.5C5.77154 4.644 6.29459 4.908 6.87174 5.292C7.60521 5.1 8.32665 5.004 9.03607 5.004C9.74549 5.004 10.4729 5.1 11.2184 5.292C11.6874 4.98 12.1263 4.74 12.5351 4.572C12.9198 4.428 13.1964 4.368 13.3647 4.392L13.5812 4.41C13.9058 5.238 13.9359 6.006 13.6713 6.714C14.2725 7.35 14.5731 8.118 14.5731 9.018C14.5731 10.362 14.2425 11.376 13.5812 12.06C13.2204 12.444 12.7455 12.744 12.1563 12.96C11.6633 13.14 11.1162 13.254 10.515 13.302C11.008 13.65 11.2545 14.172 11.2545 14.868V16.308C12.8056 15.756 14.0862 14.814 15.0962 13.482C16.0822 12.162 16.5752 10.662 16.5752 8.982C16.5752 7.962 16.3768 6.978 15.98 6.03C15.5952 5.118 15.0541 4.314 14.3567 3.618C13.6834 2.946 12.8778 2.412 11.9399 2.016C10.978 1.608 9.998 1.404 9 1.404C8.01403 1.404 7.02806 1.608 6.04208 2.016C5.14028 2.4 4.33467 2.934 3.62525 3.618C2.9519 4.314 2.41082 5.118 2.002 6.03C1.60521 6.978 1.40681 7.962 1.40681 8.982Z" fill="black"/>
</svg>
