<svg width="25" height="24" viewBox="0 0 25 24" fill="none" xmlns="http://www.w3.org/2000/svg">
<path d="M12.4679 0C7.45663 0 5.99103 0.00516967 5.70614 0.0288024C4.67775 0.114287 4.03782 0.276208 3.34065 0.623314C2.80337 0.890106 2.37965 1.19936 1.96146 1.63288C1.19985 2.42347 0.738276 3.3961 0.571185 4.55226C0.489947 5.11354 0.466314 5.22801 0.461514 8.09496C0.459668 9.05061 0.461514 10.3083 0.461514 11.9953C0.461514 17.0025 0.467053 18.4666 0.491055 18.7509C0.574139 19.7516 0.731075 20.3812 1.06341 21.0699C1.69854 22.3882 2.91157 23.3778 4.34061 23.7471C4.83542 23.8745 5.38193 23.9446 6.08353 23.9778C6.38078 23.9908 9.41058 24 12.4422 24C15.4739 24 18.5055 23.9963 18.7954 23.9815C19.6077 23.9433 20.0795 23.88 20.6011 23.7452C22.0393 23.3741 23.2302 22.3993 23.8783 21.0625C24.2041 20.3905 24.3694 19.7369 24.4442 18.7884C24.4604 18.5816 24.4672 15.2847 24.4672 11.9922C24.4672 8.69907 24.4599 5.40821 24.4436 5.20142C24.3679 4.23765 24.2027 3.5896 23.8663 2.90461C23.5902 2.34389 23.2838 1.92515 22.8388 1.49699C22.0447 0.738524 21.0735 0.276947 19.9163 0.11004C19.3555 0.0289871 19.2438 0.00498504 16.3747 0H12.4679Z" fill="url(#paint0_radial_275_3390)"/>
<path d="M12.4679 0C7.45663 0 5.99103 0.00516967 5.70614 0.0288024C4.67775 0.114287 4.03782 0.276208 3.34065 0.623314C2.80337 0.890106 2.37965 1.19936 1.96146 1.63288C1.19985 2.42347 0.738276 3.3961 0.571185 4.55226C0.489947 5.11354 0.466314 5.22801 0.461514 8.09496C0.459668 9.05061 0.461514 10.3083 0.461514 11.9953C0.461514 17.0025 0.467053 18.4666 0.491055 18.7509C0.574139 19.7516 0.731075 20.3812 1.06341 21.0699C1.69854 22.3882 2.91157 23.3778 4.34061 23.7471C4.83542 23.8745 5.38193 23.9446 6.08353 23.9778C6.38078 23.9908 9.41058 24 12.4422 24C15.4739 24 18.5055 23.9963 18.7954 23.9815C19.6077 23.9433 20.0795 23.88 20.6011 23.7452C22.0393 23.3741 23.2302 22.3993 23.8783 21.0625C24.2041 20.3905 24.3694 19.7369 24.4442 18.7884C24.4604 18.5816 24.4672 15.2847 24.4672 11.9922C24.4672 8.69907 24.4599 5.40821 24.4436 5.20142C24.3679 4.23765 24.2027 3.5896 23.8663 2.90461C23.5902 2.34389 23.2838 1.92515 22.8388 1.49699C22.0447 0.738524 21.0735 0.276947 19.9163 0.11004C19.3555 0.0289871 19.2438 0.00498504 16.3747 0H12.4679Z" fill="url(#paint1_radial_275_3390)"/>
<path d="M12.4624 3.13867C10.0555 3.13867 9.75349 3.1492 8.80818 3.19222C7.86471 3.23542 7.22072 3.38479 6.65722 3.60394C6.07434 3.8303 5.5799 4.13309 5.08731 4.62587C4.59434 5.11847 4.29155 5.61291 4.06445 6.19561C3.84474 6.75929 3.69519 7.40346 3.65272 8.34656C3.61044 9.29187 3.59937 9.59411 3.59937 12.001C3.59937 14.4078 3.61007 14.7089 3.65291 15.6543C3.6963 16.5977 3.84566 17.2417 4.06464 17.8052C4.29118 18.3881 4.59397 18.8825 5.08675 19.3751C5.57916 19.8681 6.07361 20.1716 6.65612 20.398C7.21998 20.6171 7.86416 20.7665 8.80744 20.8097C9.75275 20.8527 10.0546 20.8633 12.4613 20.8633C14.8683 20.8633 15.1695 20.8527 16.1148 20.8097C17.0582 20.7665 17.703 20.6171 18.2668 20.398C18.8495 20.1716 19.3432 19.8681 19.8356 19.3751C20.3286 18.8825 20.6314 18.3881 20.8585 17.8054C21.0764 17.2417 21.2259 16.5975 21.2702 15.6544C21.3127 14.7091 21.3238 14.4078 21.3238 12.001C21.3238 9.59411 21.3127 9.29206 21.2702 8.34674C21.2259 7.40328 21.0764 6.75929 20.8585 6.19579C20.6314 5.61291 20.3286 5.11847 19.8356 4.62587C19.3427 4.13291 18.8497 3.83012 18.2663 3.60394C17.7013 3.38479 17.0569 3.23542 16.1135 3.19222C15.1682 3.1492 14.8672 3.13867 12.4596 3.13867H12.4624ZM11.6674 4.73573C11.9033 4.73536 12.1666 4.73573 12.4624 4.73573C14.8286 4.73573 15.1091 4.74422 16.0435 4.78669C16.9076 4.8262 17.3765 4.97058 17.6889 5.09188C18.1025 5.25251 18.3974 5.44453 18.7074 5.75471C19.0175 6.06489 19.2095 6.3603 19.3705 6.77387C19.4918 7.0859 19.6364 7.55486 19.6757 8.41893C19.7182 9.35317 19.7274 9.63381 19.7274 11.9989C19.7274 14.3641 19.7182 14.6447 19.6757 15.5789C19.6362 16.443 19.4918 16.912 19.3705 17.224C19.2099 17.6376 19.0175 17.932 18.7074 18.242C18.3972 18.5522 18.1027 18.7442 17.6889 18.9049C17.3769 19.0267 16.9076 19.1707 16.0435 19.2102C15.1093 19.2527 14.8286 19.2619 12.4624 19.2619C10.096 19.2619 9.81552 19.2527 8.88129 19.2102C8.01722 19.1704 7.54825 19.026 7.23567 18.9047C6.8221 18.7441 6.52669 18.552 6.21651 18.2419C5.90633 17.9317 5.71431 17.637 5.55332 17.2233C5.43201 16.9112 5.28745 16.4423 5.24812 15.5782C5.20565 14.644 5.19716 14.3633 5.19716 11.9967C5.19716 9.63011 5.20565 9.35095 5.24812 8.41672C5.28763 7.55265 5.43201 7.08368 5.55332 6.77129C5.71394 6.35771 5.90633 6.0623 6.21651 5.75212C6.52669 5.44194 6.8221 5.24993 7.23567 5.08893C7.54807 4.96707 8.01722 4.82306 8.88129 4.78337C9.69884 4.74644 10.0157 4.73536 11.6674 4.73351V4.73573ZM17.193 6.20724C16.6059 6.20724 16.1295 6.68303 16.1295 7.27034C16.1295 7.85747 16.6059 8.33382 17.193 8.33382C17.7801 8.33382 18.2565 7.85747 18.2565 7.27034C18.2565 6.68322 17.7801 6.20687 17.193 6.20687V6.20724ZM12.4624 7.44981C9.94901 7.44981 7.91124 9.48758 7.91124 12.001C7.91124 14.5143 9.94901 16.5512 12.4624 16.5512C14.9758 16.5512 17.0128 14.5143 17.0128 12.001C17.0128 9.48758 14.9758 7.44981 12.4624 7.44981ZM12.4624 9.04686C14.0938 9.04686 15.4165 10.3694 15.4165 12.001C15.4165 13.6324 14.0938 14.9551 12.4624 14.9551C10.8308 14.9551 9.5083 13.6324 9.5083 12.001C9.5083 10.3694 10.8308 9.04686 12.4624 9.04686Z" fill="white"/>
<defs>
<radialGradient id="paint0_radial_275_3390" cx="0" cy="0" r="1" gradientUnits="userSpaceOnUse" gradientTransform="translate(6.83746 25.8485) rotate(-90) scale(23.7858 22.1287)">
<stop stop-color="#FFDD55"/>
<stop offset="0.1" stop-color="#FFDD55"/>
<stop offset="0.5" stop-color="#FF543E"/>
<stop offset="1" stop-color="#C837AB"/>
</radialGradient>
<radialGradient id="paint1_radial_275_3390" cx="0" cy="0" r="1" gradientUnits="userSpaceOnUse" gradientTransform="translate(-3.56053 1.72892) rotate(78.6776) scale(10.6324 43.8384)">
<stop stop-color="#3771C8"/>
<stop offset="0.128" stop-color="#3771C8"/>
<stop offset="1" stop-color="#6600FF" stop-opacity="0"/>
</radialGradient>
</defs>
</svg>
