<svg width="25" height="24" viewBox="0 0 25 24" fill="none" xmlns="http://www.w3.org/2000/svg">
<path d="M12.4282 24C19.0556 24 24.4282 18.6274 24.4282 12C24.4282 5.37258 19.0556 0 12.4282 0C5.80081 0 0.428223 5.37258 0.428223 12C0.428223 18.6274 5.80081 24 12.4282 24Z" fill="#007AB9"/>
<path d="M19.5982 12.9656V17.9129H16.7299V13.2971C16.7299 12.1382 16.3158 11.3467 15.2772 11.3467C14.4847 11.3467 14.0139 11.8796 13.8059 12.3955C13.7304 12.5799 13.711 12.836 13.711 13.0946V17.9127H10.8424C10.8424 17.9127 10.8809 10.0951 10.8424 9.28588H13.7112V10.5084C13.7054 10.518 13.6973 10.5274 13.6921 10.5366H13.7112V10.5084C14.0924 9.92184 14.7722 9.0833 16.2963 9.0833C18.1834 9.0833 19.5982 10.3163 19.5982 12.9656ZM7.84166 5.12744C6.86045 5.12744 6.21851 5.77153 6.21851 6.61776C6.21851 7.44603 6.84184 8.10872 7.80402 8.10872H7.82263C8.82309 8.10872 9.44514 7.44603 9.44514 6.61776C9.42611 5.77153 8.82309 5.12744 7.84166 5.12744ZM6.38899 17.9129H9.25647V9.28588H6.38899V17.9129Z" fill="#F1F2F2"/>
</svg>
