<svg width="19" height="18" viewBox="0 0 19 18" fill="none" xmlns="http://www.w3.org/2000/svg">
<path d="M0 2.09091C0 1.48485 0.213964 0.984848 0.641892 0.590909C1.06982 0.19697 1.62613 0 2.31081 0C2.98327 0 3.52735 0.193939 3.94305 0.581818C4.37098 0.981818 4.58494 1.50303 4.58494 2.14545C4.58494 2.72727 4.37709 3.21212 3.96139 3.6C3.53346 4 2.97104 4.2 2.27413 4.2H2.25579C1.58333 4.2 1.03925 4 0.623552 3.6C0.207851 3.2 0 2.69697 0 2.09091ZM0.238417 18V5.85455H4.30985V18H0.238417ZM6.56564 18H10.6371V11.2182C10.6371 10.7939 10.686 10.4667 10.7838 10.2364C10.955 9.82424 11.2148 9.47576 11.5632 9.19091C11.9117 8.90606 12.3488 8.76364 12.8745 8.76364C14.2439 8.76364 14.9286 9.67879 14.9286 11.5091V18H19V11.0364C19 9.24242 18.5721 7.88182 17.7162 6.95455C16.8604 6.02727 15.7294 5.56364 14.3234 5.56364C12.7461 5.56364 11.5174 6.23636 10.6371 7.58182V7.61818H10.6187L10.6371 7.58182V5.85455H6.56564C6.59009 6.24242 6.60232 7.44849 6.60232 9.47273C6.60232 11.497 6.59009 14.3394 6.56564 18Z" fill="black"/>
</svg>
