<svg width="18" height="18" viewBox="0 0 18 18" fill="none" xmlns="http://www.w3.org/2000/svg">
<path d="M14.625 6.15771C14.625 8.81796 10.5 15.4435 9.31575 17.2952C9.28182 17.3482 9.23512 17.3917 9.17995 17.4219C9.12477 17.4521 9.06289 17.4679 9 17.4679C8.93711 17.4679 8.87523 17.4521 8.82005 17.4219C8.76488 17.3917 8.71818 17.3482 8.68425 17.2952C7.5 15.4442 3.375 8.81796 3.375 6.15771C3.375 4.66587 3.96763 3.23513 5.02252 2.18024C6.07742 1.12535 7.50816 0.532715 9 0.532715C10.4918 0.532715 11.9226 1.12535 12.9775 2.18024C14.0324 3.23513 14.625 4.66587 14.625 6.15771Z" fill="#CEDFFF"/>
<path d="M9 3.93321C10.173 3.93418 11.3164 4.30183 12.2701 4.98471C13.2238 5.6676 13.9402 6.63156 14.319 7.74171C14.4958 7.23096 14.5989 6.69758 14.625 6.15771C14.625 4.66587 14.0324 3.23513 12.9775 2.18024C11.9226 1.12535 10.4918 0.532715 9 0.532715C7.50816 0.532715 6.07742 1.12535 5.02252 2.18024C3.96763 3.23513 3.375 4.66587 3.375 6.15771C3.40112 6.69758 3.50416 7.23096 3.681 7.74171C4.0598 6.63156 4.77619 5.6676 5.72991 4.98471C6.68364 4.30183 7.827 3.93418 9 3.93321Z" fill="#A4BFFB"/>
<path d="M14.625 6.15771C14.625 8.81796 10.5 15.4435 9.31575 17.2952C9.28182 17.3482 9.23512 17.3917 9.17995 17.4219C9.12477 17.4521 9.06289 17.4679 9 17.4679C8.93711 17.4679 8.87523 17.4521 8.82005 17.4219C8.76488 17.3917 8.71818 17.3482 8.68425 17.2952C7.5 15.4442 3.375 8.81796 3.375 6.15771C3.375 4.66587 3.96763 3.23513 5.02252 2.18024C6.07742 1.12535 7.50816 0.532715 9 0.532715C10.4918 0.532715 11.9226 1.12535 12.9775 2.18024C14.0324 3.23513 14.625 4.66587 14.625 6.15771Z" stroke="#1B3DBC" stroke-linecap="round" stroke-linejoin="round"/>
<circle cx="9" cy="6" r="1.75" stroke="#1B3DBC"/>
</svg>
