<svg width="18" height="18" viewBox="0 0 18 18" fill="none" xmlns="http://www.w3.org/2000/svg">
<g clip-path="url(#clip0_281_3701)">
<path d="M0.373535 4.5C0.373535 4.30109 0.452553 4.11032 0.593205 3.96967C0.733857 3.82902 0.924623 3.75 1.12354 3.75H16.8735C17.0724 3.75 17.2632 3.82902 17.4039 3.96967C17.5445 4.11032 17.6235 4.30109 17.6235 4.5V15.75C17.6235 15.9489 17.5445 16.1397 17.4039 16.2803C17.2632 16.421 17.0724 16.5 16.8735 16.5H1.12354C0.924623 16.5 0.733857 16.421 0.593205 16.2803C0.452553 16.1397 0.373535 15.9489 0.373535 15.75V4.5Z" fill="#CEDFFF"/>
<path d="M17.4165 3.9885C17.3473 3.91353 17.2633 3.85366 17.1699 3.81262C17.0765 3.77158 16.9756 3.75026 16.8735 3.75H1.12354C0.924623 3.75 0.733857 3.82902 0.593205 3.96967C0.452553 4.11032 0.373535 4.30109 0.373535 4.5V15.75C0.373535 15.9489 0.452553 16.1397 0.593205 16.2803C0.733857 16.421 0.924623 16.5 1.12354 16.5H4.90579L17.4165 3.9885Z" fill="white"/>
<path d="M0.373535 4.5C0.373535 4.30109 0.452553 4.11032 0.593205 3.96967C0.733857 3.82902 0.924623 3.75 1.12354 3.75H16.8735C17.0724 3.75 17.2632 3.82902 17.4039 3.96967C17.5445 4.11032 17.6235 4.30109 17.6235 4.5V15.75C17.6235 15.9489 17.5445 16.1397 17.4039 16.2803C17.2632 16.421 17.0724 16.5 16.8735 16.5H1.12354C0.924623 16.5 0.733857 16.421 0.593205 16.2803C0.452553 16.1397 0.373535 15.9489 0.373535 15.75V4.5Z" stroke="#1B3DBC" stroke-linecap="round" stroke-linejoin="round"/>
<path d="M2.62354 5.25V8.625C2.62354 8.92337 2.74206 9.20952 2.95304 9.4205C3.16402 9.63147 3.45017 9.75 3.74854 9.75C4.0469 9.75 4.33305 9.63147 4.54403 9.4205C4.75501 9.20952 4.87354 8.92337 4.87354 8.625V3C4.87354 2.60218 4.7155 2.22064 4.4342 1.93934C4.15289 1.65804 3.77136 1.5 3.37354 1.5C2.97571 1.5 2.59418 1.65804 2.31287 1.93934C2.03157 2.22064 1.87354 2.60218 1.87354 3V3.75" stroke="#1B3DBC" stroke-linecap="round" stroke-linejoin="round"/>
<path d="M7.12354 7.5H15.3735" stroke="#1B3DBC" stroke-linecap="round" stroke-linejoin="round"/>
<path d="M6.37354 10.5H15.3735" stroke="#1B3DBC" stroke-linecap="round" stroke-linejoin="round"/>
<path d="M2.62354 13.5H15.3735" stroke="#1B3DBC" stroke-linecap="round" stroke-linejoin="round"/>
</g>
<defs>
<clipPath id="clip0_281_3701">
<rect width="18" height="18" fill="white" transform="translate(-0.00146484)"/>
</clipPath>
</defs>
</svg>
