<svg width="27" height="22" viewBox="0 0 27 22" fill="none" xmlns="http://www.w3.org/2000/svg">
<path d="M20.5753 11.499C17.0653 11.499 15.3103 9.74401 15.3103 6.23401L15.3103 6.11701L15.3103 6C15.3103 4.284 15.8563 2.88 16.9483 1.788C17.9623 0.774005 19.2883 0.267005 20.9263 0.267005C24.8263 0.267005 26.7763 2.724 26.7763 7.638L26.7763 19.923L23.1493 21.327L23.1493 11.499L20.5753 11.499ZM5.48231 11.499C1.97231 11.499 0.217305 9.74401 0.217305 6.23401L0.217305 6.11701L0.217305 6C0.217305 4.284 0.763304 2.88 1.8553 1.788C2.86931 0.774006 4.19531 0.267007 5.83331 0.267007C9.7333 0.267006 11.6833 2.724 11.6833 7.638L11.6833 19.923L8.05631 21.327L8.05631 11.499L5.48231 11.499Z" fill="#62636C"/>
</svg>
