<svg width="27" height="22" viewBox="0 0 27 22" fill="none" xmlns="http://www.w3.org/2000/svg">
<path d="M6.42469 10.501C9.93469 10.501 11.6897 12.256 11.6897 15.766V15.883V16C11.6897 17.716 11.1437 19.12 10.0517 20.212C9.03769 21.226 7.71169 21.733 6.07369 21.733C2.17369 21.733 0.223691 19.276 0.223691 14.362V2.077L3.85069 0.672995V10.501H6.42469ZM21.5177 10.501C25.0277 10.501 26.7827 12.256 26.7827 15.766V15.883V16C26.7827 17.716 26.2367 19.12 25.1447 20.212C24.1307 21.226 22.8047 21.733 21.1667 21.733C17.2667 21.733 15.3167 19.276 15.3167 14.362V2.077L18.9437 0.672995V10.501H21.5177Z" fill="#62636C"/>
</svg>
