<svg width="76" height="15" viewBox="0 0 76 15" fill="none" xmlns="http://www.w3.org/2000/svg">
<path d="M12.0775 5.82836C12.0391 5.70688 11.965 5.59974 11.865 5.52086C11.7649 5.44199 11.6435 5.395 11.5164 5.38602L8.81616 5.16776L7.77552 2.64907C7.72696 2.53101 7.64442 2.43004 7.53837 2.35899C7.43233 2.28794 7.30755 2.25 7.1799 2.25C7.05225 2.25 6.92748 2.28794 6.82143 2.35899C6.71538 2.43004 6.63284 2.53101 6.58429 2.64907L5.54365 5.16686L2.84345 5.38602C2.71624 5.39507 2.59471 5.44218 2.49464 5.52123C2.39457 5.60028 2.3206 5.7076 2.28234 5.82925C2.24246 5.95058 2.23939 6.081 2.27353 6.20406C2.30767 6.32713 2.37748 6.43733 2.47416 6.52077L4.53572 8.29596L3.90829 10.9513C3.87885 11.0756 3.88694 11.2058 3.93153 11.3255C3.97613 11.4452 4.05523 11.5489 4.15881 11.6236C4.26112 11.6994 4.38394 11.7425 4.51117 11.7473C4.63841 11.7521 4.76412 11.7184 4.87185 11.6505L7.1799 10.2316L9.49154 11.6527C9.59927 11.7206 9.72499 11.7543 9.85222 11.7496C9.97945 11.7448 10.1023 11.7016 10.2046 11.6258C10.3082 11.5511 10.3873 11.4474 10.4319 11.3277C10.4765 11.2081 10.4845 11.0779 10.4551 10.9536L9.82767 8.2982L11.8856 6.52077C11.9825 6.43726 12.0524 6.3269 12.0866 6.20365C12.1207 6.08041 12.1175 5.9498 12.0775 5.82836ZM11.5334 6.11384L9.35127 7.99614C9.31404 8.02826 9.28633 8.06999 9.27116 8.11677C9.25598 8.16354 9.25393 8.21359 9.26522 8.26145L9.93209 11.0755C9.93793 11.0967 9.93696 11.1193 9.92933 11.1399C9.92169 11.1606 9.90777 11.1783 9.88952 11.1907C9.87298 11.2035 9.85286 11.2108 9.83197 11.2116C9.81108 11.2124 9.79046 11.2066 9.77299 11.1951L7.32063 9.68841C7.27829 9.66241 7.22958 9.64865 7.1799 9.64865C7.13022 9.64865 7.08151 9.66241 7.03918 9.68841L4.58681 11.1947C4.56934 11.2062 4.54872 11.2119 4.52783 11.2111C4.50694 11.2103 4.48683 11.203 4.47029 11.1902C4.45164 11.1782 4.43726 11.1606 4.42921 11.1399C4.42116 11.1192 4.41985 11.0965 4.42547 11.075L5.09234 8.261C5.10363 8.21314 5.10158 8.1631 5.08641 8.11632C5.07124 8.06954 5.04353 8.02782 5.0063 7.99569L2.82417 6.11339C2.80705 6.09945 2.7947 6.08052 2.78884 6.05924C2.78298 6.03795 2.78389 6.01537 2.79146 5.99463C2.7973 5.97418 2.80938 5.95607 2.82601 5.94281C2.84264 5.92956 2.86299 5.92182 2.88423 5.92068L5.74891 5.68943C5.79827 5.68542 5.84557 5.66785 5.88558 5.63867C5.9256 5.60949 5.95677 5.56983 5.97568 5.52405L7.07951 2.85298C7.08721 2.83321 7.1007 2.81622 7.11821 2.80424C7.13572 2.79227 7.15644 2.78586 7.17766 2.78586C7.19888 2.78586 7.2196 2.79227 7.23711 2.80424C7.25463 2.81622 7.26812 2.83321 7.27581 2.85298L8.37964 5.52405C8.39855 5.56983 8.42973 5.60949 8.46974 5.63867C8.50976 5.66785 8.55705 5.68542 8.60642 5.68943L11.4711 5.92068C11.4923 5.92182 11.5127 5.92956 11.5293 5.94281C11.5459 5.95607 11.558 5.97418 11.5639 5.99463C11.5718 6.0152 11.5731 6.03773 11.5676 6.0591C11.5622 6.08046 11.5502 6.09959 11.5334 6.11384Z" fill="#80828D"/>
<path d="M27.287 6.59777L25.3075 8.30584L25.9106 10.8603C25.9439 10.9989 25.9353 11.1443 25.886 11.2781C25.8366 11.4119 25.7487 11.5281 25.6334 11.612C25.5181 11.6959 25.3805 11.7437 25.238 11.7494C25.0955 11.7551 24.9545 11.7185 24.8329 11.6441L22.6114 10.277L20.3887 11.6441C20.267 11.7181 20.1262 11.7544 19.984 11.7484C19.8417 11.7425 19.7044 11.6946 19.5893 11.6108C19.4743 11.527 19.3865 11.411 19.3372 11.2775C19.2879 11.1439 19.2793 10.9987 19.3123 10.8603L19.9176 8.30584L17.9381 6.59777C17.8305 6.50473 17.7526 6.38205 17.7143 6.24504C17.6759 6.10803 17.6788 5.96276 17.7226 5.82738C17.7663 5.692 17.8489 5.5725 17.9602 5.48381C18.0714 5.39512 18.2063 5.34117 18.3481 5.3287L20.9434 5.11931L21.9446 2.69642C21.9988 2.56438 22.091 2.45143 22.2095 2.37194C22.3281 2.29244 22.4676 2.25 22.6103 2.25C22.7531 2.25 22.8926 2.29244 23.0111 2.37194C23.1297 2.45143 23.2219 2.56438 23.2761 2.69642L24.2768 5.11931L26.8722 5.3287C27.0142 5.34071 27.1495 5.39436 27.2611 5.48292C27.3728 5.57149 27.4558 5.69104 27.4998 5.82658C27.5438 5.96213 27.5469 6.10765 27.5085 6.24491C27.4702 6.38217 27.3922 6.50507 27.2843 6.59821L27.287 6.59777Z" fill="#FED26C"/>
<path d="M42.7245 6.59777L40.745 8.30584L41.3481 10.8603C41.3814 10.9989 41.3728 11.1443 41.3235 11.2781C41.2741 11.4119 41.1862 11.5281 41.0709 11.612C40.9556 11.6959 40.818 11.7437 40.6755 11.7494C40.533 11.7551 40.392 11.7185 40.2704 11.6441L38.0489 10.277L35.8262 11.6441C35.7045 11.7181 35.5637 11.7544 35.4215 11.7484C35.2792 11.7425 35.1419 11.6946 35.0268 11.6108C34.9118 11.527 34.824 11.411 34.7747 11.2775C34.7254 11.1439 34.7168 10.9987 34.7498 10.8603L35.3551 8.30584L33.3756 6.59777C33.268 6.50473 33.1901 6.38205 33.1518 6.24504C33.1134 6.10803 33.1163 5.96276 33.1601 5.82738C33.2038 5.692 33.2864 5.5725 33.3977 5.48381C33.5089 5.39512 33.6438 5.34117 33.7856 5.3287L36.3809 5.11931L37.3821 2.69642C37.4363 2.56438 37.5285 2.45143 37.647 2.37194C37.7656 2.29244 37.9051 2.25 38.0478 2.25C38.1906 2.25 38.3301 2.29244 38.4486 2.37194C38.5672 2.45143 38.6594 2.56438 38.7136 2.69642L39.7143 5.11931L42.3097 5.3287C42.4517 5.34071 42.587 5.39436 42.6986 5.48292C42.8103 5.57149 42.8933 5.69104 42.9373 5.82658C42.9813 5.96213 42.9844 6.10765 42.946 6.24491C42.9077 6.38217 42.8297 6.50507 42.7218 6.59821L42.7245 6.59777Z" fill="#FED26C"/>
<path d="M58.162 6.59777L56.1825 8.30584L56.7856 10.8603C56.8189 10.9989 56.8103 11.1443 56.761 11.2781C56.7116 11.4119 56.6237 11.5281 56.5084 11.612C56.3931 11.6959 56.2555 11.7437 56.113 11.7494C55.9705 11.7551 55.8295 11.7185 55.7079 11.6441L53.4864 10.277L51.2637 11.6441C51.142 11.7181 51.0012 11.7544 50.859 11.7484C50.7167 11.7425 50.5794 11.6946 50.4643 11.6108C50.3493 11.527 50.2615 11.411 50.2122 11.2775C50.1629 11.1439 50.1543 10.9987 50.1873 10.8603L50.7926 8.30584L48.8131 6.59777C48.7055 6.50473 48.6276 6.38205 48.5893 6.24504C48.5509 6.10803 48.5538 5.96276 48.5976 5.82738C48.6413 5.692 48.7239 5.5725 48.8352 5.48381C48.9464 5.39512 49.0813 5.34117 49.2231 5.3287L51.8184 5.11931L52.8196 2.69642C52.8738 2.56438 52.966 2.45143 53.0845 2.37194C53.2031 2.29244 53.3426 2.25 53.4853 2.25C53.6281 2.25 53.7676 2.29244 53.8861 2.37194C54.0047 2.45143 54.0969 2.56438 54.1511 2.69642L55.1518 5.11931L57.7472 5.3287C57.8892 5.34071 58.0245 5.39436 58.1361 5.48292C58.2478 5.57149 58.3308 5.69104 58.3748 5.82658C58.4188 5.96213 58.4219 6.10765 58.3835 6.24491C58.3452 6.38217 58.2672 6.50507 58.1593 6.59821L58.162 6.59777Z" fill="#FED26C"/>
<path d="M73.5995 6.59777L71.62 8.30584L72.2231 10.8603C72.2564 10.9989 72.2478 11.1443 72.1985 11.2781C72.1491 11.4119 72.0612 11.5281 71.9459 11.612C71.8306 11.6959 71.693 11.7437 71.5505 11.7494C71.408 11.7551 71.267 11.7185 71.1454 11.6441L68.9239 10.277L66.7012 11.6441C66.5795 11.7181 66.4387 11.7544 66.2965 11.7484C66.1542 11.7425 66.0169 11.6946 65.9018 11.6108C65.7868 11.527 65.699 11.411 65.6497 11.2775C65.6004 11.1439 65.5918 10.9987 65.6248 10.8603L66.2301 8.30584L64.2506 6.59777C64.143 6.50473 64.0651 6.38205 64.0268 6.24504C63.9884 6.10803 63.9913 5.96276 64.0351 5.82738C64.0788 5.692 64.1614 5.5725 64.2727 5.48381C64.3839 5.39512 64.5188 5.34117 64.6606 5.3287L67.2559 5.11931L68.2571 2.69642C68.3113 2.56438 68.4035 2.45143 68.522 2.37194C68.6406 2.29244 68.7801 2.25 68.9228 2.25C69.0656 2.25 69.2051 2.29244 69.3236 2.37194C69.4422 2.45143 69.5344 2.56438 69.5886 2.69642L70.5893 5.11931L73.1847 5.3287C73.3267 5.34071 73.462 5.39436 73.5736 5.48292C73.6853 5.57149 73.7683 5.69104 73.8123 5.82658C73.8563 5.96213 73.8594 6.10765 73.821 6.24491C73.7827 6.38217 73.7047 6.50507 73.5968 6.59821L73.5995 6.59777Z" fill="#FED26C"/>
</svg>
