<svg width="16" height="17" viewBox="0 0 16 17" fill="none" xmlns="http://www.w3.org/2000/svg">
<g clip-path="url(#clip0_682_1873)">
<path d="M0.333496 15.7943V0.460938" stroke="#1B3DBC" stroke-linecap="round" stroke-linejoin="round"/>
<path d="M0.333496 12.4683L2.48283 11.807C3.37327 11.533 4.3119 11.4521 5.23608 11.5697C6.16026 11.6873 7.04872 12.0007 7.84216 12.489C8.61663 12.9656 9.48184 13.2757 10.3827 13.3997C11.2836 13.5236 12.2004 13.4587 13.0748 13.209L15.1108 12.627C15.2711 12.5813 15.4121 12.4846 15.5124 12.3515C15.6128 12.2185 15.667 12.0563 15.6668 11.8896V3.11697C15.6667 2.99833 15.6391 2.88134 15.5861 2.77517C15.5332 2.66901 15.4563 2.57657 15.3616 2.50512C15.2669 2.43367 15.1569 2.38515 15.0403 2.36338C14.9237 2.3416 14.8036 2.34717 14.6895 2.37964L13.0748 2.84097C12.2007 3.09133 11.284 3.15696 10.3831 3.03369C9.48226 2.91042 8.61691 2.60095 7.84216 2.12497C7.04903 1.63602 6.16069 1.32195 5.23648 1.20377C4.31227 1.08558 3.37348 1.166 2.48283 1.43964L0.333496 2.10097V12.4683Z" fill="#A4BFFB"/>
<path d="M15.3615 2.50497C15.2668 2.43357 15.1568 2.38509 15.0402 2.36334C14.9236 2.34159 14.8036 2.34717 14.6895 2.37964L13.0748 2.84097C12.2007 3.09133 11.284 3.15696 10.3831 3.03369C9.48226 2.91042 8.61691 2.60095 7.84216 2.12497C7.04903 1.63602 6.16069 1.32195 5.23648 1.20377C4.31227 1.08558 3.37348 1.166 2.48283 1.43964L0.333496 2.10097V7.01831L2.48283 6.35697C3.37324 6.08284 4.31191 6.00188 5.23611 6.11949C6.16032 6.23709 7.04878 6.55057 7.84216 7.03897C8.61666 7.5155 9.4819 7.82556 10.3828 7.94941C11.2837 8.07325 12.2005 8.00817 13.0748 7.75831L14.6895 7.29697C14.8036 7.2645 14.9237 7.25894 15.0403 7.28071C15.1569 7.30248 15.2669 7.351 15.3616 7.42245C15.4563 7.4939 15.5332 7.58634 15.5861 7.69251C15.6391 7.79867 15.6667 7.91567 15.6668 8.03431V3.11697C15.6669 2.99826 15.6394 2.88116 15.5864 2.77493C15.5334 2.66871 15.4564 2.57628 15.3615 2.50497Z" fill="#CEDFFF"/>
<path d="M0.333496 12.4683L2.48283 11.807C3.37327 11.533 4.3119 11.4521 5.23608 11.5697C6.16026 11.6873 7.04872 12.0007 7.84216 12.489C8.61663 12.9656 9.48184 13.2757 10.3827 13.3997C11.2836 13.5236 12.2004 13.4587 13.0748 13.209L15.1108 12.627C15.2711 12.5813 15.4121 12.4846 15.5124 12.3515C15.6128 12.2185 15.667 12.0563 15.6668 11.8896V3.11697C15.6667 2.99833 15.6391 2.88134 15.5861 2.77517C15.5332 2.66901 15.4563 2.57657 15.3616 2.50512C15.2669 2.43367 15.1569 2.38515 15.0403 2.36338C14.9237 2.3416 14.8036 2.34717 14.6895 2.37964L13.0748 2.84097C12.2007 3.09133 11.284 3.15696 10.3831 3.03369C9.48226 2.91042 8.61691 2.60095 7.84216 2.12497C7.04903 1.63602 6.16069 1.32195 5.23648 1.20377C4.31227 1.08558 3.37348 1.166 2.48283 1.43964L0.333496 2.10097V12.4683Z" stroke="#1B3DBC" stroke-linecap="round" stroke-linejoin="round"/>
</g>
<defs>
<clipPath id="clip0_682_1873">
<rect width="16" height="16" fill="white" transform="translate(0 0.125)"/>
</clipPath>
</defs>
</svg>
