<svg width="18" height="19" viewBox="0 0 18 19" fill="none" xmlns="http://www.w3.org/2000/svg">
<g clip-path="url(#clip0_530_3951)">
<path d="M17.625 16.25C17.625 16.4489 17.546 16.6397 17.4053 16.7803C17.2647 16.921 17.0739 17 16.875 17H1.125C0.926088 17 0.735322 16.921 0.59467 16.7803C0.454018 16.6397 0.375 16.4489 0.375 16.25V5.75C0.375 5.55109 0.454018 5.36032 0.59467 5.21967C0.735322 5.07902 0.926088 5 1.125 5H16.875C17.0739 5 17.2647 5.07902 17.4053 5.21967C17.546 5.36032 17.625 5.55109 17.625 5.75V16.25Z" fill="#CEDFFF"/>
<path d="M16.875 5H1.125C0.926088 5 0.735322 5.07902 0.59467 5.21967C0.454018 5.36032 0.375 5.55109 0.375 5.75V7.5335C0.375 7.33459 0.454018 7.14382 0.59467 7.00317C0.735322 6.86252 0.926088 6.7835 1.125 6.7835H16.875C17.0739 6.7835 17.2647 6.86252 17.4053 7.00317C17.546 7.14382 17.625 7.33459 17.625 7.5335V5.75C17.625 5.55109 17.546 5.36032 17.4053 5.21967C17.2647 5.07902 17.0739 5 16.875 5Z" fill="white"/>
<path d="M17.625 16.25C17.625 16.4489 17.546 16.6397 17.4053 16.7803C17.2647 16.921 17.0739 17 16.875 17H1.125C0.926088 17 0.735322 16.921 0.59467 16.7803C0.454018 16.6397 0.375 16.4489 0.375 16.25V5.75C0.375 5.55109 0.454018 5.36032 0.59467 5.21967C0.735322 5.07902 0.926088 5 1.125 5H16.875C17.0739 5 17.2647 5.07902 17.4053 5.21967C17.546 5.36032 17.625 5.55109 17.625 5.75V16.25Z" stroke="#1B3DBC" stroke-linecap="round" stroke-linejoin="round"/>
<path d="M6 5L6.375 2.375C6.375 2.27554 6.41451 2.18016 6.48483 2.10984C6.55516 2.03951 6.65054 2 6.75 2H11.25C11.3495 2 11.4448 2.03951 11.5152 2.10984C11.5855 2.18016 11.625 2.27554 11.625 2.375L12 5" stroke="#1B3DBC" stroke-linecap="round" stroke-linejoin="round"/>
<path d="M3.375 8.00146H14.625" stroke="#1B3DBC" stroke-linecap="round" stroke-linejoin="round"/>
<path d="M3.375 11.0015H14.625" stroke="#1B3DBC" stroke-linecap="round" stroke-linejoin="round"/>
<path d="M3.375 14.0015H14.625" stroke="#00303E" stroke-linecap="round" stroke-linejoin="round"/>
</g>
<defs>
<clipPath id="clip0_530_3951">
<rect width="18" height="18" fill="white" transform="translate(0 0.5)"/>
</clipPath>
</defs>
</svg>
