<svg width="18" height="19" viewBox="0 0 18 19" fill="none" xmlns="http://www.w3.org/2000/svg">
<g clip-path="url(#clip0_77_1530)">
<path d="M17.625 2L14.7375 15.7175C14.7049 15.8683 14.6217 16.0034 14.5016 16.1003C14.3815 16.1972 14.2318 16.25 14.0775 16.25C13.9441 16.2508 13.8134 16.2116 13.7025 16.1375L9.7725 13.5125L7.125 11.75L0.7575 9.98C0.647857 9.94908 0.551247 9.88334 0.482248 9.79269C0.413249 9.70205 0.375606 9.59142 0.375 9.4775C0.37536 9.37365 0.406081 9.27216 0.463382 9.18554C0.520682 9.09893 0.602061 9.03096 0.6975 8.99L17.625 2Z" fill="white"/>
<path d="M17.6245 2L0.697798 8.99225C0.597688 9.03451 0.513156 9.10678 0.455862 9.19911C0.398568 9.29144 0.371334 9.39927 0.377918 9.50774C0.384501 9.6162 0.424577 9.71995 0.492618 9.80467C0.560659 9.88939 0.653312 9.95091 0.757798 9.98075L7.12455 11.75L17.6245 2Z" stroke="#7179CE" stroke-linecap="round" stroke-linejoin="round"/>
<path d="M17.625 2L14.7375 15.7175C14.7049 15.8683 14.6217 16.0034 14.5016 16.1003C14.3815 16.1972 14.2318 16.25 14.0775 16.25C13.9441 16.2508 13.8134 16.2116 13.7025 16.1375L9.7725 13.5125L7.125 11.75L17.625 2Z" stroke="#7179CE" stroke-linecap="round" stroke-linejoin="round"/>
<path d="M7.125 11.75V16.61C7.12517 16.6954 7.15344 16.7784 7.20545 16.8462C7.25747 16.914 7.33033 16.9628 7.41282 16.985C7.4953 17.0073 7.58282 17.0018 7.66187 16.9694C7.74092 16.937 7.80712 16.8795 7.85025 16.8057L9.771 13.5132" stroke="#7179CE" stroke-linecap="round" stroke-linejoin="round"/>
</g>
<defs>
<clipPath id="clip0_77_1530">
<rect width="18" height="18" fill="white" transform="translate(0 0.5)"/>
</clipPath>
</defs>
</svg>
