<svg width="43" height="42" viewBox="0 0 43 42" fill="none" xmlns="http://www.w3.org/2000/svg">
<path d="M33.75 5.25H9.25C7.317 5.25 5.75 6.817 5.75 8.75V33.25C5.75 35.183 7.317 36.75 9.25 36.75H33.75C35.683 36.75 37.25 35.183 37.25 33.25V8.75C37.25 6.817 35.683 5.25 33.75 5.25Z" stroke="#7179CE" stroke-width="1.5" stroke-linecap="round" stroke-linejoin="round"/>
<path d="M37.25 26.25L28.5 17.5L9.25 36.75" stroke="#7179CE" stroke-width="1.5" stroke-linecap="round" stroke-linejoin="round"/>
<path d="M15.375 17.5C16.8247 17.5 18 16.3247 18 14.875C18 13.4253 16.8247 12.25 15.375 12.25C13.9253 12.25 12.75 13.4253 12.75 14.875C12.75 16.3247 13.9253 17.5 15.375 17.5Z" stroke="#7179CE" stroke-width="1.5" stroke-linecap="round" stroke-linejoin="round"/>
</svg>
