<svg width="18" height="18" viewBox="0 0 18 18" fill="none" xmlns="http://www.w3.org/2000/svg">
<path d="M11.8425 0.0352609C12.1234 -0.0292965 12.4174 -0.00479427 12.6837 0.105365C12.9501 0.215524 13.1755 0.405873 13.3287 0.649984L14.708 2.85216C14.8192 3.02953 14.9691 3.17944 15.1465 3.29066L17.3487 4.66997C17.5933 4.82307 17.7841 5.04862 17.8945 5.31524C18.0049 5.58187 18.0295 5.87628 17.9648 6.15751L17.382 8.68856C17.3349 8.89312 17.3349 9.10567 17.382 9.31022L17.9648 11.8427C18.0289 12.1235 18.004 12.4173 17.8936 12.6833C17.7832 12.9494 17.5928 13.1745 17.3487 13.3274L15.1465 14.7081C14.9691 14.8193 14.8192 14.9693 14.708 15.1466L13.3287 17.3488C13.1757 17.5932 12.9503 17.7838 12.684 17.8942C12.4177 18.0046 12.1235 18.0293 11.8425 17.9649L9.31008 17.3821C9.10597 17.3353 8.89391 17.3353 8.6898 17.3821L6.15737 17.9649C5.87634 18.0293 5.58222 18.0046 5.31589 17.8942C5.04955 17.7838 4.82422 17.5932 4.67121 17.3488L3.2919 15.1466C3.18028 14.9691 3.02989 14.8192 2.85202 14.7081L0.651224 13.3288C0.406862 13.1758 0.216229 12.9505 0.105815 12.6841C-0.00459912 12.4178 -0.0293109 12.1237 0.0351134 11.8427L0.616533 9.31022C0.663548 9.10567 0.663548 8.89312 0.616533 8.68856L0.0337258 6.15751C-0.030878 5.87614 -0.00611286 5.58162 0.104571 5.31498C0.215255 5.04835 0.406346 4.82287 0.651224 4.66997L2.85202 3.29066C3.02989 3.17961 3.18028 3.02969 3.2919 2.85216L4.67121 0.649984C4.82433 0.406137 5.04951 0.215962 5.31555 0.105818C5.58159 -0.00432621 5.8753 -0.0289846 6.15598 0.0352609L8.6898 0.616681C8.89391 0.663483 9.10597 0.663483 9.31008 0.616681L11.8425 0.0352609Z" fill="#68C04A"/>
<path d="M5.55103 9.74332L8.37487 12.4478L12.4476 5.55127" stroke="white" stroke-linecap="round" stroke-linejoin="round"/>
</svg>
